/* XPM */
static char * all_headers_xpm[] = {
"24 24 41 1",
" 	c None",
".	c #000000",
"+	c #7B7B78",
"@	c #C7C7C3",
"#	c #E9E8E1",
"$	c #BFBFBC",
"%	c #5F5E5E",
"&	c #E3E3DF",
"*	c #F3F3EF",
"=	c #F1F1EC",
"-	c #898364",
";	c #616060",
">	c #A7A6A3",
",	c #C6C6C4",
"'	c #838381",
")	c #929292",
"!	c #DBDBDB",
"~	c #FFFFFF",
"{	c #D6D6D6",
"]	c #A9A9A6",
"^	c #F0EFEA",
"/	c #F1F0EB",
"(	c #EFEEE8",
"_	c #EBE9E3",
":	c #F0EFEB",
"<	c #EEECE7",
"[	c #EBEAE4",
"}	c #EAE9E2",
"|	c #B6B5B2",
"1	c #EDECE6",
"2	c #E8E7DF",
"3	c #ECEBE5",
"4	c #E9E8E0",
"5	c #E8E6DF",
"6	c #CECDC7",
"7	c #797875",
"8	c #969590",
"9	c #CFCEC8",
"0	c #AEADA8",
"a	c #585754",
"b	c #7B7A76",
"                        ",
"                        ",
"              ....      ",
"         .....+@#$.     ",
"    .....%$&*#=--#.     ",
"   .;##..######--->.    ",
"   .,..##.#####---#.    ",
"   .'.#.#.#########.    ",
"    .#.#.######......   ",
"    .########.).!~~{.)  ",
"    .]##^#####.~~))~~.) ",
"     ./^(###_.!~)~~~~!. ",
"     .:(<#[}#.~)~~~~~~.)",
"     .|1##}#2.~~~~~~~~.)",
"      .3#}456.!~~~~~~!.)",
"      .7890....~~~~~~.))",
"      .ab..  ...!~~!.)) ",
"       ..   ...)....))  ",
"           ...)) ))))   ",
"          ...))         ",
"         ...))          ",
"        ...))           ",
"        ).))            ",
"         ))             "};
