/* XPM */
static const char * balsa_postpone_xpm[] = {
"24 24 77 1",
" 	c None",
".	c #000000",
"+	c #F6F9FF",
"@	c #ABD5FF",
"#	c #DEA69C",
"$	c #E1B3AB",
"%	c #E0B2AB",
"&	c #E0B2AA",
"*	c #DDACA3",
"=	c #DAA299",
"-	c #DBA59C",
";	c #D6958A",
">	c #99CCFF",
",	c #C5E1FF",
"'	c #6699CC",
")	c #CC8376",
"!	c #C97362",
"~	c #C97261",
"{	c #C97061",
"]	c #C97364",
"^	c #C87060",
"/	c #CC7464",
"(	c #CC7F73",
"_	c #406080",
":	c #B4D9FF",
"<	c #FFFFFF",
"[	c #416283",
"}	c #F7F7F7",
"|	c #6090C0",
"1	c #3D5C7B",
"2	c #CCCCCC",
"3	c #CACACA",
"4	c #BDBDBD",
"5	c #E7E7E7",
"6	c #5C8AB8",
"7	c #3A5876",
"8	c #F9F9F9",
"9	c #EBEBEB",
"0	c #FCFCFC",
"a	c #F2F2F2",
"b	c #C8C8C8",
"c	c #C0C0C0",
"d	c #B8B8B8",
"e	c #C46D74",
"f	c #9F3C44",
"g	c #B5444E",
"h	c #EFEFEF",
"i	c #BD5A62",
"j	c #EBF1F8",
"k	c #F5F5F5",
"l	c #7B2D34",
"m	c #6496C8",
"n	c #5C8BB9",
"o	c #8C343C",
"p	c #6598CB",
"q	c #8EA4BC",
"r	c #C2C2C2",
"s	c #DFDFDF",
"t	c #72787D",
"u	c #263A4F",
"v	c #304961",
"w	c #CBCBCB",
"x	c #AAAAAA",
"y	c #6294C5",
"z	c #C1C1C1",
"A	c #2E455D",
"B	c #436688",
"C	c #556B81",
"D	c #5E8EBD",
"E	c #293E54",
"F	c #466A8E",
"G	c #4A5B6C",
"H	c #3C5B7A",
"I	c #919191",
"J	c #B2B2B2",
"K	c #808080",
"L	c #7D7D7D",
"                        ",
"                        ",
"                        ",
"    ................    ",
"   .+@#$%&&&&&*=-;>>.   ",
"   .,')!~{{{{{]^/('_.   ",
"   .:'<<<<<<<<<<<<'[.   ",
"   .:'<<<<<<<<<<<}|1.   ",
"   .:'<2222222234567.   ",
"   .:'<<<<<<<<895567.   ",
"   .:'<<<<<<0a..5567. . ",
"   .:'<222bcd.ef.567..g.",
"   .:'<<<h555.gg.567.ig.",
"   .:'j<k55555.gf.6.igl.",
"   .:''mn66666.gg..igo. ",
"   .:'pqddrs52t.ggggf.  ",
"   .:'|dduv5wdx.gggg.   ",
"   .:y6dzABzdd.iggg..   ",
"   .CD6csEFdd.igggg..   ",
"    .GHIJKKL.igo..go.   ",
"     .......ego...fg.   ",
"           .go.   .gf.  ",
"            ..    .fg.  ",
"                   ..   "};
