/* XPM */
static const char * balsa_next_flagged_xpm[] = {
"24 24 67 1",
" 	c None",
".	c #000000",
"+	c #9A9A9A",
"@	c #EEE4C7",
"#	c #E1BC6C",
"$	c #AF8932",
"%	c #CCCCCC",
"&	c #C9C9C9",
"*	c #CACACA",
"=	c #CDCDCD",
"-	c #E4C279",
";	c #D1940C",
">	c #A07208",
",	c #77A16E",
"'	c #BABABA",
")	c #BDBDBD",
"!	c #BBBBBB",
"~	c #E3C178",
"{	c #ACC8A9",
"]	c #709867",
"^	c #B4B4B4",
"/	c #B9B9B9",
"(	c #C1D6BD",
"_	c #BDD3B8",
":	c #E3C279",
"<	c #B2CBB0",
"[	c #AAC7A8",
"}	c #0F1308",
"|	c #838383",
"1	c #7D7D7D",
"2	c #7F7F7F",
"3	c #AEC5A8",
"4	c #AEC8AD",
"5	c #E2BF72",
"6	c #ADC8AD",
"7	c #A8C7A8",
"8	c #A5C4A3",
"9	c #7F9F76",
"0	c #797979",
"a	c #6B6B6B",
"b	c #A6BFA0",
"c	c #ABC7AA",
"d	c #C6A14F",
"e	c #B7820A",
"f	c #7F5903",
"g	c #ABC7A8",
"h	c #AFC8AD",
"i	c #A4C3A2",
"j	c #6B9060",
"k	c #778E6F",
"l	c #698D60",
"m	c #4E6948",
"n	c #4F6A49",
"o	c #6B9063",
"p	c #445B2C",
"q	c #747474",
"r	c #5E5E5E",
"s	c #6B8661",
"t	c #5B7950",
"u	c #6C8562",
"v	c #455C3D",
"w	c #42583A",
"x	c #65815C",
"y	c #506B46",
"z	c #E8CC92",
"A	c #C78D0B",
"B	c #8F6404",
"                        ",
"                        ",
"                        ",
"         .              ",
"         ..             ",
"         .+. .          ",
"         ......         ",
"  ........@##$..        ",
"  .%&*===.-;;>.,.       ",
"  .')!....~;;>.{].      ",
"  .^!/.(_.:;;>.<[]}     ",
"  .|12.34.5;;>.6789.    ",
"  .0aa.bc.deef.[ghij.   ",
"  .0aa.klm....noooolp.  ",
"  .qrr.stttttttttttp.   ",
"  .....uttv..wttttp.    ",
"      .xyy.zA.tttp.     ",
"      .....AB.ytp.      ",
"         .....yp.       ",
"         .   .p.        ",
"             ..         ",
"             .          ",
"                        ",
"                        "};
