/* XPM */
static const char * balsa_forward_xpm[] = {
"24 24 39 1",
" 	c None",
".	c #000000",
"+	c #535353",
"@	c #FFFFFF",
"#	c #EEEEEE",
"$	c #4F4F4F",
"%	c #F5F5F5",
"&	c #FBFBFB",
"*	c #F7F7F7",
"=	c #FAFAFA",
"-	c #AEAEAE",
";	c #E4E4E4",
">	c #434343",
",	c #ACACAC",
"'	c #C8C8C8",
")	c #A0A0A0",
"!	c #D4D4D4",
"~	c #959595",
"{	c #3E3E3E",
"]	c #4D4D4D",
"^	c #818181",
"/	c #C6C6C6",
"(	c #6A6A6A",
"_	c #636363",
":	c #B9B9B9",
"<	c #737373",
"[	c #749ABD",
"}	c #7C7C7C",
"|	c #93B8DA",
"1	c #BCBCBC",
"2	c #CADCED",
"3	c #C9DBEC",
"4	c #C6D9EB",
"5	c #BFD4E8",
"6	c #7693AB",
"7	c #416A8C",
"8	c #264D75",
"9	c #335B80",
"0	c #396285",
"                        ",
"  .................     ",
" .+@@@@@@@@@@@@@@@+.    ",
" .#$%&%&*&%&%&*=%$-.    ",
" .@;>%%%%%%%%%%%$,'.    ",
" .@%;$%%%%%%%%%>)!'.    ",
" .@&%;>%%%%%%%$~!;'.    ",
" .@%%%;{%%%%%]^/;;'.    ",
" .@&%%%(>%%%$();%;'.    ",
" .@%%%_::$%$~/<.%;'.    ",
" .@&%_/%;!$,/;%..;'.    ",
" .@%<!%%%%;;%%%.[.'.    ",
" .@}!;;;;;......|[..    ",
" .<1111111.23334||[.    ",
"  .........3|||||||[.   ",
"          .5||||||||[.  ",
"          .67777777778. ",
"          .6777777778.  ",
"          .677777778.   ",
"          .98888778.    ",
"          ......08.     ",
"               .8.      ",
"               ..       ",
"               .        "};
