/* XPM */
static const char * balsa_send_xpm[] = {
"24 24 70 1",
" 	c None",
".	c #000000",
"+	c #F3E5C7",
"@	c #F7EED0",
"#	c #EBD29A",
"$	c #CA8E0A",
"%	c #F7EFD0",
"&	c #EED680",
"*	c #D1940C",
"=	c #CC900A",
"-	c #F7EFD1",
";	c #C38909",
">	c #F6ECC9",
",	c #ECD39D",
"'	c #B98208",
")	c #A59458",
"!	c #D1BC70",
"~	c #E9D17B",
"{	c #EBD391",
"]	c #D0991D",
"^	c #B07C08",
"/	c #916608",
"(	c #F3E3A8",
"_	c #ECD49D",
":	c #AE7B0A",
"<	c #F4E4AD",
"[	c #F5E8BA",
"}	c #535353",
"|	c #FFFFFF",
"1	c #F5E9BC",
"2	c #919191",
"3	c #D5D5D5",
"4	c #EEEEEE",
"5	c #4F4F4F",
"6	c #F5F5F5",
"7	c #FBFBFB",
"8	c #C6B26A",
"9	c #C0A76F",
"0	c #818181",
"a	c #CCCCCC",
"b	c #AEAEAE",
"c	c #E4E4E4",
"d	c #434343",
"e	c #838383",
"f	c #414141",
"g	c #ACACAC",
"h	c #C8C8C8",
"i	c #B3B3B3",
"j	c #9D9D9D",
"k	c #7E7E7E",
"l	c #737373",
"m	c #7D7D7D",
"n	c #2B2B2B",
"o	c #858585",
"p	c #D4D4D4",
"q	c #C4C4C4",
"r	c #BBBBBB",
"s	c #7C7C7C",
"t	c #B1B1B1",
"u	c #3E3E3E",
"v	c #EAEAEA",
"w	c #DFDFDF",
"x	c #4D4D4D",
"y	c #C6C6C6",
"z	c #6A6A6A",
"A	c #A0A0A0",
"B	c #636363",
"C	c #B9B9B9",
"D	c #959595",
"E	c #BCBCBC",
"           .            ",
"          .+.           ",
"         .@#$.          ",
"        .%&#*=.         ",
"       .-&&#**;.        ",
"      .>&&&,***'.       ",
"     .>)!~&{*]^//.      ",
"    ....(&&_**:....     ",
"       .<&&#**:.        ",
"   .....[&&#**:.....    ",
"  .}|||.1&&#**:.23|}.   ",
"  .4567.&889:::.0a5b.   ",
"  .|cd6.........efgh.   ",
"  .|6c5aijeeeklmnoph.   ",
"  .|76cdaqqrrrifstch.   ",
"  .|666cuvwwwwx0ycch.   ",
"  .|7666zd6665zAc6ch.   ",
"  .|666BCC565Dyly6ch.   ",
"  .|76By6cp5gyc6scch.   ",
"  .|6lp6666cc6666sch.   ",
"  .|spccccccccccccsh.   ",
"  .lEEEEEEEEEEEEEEEB.   ",
"   .................    ",
"                        "};
