/* XPM */
static const char * balsa_next_xpm[] = {
"24 24 200 2",
"  	c None",
". 	c #000000",
"+ 	c #FFFFFF",
"@ 	c #E0E0E0",
"# 	c #C1C1C1",
"$ 	c #F4F4F4",
"% 	c #FDFDFD",
"& 	c #FBFBFB",
"* 	c #C3C3C3",
"= 	c #A8A8A8",
"- 	c #F6F6F6",
"; 	c #FEFEFE",
"> 	c #FCFCFC",
", 	c #FAFAFA",
"' 	c #FBFBFA",
") 	c #ADADAD",
"! 	c #767676",
"~ 	c #5D5D5D",
"{ 	c #404040",
"] 	c #4A4A4A",
"^ 	c #B5B5B5",
"/ 	c #EDEDED",
"( 	c #F3F3F3",
"_ 	c #F5F5F5",
": 	c #F7F7F7",
"< 	c #F8F8F8",
"[ 	c #F8F8F6",
"} 	c #E2E2E2",
"| 	c #858585",
"1 	c #4B4B49",
"2 	c #161616",
"3 	c #ABABAB",
"4 	c #E3E3E2",
"5 	c #EFEFEF",
"6 	c #F9F9F9",
"7 	c #F2F2F2",
"8 	c #F0F0F0",
"9 	c #D5D5D5",
"0 	c #EEEEEE",
"a 	c #8DA46B",
"b 	c #9B9B9B",
"c 	c #D9D9D9",
"d 	c #E8E8E5",
"e 	c #ECECEC",
"f 	c #EDEDEA",
"g 	c #EAEAE7",
"h 	c #E5E5E5",
"i 	c #DFDFDF",
"j 	c #EBEBEB",
"k 	c #E3E3E3",
"l 	c #D7E2CD",
"m 	c #74904B",
"n 	c #9F9F9E",
"o 	c #DADADA",
"p 	c #E7E7E7",
"q 	c #EBEBE9",
"r 	c #E9E9E7",
"s 	c #E0E0DE",
"t 	c #BFBFBF",
"u 	c #D6E0CB",
"v 	c #B6CAA3",
"w 	c #9A9A9A",
"x 	c #CCCCCA",
"y 	c #D8D8D5",
"z 	c #DCDCD9",
"A 	c #DBDBD8",
"B 	c #D9D9D6",
"C 	c #D6D6D4",
"D 	c #E5E5E4",
"E 	c #D7D7D5",
"F 	c #BABABA",
"G 	c #DAE3D0",
"H 	c #C8D7BA",
"I 	c #CBD8BF",
"J 	c #C3D3B4",
"K 	c #979797",
"L 	c #D0D0CE",
"M 	c #DDDDDB",
"N 	c #E2E2E1",
"O 	c #E4E4E3",
"P 	c #E4E4E2",
"Q 	c #E2E2E0",
"R 	c #D3D3D1",
"S 	c #DDE6D5",
"T 	c #B9CCA7",
"U 	c #8F8F8E",
"V 	c #BEBEBB",
"W 	c #DADAD8",
"X 	c #DEDEDC",
"Y 	c #DEDEDB",
"Z 	c #D9D9D7",
"` 	c #BDBDBC",
" .	c #E6ECE1",
"..	c #C5D4B5",
"+.	c #C7D6B9",
"@.	c #9C9C9B",
"#.	c #CACAC9",
"$.	c #D7D7D4",
"%.	c #DBDBD9",
"&.	c #D5D5D3",
"*.	c #BCBCBC",
"=.	c #A5B88B",
"-.	c #506433",
";.	c #777775",
">.	c #BEBEBC",
",.	c #D1D1CD",
"'.	c #C8C8C7",
").	c #B4B4B4",
"!.	c #9FB283",
"~.	c #738F4A",
"{.	c #6D6D6C",
"].	c #A0A09D",
"^.	c #BCBCB8",
"/.	c #CDCDC9",
"(.	c #D2D2D0",
"_.	c #D5D5D1",
":.	c #D7D7D3",
"<.	c #BABAB8",
"[.	c #839D5E",
"}.	c #5E5E5D",
"|.	c #858582",
"1.	c #9B9B97",
"2.	c #C2C2BE",
"3.	c #CFCFCB",
"4.	c #D2D2CF",
"5.	c #D1D1D0",
"6.	c #D3D3D0",
"7.	c #6B6B6A",
"8.	c #90908F",
"9.	c #A8A8A5",
"0.	c #BEBEBA",
"a.	c #CACAC7",
"b.	c #CECECB",
"c.	c #D1D1CE",
"d.	c #D0D0CC",
"e.	c #CACAC8",
"f.	c #B6B6B6",
"g.	c #ACACAC",
"h.	c #929290",
"i.	c #8A8A87",
"j.	c #5F5F5D",
"k.	c #7F7F7D",
"l.	c #949492",
"m.	c #A8A8A4",
"n.	c #B1B1B0",
"o.	c #B5B5B1",
"p.	c #B7B7B1",
"q.	c #B8B8B2",
"r.	c #B4B4B2",
"s.	c #C5C5C1",
"t.	c #B1B1B1",
"u.	c #AEAEAC",
"v.	c #6D6D6D",
"w.	c #8F8F8D",
"x.	c #A7A7A5",
"y.	c #BBBBB8",
"z.	c #C7C7C4",
"A.	c #CDCDCB",
"B.	c #CECECA",
"C.	c #B8B8B8",
"D.	c #C7C7C5",
"E.	c #BBBBB6",
"F.	c #696966",
"G.	c #81817E",
"H.	c #93938F",
"I.	c #A5A59F",
"J.	c #B0B0AB",
"K.	c #B1B1AC",
"L.	c #B3B3AE",
"M.	c #B4B4AF",
"N.	c #B2B2AF",
"O.	c #B2B2AD",
"P.	c #CCCCC8",
"Q.	c #B8B8B6",
"R.	c #C8C8C5",
"S.	c #929291",
"T.	c #989897",
"U.	c #B9B9B8",
"V.	c #C5C5C2",
"W.	c #CBCBC7",
"X.	c #CBCBC9",
"Y.	c #C1C1BD",
"Z.	c #B3B3B3",
"`.	c #D0D0CF",
" +	c #CBCBC8",
".+	c #BDBDBB",
"++	c #ADADAC",
"@+	c #AFAFAB",
"#+	c #BBBBB7",
"$+	c #C6C6C2",
"%+	c #C7C7C3",
"&+	c #B0B0AE",
"*+	c #ACACA9",
"=+	c #A9A9A6",
"-+	c #B2B2AE",
";+	c #B3B3AF",
">+	c #B1B1AF",
",+	c #B1B1AD",
"'+	c #AFAFAD",
")+	c #B6B6B4",
"                                                ",
"    . . . . . . . . . . . . . . . . . .         ",
"    . + + + + + + + + + + + + + + + @ # .       ",
"    . + $ + + + + + % % % % % % % & * & = .     ",
"    . + - ; % > , > % % % % & & ' , ) ! ~ { .   ",
"    . + - > ] ^ / ( _ : < - - - ( [ } | 1 2 .   ",
"    . + ( - . . 3 4 5 : 6 < [ - $ 7 8 5 9 ) .   ",
"    . ; 5 0 . a . b c d / e f g h } i j } # .   ",
"    . $ k } . l m . n o p / 0 / j q r r s t .   ",
". . . . . . . u v m . w x y z A c B C D E F .   ",
". G H H H H I J v v m . K L M N O P s Q R F .   ",
". S v v v v T v v v v m . U V W M X Y X Z ` .   ",
".  .H ..J J +.J J J J v m . @.#.$.A %.%.&.*..   ",
". =.m m m m m m m m m m -.. ;.>.,.C E Z '.)..   ",
". !.m m m m ~.m m m m -.. {.].^./.(._.:.L <..   ",
". [.m m m m ~.m m m -.. }.|.1.2.3.4.5.6.L <..   ",
". . . . . . . m m -.. 7.8.9.0.a.b.c.d.5.e.f..   ",
"    . g.h.i.. m -.. j.k.l.m.n.o.p.q.r.c.s.)..   ",
"    . 9 t.u.. -.. v.w.x.y.z./.A.B.B.B.d.B.C..   ",
"    . ( D.E.. . F.G.H.I.J.K.L.M.N.N.O.B.P.Q..   ",
"    . ; (.R.. S.T.m.U.V.W.X.P.P.P.a.a.P.Y.Z..   ",
"    . + `. +.+++@+#+$+W.W.P.P.a.a.R.R.P.%+)..   ",
"    . + &+n.*+9.=+u.&+-+;+;+>+,+,+'+'+;+)+h..   ",
"    . . . . . . . . . . . . . . . . . . . . .   "};
