/* XPM */
static const char * balsa_send_receive_xpm[] = {
"24 23 90 1",
" 	c None",
".	c #000000",
"+	c #F7EFD0",
"@	c #CC900A",
"#	c #F7EFD1",
"$	c #EED680",
"%	c #D1940C",
"&	c #C38909",
"*	c #F6ECC9",
"=	c #B98208",
"-	c #A59458",
";	c #D1BC70",
">	c #E9D17B",
",	c #D0991D",
"'	c #B07C08",
")	c #916608",
"!	c #D8E6D2",
"~	c #B9C9B1",
"{	c #7D9A69",
"]	c #6F9059",
"^	c #F3E3A8",
"/	c #AE7B0A",
"(	c #D7E5D0",
"_	c #AECCA1",
":	c #669447",
"<	c #557C3B",
"[	c #F4E4AD",
"}	c #D3E3CB",
"|	c #F5E9BC",
"1	c #D0E1C9",
"2	c #535353",
"3	c #FFFFFF",
"4	c #C6B26A",
"5	c #848484",
"6	c #D5D5D5",
"7	c #ABABAB",
"8	c #DBE7D6",
"9	c #B9C3B5",
"0	c #BDCEB6",
"a	c #A9C79C",
"b	c #6E9952",
"c	c #65894C",
"d	c #748C64",
"e	c #668154",
"f	c #EEEEEE",
"g	c #4F4F4F",
"h	c #838383",
"i	c #D1D1D1",
"j	c #DDDDDD",
"k	c #A8A8A8",
"l	c #58833C",
"m	c #E4E4E4",
"n	c #373737",
"o	c #B3B3B3",
"p	c #9D9D9D",
"q	c #7E7E7E",
"r	c #737373",
"s	c #7D7D7D",
"t	c #CCCCCC",
"u	c #F5F5F5",
"v	c #CECECE",
"w	c #949494",
"x	c #E1EBDC",
"y	c #5E8A41",
"z	c #414141",
"A	c #C4C4C4",
"B	c #BBBBBB",
"C	c #AAAAAA",
"D	c #3C3C3C",
"E	c #E0EADB",
"F	c #639144",
"G	c #FBFBFB",
"H	c #404040",
"I	c #DFDFDF",
"J	c #959595",
"K	c #8E8E8E",
"L	c #3E3E3E",
"M	c #4D4D4D",
"N	c #818181",
"O	c #C6C6C6",
"P	c #6A6A6A",
"Q	c #434343",
"R	c #A0A0A0",
"S	c #C8C8C8",
"T	c #636363",
"U	c #B9B9B9",
"V	c #D4D4D4",
"W	c #ACACAC",
"X	c #7C7C7C",
"Y	c #BCBCBC",
"                        ",
"     ..                 ",
"    .+@.                ",
"   .#$%&.               ",
"  .*$$%%=.    ......    ",
" .*-;>,')).   .!~{].    ",
"....^$%/....  .(_:<.    ",
"   .[$%/.     .}_:<.    ",
" ...|$%/.......1_:<.... ",
".23.$4//.567.890abcde.  ",
".fg......hijk.8__::l.   ",
".3mnopqrsptuvw.x_:y.    ",
".3umzABotttujCD.EF.     ",
".3GumHIuuuuujgJK...     ",
".3uuumLuuuuuMNOvkw.     ",
".3GuuuPQuuugPRmumS.     ",
".3uuuTUUgugJOrOumS.     ",
".3GuTOumVgWOmuXmmS.     ",
".3urVuuuummuuuuXmS.     ",
".3XVmmmmmmmmmmmmXS.     ",
".rYYYYYYYYYYYYYYYT.     ",
" .................      ",
"                        "};
