/* XPM */
static const char * balsa_marked_new_xpm[] = {
"24 24 31 1",
" 	c None",
".	c #000000",
"+	c #F4E18B",
"@	c #C6B367",
"#	c #FFE100",
"$	c #FFFFFF",
"%	c #535353",
"&	c #D8C76E",
"*	c #F5F5F5",
"=	c #FBFBFB",
"-	c #F7F7F7",
";	c #FAFAFA",
">	c #4F4F4F",
",	c #AEAEAE",
"'	c #ACACAC",
")	c #C8C8C8",
"!	c #E4E4E4",
"~	c #434343",
"{	c #A0A0A0",
"]	c #D4D4D4",
"^	c #959595",
"/	c #3E3E3E",
"(	c #4D4D4D",
"_	c #818181",
":	c #C6C6C6",
"<	c #6A6A6A",
"[	c #636363",
"}	c #B9B9B9",
"|	c #737373",
"1	c #7C7C7C",
"2	c #BCBCBC",
"                        ",
"    .+...............   ",
"   .@#@$$$$$$$$$$$$$%.  ",
"   +#&#+*=-=*=*=-;*>,.  ",
"   .@#@***********>').  ",
"   .$+!>*********~{]).  ",
"   .$=*!~*******>^]!).  ",
"   .$***!/*****(_:!!).  ",
"   .$=***<~***><{!*!).  ",
"   .$***[}}>*>^:|:*!).  ",
"   .$=*[:*!]>':!*1!!).  ",
"   .$*|]****!!****1!).  ",
"   .$1]!!!!!!!!!!!!1).  ",
"   .|222222222222222[.  ",
"    .................   ",
"                        ",
"                        ",
"                        ",
"                        ",
"                        ",
"                        ",
"                        ",
"                        ",
"                        "};
