/* XPM */
static const char * balsa_next_unread_xpm[] = {
"24 24 65 1",
" 	c None",
".	c #000000",
"+	c #9A9A9A",
"@	c #C1C1C1",
"#	c #8E8E8E",
"$	c #C3C3C3",
"%	c #BCBCBC",
"&	c #868686",
"*	c #8CA782",
"=	c #CCCCCC",
"-	c #C9C9C9",
";	c #CACACA",
">	c #CDCDCD",
",	c #BFBFBF",
"'	c #C0C0C0",
")	c #BABABA",
"!	c #B1CDAE",
"~	c #77A16E",
"{	c #BDBDBD",
"]	c #BBBBBB",
"^	c #B4CEB1",
"/	c #ACC8A9",
"(	c #709867",
"_	c #B4B4B4",
":	c #B9B9B9",
"<	c #C1D6BD",
"[	c #BDD3B8",
"}	c #BFD4BB",
"|	c #C2D7BE",
"1	c #B0CAAD",
"2	c #B2CBB0",
"3	c #AAC7A8",
"4	c #0F1308",
"5	c #838383",
"6	c #7D7D7D",
"7	c #7F7F7F",
"8	c #AEC5A8",
"9	c #AEC8AD",
"0	c #ABC7A8",
"a	c #AAC6A7",
"b	c #A8C6A5",
"c	c #ADC8AD",
"d	c #A8C7A8",
"e	c #A5C4A3",
"f	c #7F9F76",
"g	c #797979",
"h	c #6B6B6B",
"i	c #A6BFA0",
"j	c #ABC7AA",
"k	c #A7C5A4",
"l	c #A9C7A6",
"m	c #AFC8AD",
"n	c #A4C3A2",
"o	c #6B9060",
"p	c #778E6F",
"q	c #698D60",
"r	c #6B9063",
"s	c #445B2C",
"t	c #747474",
"u	c #5E5E5E",
"v	c #6B8661",
"w	c #5B7950",
"x	c #6C8562",
"y	c #65815C",
"z	c #506B46",
"                        ",
"                        ",
"                        ",
"         .              ",
"         ..             ",
"         .+. .          ",
"         .@#...         ",
"  ........$%&.*.        ",
"  .=-;>>>>,').!~.       ",
"  .){]........^/(.      ",
"  ._]:.<[}||||123(4     ",
"  .567.89000ab3cdef.    ",
"  .ghh.ijbkbl0/30mno.   ",
"  .ghh.pqrrrrrrrrrrqs.  ",
"  .tuu.vwwwwwwwwwwws.   ",
"  .....xwwwwwwwwwws.    ",
"      .yzzzzzzwwws.     ",
"      ........zws.      ",
"         ..  .zs.       ",
"         .   .s.        ",
"             ..         ",
"             .          ",
"                        ",
"                        "};
