/* XPM */
static char *balsa_flagged_xpm[] = {
/* columns rows colors chars-per-pixel */
"24 24 39 1",
"  c #000000",
". c #3f2c01",
"X c #473202",
"o c #4d3603",
"O c #553c03",
"+ c #5b4105",
"@ c #574419",
"# c #5f4816",
"$ c #634605",
"% c #7f5903",
"& c #635027",
"* c #6b5627",
"= c #705e36",
"- c #746649",
"; c #73684c",
": c #777263",
"> c #8f6404",
", c #9b6d06",
"< c #a07208",
"1 c #ab7807",
"2 c #b7820a",
"3 c #b8830a",
"4 c #af8932",
"5 c #be912c",
"6 c #c78d0b",
"7 c #d1940c",
"8 c #d9a93f",
"9 c #c6a14f",
"0 c #c8a24f",
"q c #d7ac4e",
"w c #daaa42",
"e c #e1bc6c",
"r c #e2bf72",
"t c #e2c075",
"y c #e3c178",
"u c #e8cc92",
"i c #e7d099",
"p c #eee4c7",
"a c None",
/* pixels */
"aaaaaaaaaaaaaaaaaaaaaaaa",
"aaaaaaaaaaaaaaaaaaaaaaaa",
"aaaaaaaaaaaaaaaaaaaaaaaa",
"aaaaaaa          aaaaaaa",
"aaaaaaa  :;==&@  aaaaaaa",
"aaaaaaa  piee04  aaaaaaa",
"aaaaaaa  yw773<  aaaaaaa",
"aaaaaaa  yw773<  aaaaaaa",
"aaaaaaa  yw773<  aaaaaaa",
"aaaaaaa  yw773<  aaaaaaa",
"aaaaaaa  tw773<  aaaaaaa",
"aaaaaaa  r8773<  aaaaaaa",
"aaaaaaa  9522,%  aaaaaaa",
"aaaaaaa  &#++o.  aaaaaaa",
"aaaaaaaaa      aaaaaaaaa",
"aaaaaaaaaaaaaaaaaaaaaaaa",
"aaaaaaaaaa    aaaaaaaaaa",
"aaaaaaaaaa    aaaaaaaaaa",
"aaaaaaaaa -u6$ aaaaaaaaa",
"aaaaaaaaa *q1O aaaaaaaaa",
"aaaaaaaaa $6>X aaaaaaaaa",
"aaaaaaaaa      aaaaaaaaa",
"aaaaaaaaa      aaaaaaaaa",
"aaaaaaaaaaaaaaaaaaaaaaaa"
};
