/* XPM */
static const char * balsa_attachment_xpm[] = {
"24 24 64 1",
" 	c None",
".	c #000000",
"+	c #060606",
"@	c #1D1D1D",
"#	c #343434",
"$	c #FFFFFF",
"%	c #131313",
"&	c #373737",
"*	c #F6F6F6",
"=	c #DFDFDF",
"-	c #333333",
";	c #EEEEEE",
">	c #E4E4E4",
",	c #DBDBDB",
"'	c #F8F8F8",
")	c #F7F7F7",
"!	c #E6E6E6",
"~	c #E7E7E7",
"{	c #D7D7D7",
"]	c #FAFAFA",
"^	c #F9F9F9",
"/	c #E5E5E5",
"(	c #F5F5F5",
"_	c #F4F4F4",
":	c #E0E0E0",
"<	c #303030",
"[	c #E3E3E3",
"}	c #DDDDDD",
"|	c #E2E2E2",
"1	c #FBFBFB",
"2	c #BBBBBB",
"3	c #DEDEDE",
"4	c #F0F0F0",
"5	c #E8E8E8",
"6	c #D5D5D5",
"7	c #CACACA",
"8	c #DADADA",
"9	c #F3F3F3",
"0	c #0F0F0F",
"a	c #D6D6D6",
"b	c #D3D3D3",
"c	c #F2F2F2",
"d	c #BCBCBC",
"e	c #E1E1E1",
"f	c #D8D8D8",
"g	c #C3C3C3",
"h	c #D4D4D4",
"i	c #EAEAEA",
"j	c #F1F1F1",
"k	c #0B0B0B",
"l	c #CDCDCD",
"m	c #D9D9D9",
"n	c #989898",
"o	c #C4C4C4",
"p	c #C5C5C5",
"q	c #BFBFBF",
"r	c #BABABA",
"s	c #D1D1D1",
"t	c #CECECE",
"u	c #ECECEC",
"v	c #C7C7C7",
"w	c #B8B8B8",
"x	c #101010",
"y	c #BEBEBE",
"                        ",
"                        ",
"          .....         ",
"         .     . ..     ",
"         .    +@#$$.    ",
"         . .%&$$$*=.    ",
"        ..-;>,$')*!.    ",
"     .+-$.~{]^',/(_:.   ",
"   +<$$$$.{][}.|*(_:.   ",
"  .$$$]]1.234'.|*[_:.   ",
"  .$'^5}3.6^''.78_99}.  ",
"   0$'a^^.b',,.|(_9c=.  ",
"   .$))''.da)*.|_}ec=.  ",
"   .$$*a,./f*(.ghi:ji:. ",
"    k$(**l.fm.na9cjj4}. ",
"    .$_(((o..paccjjiqr. ",
"    .$$_,s}9t,ucjvw...  ",
"     x$9999ccct2...     ",
"     .$ccccay...        ",
"     .$$!o...           ",
"      .2..              ",
"      ..                ",
"                        ",
"                        "};
