/* XPM */
static const char * balsa_marked_all_xpm[] = {
"24 24 39 1",
" 	c None",
".	c #000000",
"+	c #D37045",
"@	c #F7A080",
"#	c #FFFFFF",
"$	c #535353",
"%	c #C65A27",
"&	c #F5F5F5",
"*	c #FBFBFB",
"=	c #F7F7F7",
"-	c #FAFAFA",
";	c #4F4F4F",
">	c #AEAEAE",
",	c #ACACAC",
"'	c #C8C8C8",
")	c #E4E4E4",
"!	c #434343",
"~	c #A0A0A0",
"{	c #D4D4D4",
"]	c #959595",
"^	c #8C8C8C",
"/	c #3E3E3E",
"(	c #4D4D4D",
"_	c #818181",
":	c #C6C6C6",
"<	c #A1A1A1",
"[	c #6A6A6A",
"}	c #636363",
"|	c #B9B9B9",
"1	c #737373",
"2	c #7C7C7C",
"3	c #BCBCBC",
"4	c #B7B7B7",
"5	c #CDCDCD",
"6	c #646464",
"7	c #AAAAAA",
"8	c #5C5C5C",
"9	c #979797",
"0	c #505050",
"                        ",
"    .+...............   ",
"   .@+@#############$.  ",
"   ++%++&*=*&*&*=-&;>.  ",
"   .@+@&&&&&&&&&&&;,'.. ",
"   .#+);&&&&&&&&&!~{'.!.",
"   .#*&)!&&&&&&&;]{)'.^.",
"   .#&&&)/&&&&&(_:))'.<.",
"   .#*&&&[!&&&;[~)&)'.<.",
"   .#&&&}||;&;]:1:&)'.<.",
"   .#*&}:&){;,:)&2))'.<.",
"   .#&1{&&&&))&&&&2)'.<.",
"   .#2{))))))))))))2'.<.",
"   .1333333333333333}.<.",
"    .................4<.",
"     .5674444444444446<.",
"     .89999999999999990.",
"      ................. ",
"                        ",
"                        ",
"                        ",
"                        ",
"                        ",
"                        "};
