/* XPM */
static const char * balsa_reply_group_xpm[] = {
"24 24 55 1",
" 	c None",
".	c #000000",
"+	c #535353",
"@	c #FFFFFF",
"#	c #EEEEEE",
"$	c #4F4F4F",
"%	c #F5F5F5",
"&	c #FBFBFB",
"*	c #F7F7F7",
"=	c #FAFAFA",
"-	c #AEAEAE",
";	c #E4E4E4",
">	c #434343",
",	c #ACACAC",
"'	c #C8C8C8",
")	c #A0A0A0",
"!	c #D4D4D4",
"~	c #959595",
"{	c #3E3E3E",
"]	c #4D4D4D",
"^	c #818181",
"/	c #C6C6C6",
"(	c #6A6A6A",
"_	c #B9B9B9",
":	c #737373",
"<	c #CCCCCC",
"[	c #7C7C7C",
"}	c #749ABD",
"|	c #8F8F8F",
"1	c #BFBFBF",
"2	c #B1B1B1",
"3	c #C5C5C5",
"4	c #93B8DA",
"5	c #A2A2A2",
"6	c #BEBEBE",
"7	c #C9DBEC",
"8	c #757575",
"9	c #BCBCBC",
"0	c #636363",
"a	c #6C6C6C",
"b	c #C7C7C7",
"c	c #BFD4E8",
"d	c #484847",
"e	c #6C6B6B",
"f	c #8A8989",
"g	c #7C7B7B",
"h	c #264D75",
"i	c #416A8C",
"j	c #7693AB",
"k	c #727171",
"l	c #929191",
"m	c #BBBBBB",
"n	c #636262",
"o	c #335B80",
"p	c #396285",
"                        ",
"    .................   ",
"   .+@@@@@@@@@@@@@@@+.  ",
"   .#$%&%&*&%&%&*=%$-.  ",
"   .@;>%%%%%%%%%%%$,'.. ",
"   .@%;$%%%%%%%%%>)!'.+.",
"   .@&%;>%%%%%%%$~!;'.-.",
"   .@%%%;{%%%%%]^/;;'.'.",
"   .@&%%%(>%%%$();%;'.'.",
"   .@%%%.__$%$~/:/%;'.'.",
"   .@&%..<;!$,/;%[;;'.'.",
"   .@%.}.|11223%%%[;'.'.",
"   .@.}4......56;;;['.'.",
"   ..}4477777.8|99990.'.",
"   .}44444447........ab.",
"  .}44444444c.defffffgb.",
" .hiiiiiiiiij.klmmmmmmn.",
"  .hiiiiiiiij.......... ",
"   .hiiiiiiij.          ",
"    .hiihhhho.          ",
"     .hp......          ",
"      .h.               ",
"       ..               ",
"        .               "};
