/* XPM */
static const char * balsa_show_preview_xpm[] = {
"24 24 93 2",
"  	c None",
". 	c #010101",
"+ 	c #2F2F2F",
"@ 	c #A7A4A0",
"# 	c #FCFCFC",
"$ 	c #64625F",
"% 	c #95938E",
"& 	c #FBFBFB",
"* 	c #F9F8F6",
"= 	c #FBFAFA",
"- 	c #F6F5F1",
"; 	c #7D7B78",
"> 	c #D2CFCA",
", 	c #E9E8E5",
"' 	c #969491",
") 	c #F6F4F1",
"! 	c #81807C",
"~ 	c #C6C3C0",
"{ 	c #E5E3DE",
"] 	c #DCDAD7",
"^ 	c #928F8B",
"/ 	c #FBFBFA",
"( 	c #F7F5F2",
"_ 	c #C1BEBA",
": 	c #E6E3E0",
"< 	c #F7F6F4",
"[ 	c #CFCECA",
"} 	c #868480",
"| 	c #B4B2AE",
"1 	c #E7E5E1",
"2 	c #F0EFEB",
"3 	c #E4E2DD",
"4 	c #A09C97",
"5 	c #DAD8D5",
"6 	c #E7E6E3",
"7 	c #E8E6E1",
"8 	c #B5B2AC",
"9 	c #D3D1CF",
"0 	c #47473F",
"a 	c #0A0A09",
"b 	c #4B4B43",
"c 	c #AEABA6",
"d 	c #34342E",
"e 	c #9D9D8D",
"f 	c #CFCFB9",
"g 	c #C4C4AF",
"h 	c #8D8D7F",
"i 	c #353530",
"j 	c #92908B",
"k 	c #DEDDDB",
"l 	c #B0ADA7",
"m 	c #F5F3F0",
"n 	c #46463F",
"o 	c #9C9C8C",
"p 	c #E2E2D0",
"q 	c #EDEDE7",
"r 	c #C0C0AC",
"s 	c #B2B29F",
"t 	c #828274",
"u 	c #4C4C44",
"v 	c #6B6A68",
"w 	c #C0BDB8",
"x 	c #83817E",
"y 	c #CBC9C4",
"z 	c #E2DFD9",
"A 	c #090908",
"B 	c #D5D5BF",
"C 	c #C3C3AE",
"D 	c #B5B5A2",
"E 	c #A6A695",
"F 	c #959586",
"G 	c #080807",
"H 	c #CFCCC7",
"I 	c #090909",
"J 	c #CACAB5",
"K 	c #DDDDD0",
"L 	c #B7B7A4",
"M 	c #AAAA98",
"N 	c #9B9B8B",
"O 	c #8C8C7D",
"P 	c #474740",
"Q 	c #929283",
"R 	c #BABAA7",
"S 	c #ADAD9B",
"T 	c #9F9F8E",
"U 	c #909081",
"V 	c #727266",
"W 	c #4C4C45",
"X 	c #34342F",
"Y 	c #878779",
"Z 	c #A0A090",
"` 	c #737367",
" .	c #414141",
"                                                ",
"                                                ",
"                                                ",
"        . + . . . . . . . . . . . .             ",
"      . @ # # # # # # # # # # # # $ .           ",
"      . # % & * # * = = * = * - ; > .           ",
"      . # , ' = * = * * = * ) ! ~ { .           ",
"      . # * ] ^ / * ( ( * ( ! _ : { .           ",
"      . # * < [ ! # < < # } | 1 2 3 .           ",
"      . # < < * 4 ! ( ( ! 4 5 6 7 3 .           ",
"      . # * < 8 < 9 0 a a b 4 - 2 3 .           ",
"      . # < c * * d e f g h i j 7 3 .           ",
"      . k l * m n o p q r s t u v w .           ",
"      . x y z z A B / C D E F G H $ .           ",
"        . . . . I J K L M N O a . .             ",
"                P Q R S T U V W                 ",
"                  X Y Z Q ` . .                 ",
"                    b a a  .  . .               ",
"                              . . .             ",
"                                . . .           ",
"                                  . . .         ",
"                                    . .         ",
"                                                ",
"                                                "};
