/* XPM */
static const char * balsa_reply_xpm[] = {
"24 24 45 1",
" 	c None",
".	c #000000",
"+	c #535353",
"@	c #FFFFFF",
"#	c #EEEEEE",
"$	c #4F4F4F",
"%	c #F5F5F5",
"&	c #FBFBFB",
"*	c #F7F7F7",
"=	c #FAFAFA",
"-	c #AEAEAE",
";	c #E4E4E4",
">	c #434343",
",	c #ACACAC",
"'	c #C8C8C8",
")	c #A0A0A0",
"!	c #D4D4D4",
"~	c #959595",
"{	c #3E3E3E",
"]	c #4D4D4D",
"^	c #818181",
"/	c #C6C6C6",
"(	c #6A6A6A",
"_	c #636363",
":	c #B9B9B9",
"<	c #737373",
"[	c #7C7C7C",
"}	c #F7C3A4",
"|	c #F8CEB5",
"1	c #F4A677",
"2	c #F7C5A7",
"3	c #F8C8AC",
"4	c #C79374",
"5	c #BCBCBC",
"6	c #9C6A4C",
"7	c #946448",
"8	c #976A4B",
"9	c #A75223",
"0	c #653115",
"a	c #853C06",
"b	c #984A1F",
"c	c #7B3C19",
"d	c #612F14",
"e	c #6E3104",
"f	c #874015",
"                        ",
"     .................  ",
"    .+@@@@@@@@@@@@@@@+. ",
"    .#$%&%&*&%&%&*=%$-. ",
"    .@;>%%%%%%%%%%%$,'. ",
"    .@%;$%%%%%%%%%>)!'. ",
"    .@&%;>%%%%%%%$~!;'. ",
"    .@%%%;{%%%%%]^/;;'. ",
"    .@&%%%(>%%%$();%;'. ",
"    .@%%._::$%$~/</%;'. ",
"    .@&../%;!$,/;%[;;'. ",
"    .@.}.%%%%;;%%%%[;'. ",
"    ..|1......;;;;;;['. ",
"    .|1123334.5555555_. ",
"   .|11111116.........  ",
"  .}111111117.          ",
" .89999999990.          ",
"  .a999999990.          ",
"   .a99999990.          ",
"    .a9bccccd.          ",
"     .ef......          ",
"      .e.               ",
"       ..               ",
"        .               "};
