/* XPM */
static const char * balsa_gpg_recheck_xpm[] = {
"24 24 184 2",
"  	c None",
". 	c #000000",
"+ 	c #535353",
"@ 	c #FFFFFF",
"# 	c #FCFCFC",
"$ 	c #F6F6F6",
"% 	c #EEEEEE",
"& 	c #E9E9E9",
"* 	c #E7E7E7",
"= 	c #4F4F4F",
"- 	c #F5F5F5",
"; 	c #F8F8F8",
"> 	c #E1A1A1",
", 	c #E64141",
"' 	c #F51313",
") 	c #FB0202",
"! 	c #F80B0B",
"~ 	c #E23333",
"{ 	c #BD8D8D",
"] 	c #BABABA",
"^ 	c #D6D6D6",
"/ 	c #4E4E4E",
"( 	c #AEAEAE",
"_ 	c #E4E4E4",
": 	c #424242",
"< 	c #ECECEC",
"[ 	c #E38080",
"} 	c #FF0000",
"| 	c #F50505",
"1 	c #E80C0C",
"2 	c #FB0101",
"3 	c #F80202",
"4 	c #683156",
"5 	c #323292",
"6 	c #434343",
"7 	c #A5A5A5",
"8 	c #C7C7C7",
"9 	c #E2E2E2",
"0 	c #4A4A4A",
"a 	c #DA6666",
"b 	c #D92525",
"c 	c #783C3C",
"d 	c #3D3C3C",
"e 	c #3F3F3F",
"f 	c #503D3D",
"g 	c #C40B0E",
"h 	c #C4030D",
"i 	c #1B1B68",
"j 	c #797979",
"k 	c #C5C5C5",
"l 	c #C6C6C6",
"m 	c #FBFBFB",
"n 	c #F2F2F2",
"o 	c #D3D3D3",
"p 	c #412E2E",
"q 	c #7F7F7F",
"r 	c #5F5F5F",
"s 	c #5D5D5D",
"t 	c #676767",
"u 	c #5B5B66",
"v 	c #370E39",
"w 	c #F60000",
"x 	c #33333C",
"y 	c #939393",
"z 	c #CFCFCF",
"A 	c #3838D8",
"B 	c #F3F3F3",
"C 	c #E6E6E6",
"D 	c #B9B9B9",
"E 	c #2A2A2A",
"F 	c #9A9A9A",
"G 	c #A3A3A3",
"H 	c #ABABAB",
"I 	c #535393",
"J 	c #471450",
"K 	c #E90202",
"L 	c #454545",
"M 	c #999999",
"N 	c #CECECE",
"O 	c #C4C4C4",
"P 	c #F4F4F4",
"Q 	c #DFDFDF",
"R 	c #5B5B5B",
"S 	c #393939",
"T 	c #D0D0D0",
"U 	c #403396",
"V 	c #CB0617",
"W 	c #9A0B0B",
"X 	c #505050",
"Y 	c #606060",
"Z 	c #B1B1B1",
"` 	c #B0B0B0",
" .	c #484848",
"..	c #CAB7B7",
"+.	c #D30619",
"@.	c #D60606",
"#.	c #1E1212",
"$.	c #4B4B4B",
"%.	c #AAAAAA",
"&.	c #636363",
"*.	c #DBDBDB",
"=.	c #B7ACAC",
"-.	c #D80909",
";.	c #C7020A",
">.	c #2F1C1C",
",.	c #383838",
"'.	c #3A3A3A",
").	c #ACACAC",
"!.	c #D4D4D4",
"~.	c #737373",
"{.	c #E04E4E",
"].	c #BF030C",
"^.	c #10071D",
"/.	c #313131",
"(.	c #616161",
"_.	c #9E9E9E",
":.	c #6A6A6A",
"<.	c #7C7C7C",
"[.	c #E1E1E1",
"}.	c #F50F0F",
"|.	c #2F081F",
"1.	c #0A0A26",
"2.	c #14144F",
"3.	c #222284",
"4.	c #2D2DB1",
"5.	c #3434CB",
"6.	c #3737D5",
"7.	c #BCBCBC",
"8.	c #FE0000",
"9.	c #1C0922",
"0.	c #13133A",
"a.	c #313176",
"b.	c #5656B2",
"c.	c #7676D5",
"d.	c #8F8FE5",
"e.	c #A4A4ED",
"f.	c #B6B6F0",
"g.	c #C8C8F4",
"h.	c #DADAF7",
"i.	c #ECECFB",
"j.	c #1D0926",
"k.	c #181848",
"l.	c #3A3A8C",
"m.	c #6060C5",
"n.	c #7C7CDF",
"o.	c #9191E8",
"p.	c #291245",
"q.	c #0C0B2B",
"r.	c #19194C",
"s.	c #3C3C93",
"t.	c #6262CA",
"u.	c #7D7DE2",
"v.	c #9292E9",
"w.	c #F00000",
"x.	c #DA030B",
"y.	c #1A0A29",
"z.	c #1A1A4D",
"A.	c #3D3D95",
"B.	c #6363CB",
"C.	c #1F0B2B",
"D.	c #1A1A4F",
"E.	c #3E3E96",
"F.	c #6363CC",
"G.	c #210E37",
"H.	c #1F1F5B",
"I.	c #40409C",
"J.	c #6464CE",
"K.	c #7E7EE3",
"L.	c #20207B",
"M.	c #1A1A65",
"N.	c #2A2A7D",
"O.	c #4747AE",
"P.	c #6767D3",
"Q.	c #7E7EE4",
"R.	c #2B2BA9",
"S.	c #29299E",
"T.	c #3A3AAB",
"U.	c #5151C6",
"V.	c #6A6ADA",
"W.	c #7F7FE5",
"X.	c #3434CA",
"Y.	c #3333C7",
"Z.	c #3636D1",
"`.	c #3737D6",
"                                                ",
"    . . . . . . . . . . . . . . . . .           ",
"  . + @ @ @ # $ % & * * * & % $ # @ + .         ",
"  . % = - ; * > , ' ) ! ~ { ] ^ * / ( .         ",
"  . @ _ : < [ } } | 1 2 } 3 4 5 6 7 8 .         ",
"  . @ - 9 0 a b c d e f g } h i j k l .         ",
"  . @ m n o p q r s t u v } w x y z k . A       ",
"  . @ - B C D E F G H I J } K L M N O . A A     ",
"  . @ m P % Q R S ^ T U V } W X 7 N O . A A     ",
"  . @ - - B Y Z `  ...+.} @.#.$.%.z k . A A     ",
"  . @ m - &.k B *.=.-.} ;.>.,.'.).!.l . A A     ",
"  . @ - ~.!.- B _ {.} ].^./.(._.:.*.8 . A A     ",
"  . @ <.!._ _ [.z }.} |.1.2.3.4.5.6.A A A A A   ",
"  . ~.7.7.7.7.D %.8.} 9.0.a.b.c.d.e.f.g.h.i.A   ",
"    . . . . . . . } } j.k.l.m.n.o.e.f.g.h.i.A   ",
"                    p.q.r.s.t.u.v.e.f.g.h.i.A   ",
"                  w.x.y.z.A.B.u.v.e.f.g.h.i.A   ",
"                  } } C.D.E.F.u.v.e.f.g.h.i.A   ",
"                  } } G.H.I.J.K.v.e.f.g.h.i.A   ",
"                    L.M.N.O.P.Q.v.e.f.g.h.i.A   ",
"                    R.S.T.U.V.W.v.e.f.g.h.i.A   ",
"                    X.Y.X.Z.`.A A A A A A A A   ",
"                                                ",
"                                                "};
