/* XPM */
static const char * balsa_previous_xpm[] = {
"24 24 198 2",
"  	c None",
". 	c #000000",
"+ 	c #020202",
"@ 	c #393939",
"# 	c #F0F0F0",
"$ 	c #949494",
"% 	c #FFFFFF",
"& 	c #E8E8E8",
"* 	c #FBFBFB",
"= 	c #898989",
"- 	c #ECECEC",
"; 	c #FDFDFD",
"> 	c #FAFAFA",
", 	c #E4E4E4",
"' 	c #0A0A0A",
") 	c #CECECE",
"! 	c #8D8D8D",
"~ 	c #797979",
"{ 	c #656565",
"] 	c #EBEBEB",
"^ 	c #FBFBFA",
"/ 	c #F9F9F9",
"( 	c #F7F7F7",
"_ 	c #F6F6F6",
": 	c #E2E2E2",
"< 	c #7B7B7B",
"[ 	c #DBDBDB",
"} 	c #C8C8C8",
"| 	c #A9A9A9",
"1 	c #E9E9E9",
"2 	c #F8F8F8",
"3 	c #F5F5F5",
"4 	c #F1F1F1",
"5 	c #CCCCCA",
"6 	c #E5E5E5",
"7 	c #DDDDDC",
"8 	c #C0C0C0",
"9 	c #F4F4F4",
"0 	c #FCFCFC",
"a 	c #F7F7F5",
"b 	c #C1C1C1",
"c 	c #D3D3D3",
"d 	c #DADADA",
"e 	c #E7E7E7",
"f 	c #F2F2F2",
"g 	c #F6F6F3",
"h 	c #F3F3F3",
"i 	c #F3F3F0",
"j 	c #EAEAE7",
"k 	c #B4B4B2",
"l 	c #D6E0CB",
"m 	c #B9B9B9",
"n 	c #D0D0D0",
"o 	c #D6D6D5",
"p 	c #F8F8F6",
"q 	c #F6F6F4",
"r 	c #EDEDED",
"s 	c #B8B8B8",
"t 	c #E8EDE2",
"u 	c #A3B592",
"v 	c #ADADAD",
"w 	c #C9C9C9",
"x 	c #CBCBCB",
"y 	c #EFEFEF",
"z 	c #F0F0ED",
"A 	c #EDEDEA",
"B 	c #E6E6E4",
"C 	c #D2D2D0",
"D 	c #ADADAB",
"E 	c #B6CAA3",
"F 	c #D8D8D8",
"G 	c #B2B2B2",
"H 	c #C2D2B2",
"I 	c #DBE4D1",
"J 	c #DEE6D5",
"K 	c #ACBD9C",
"L 	c #EEEEEC",
"M 	c #E7E7E5",
"N 	c #E2E2DF",
"O 	c #DEDEDB",
"P 	c #B8B8B6",
"Q 	c #AAAAAA",
"R 	c #EDF1E8",
"S 	c #B9CCA7",
"T 	c #8A987B",
"U 	c #EFEFED",
"V 	c #EBEBE9",
"W 	c #E9E9E7",
"X 	c #A7A7A6",
"Y 	c #CCD9BE",
"Z 	c #CAD8BB",
"` 	c #C9D7BA",
" .	c #CAD8BD",
"..	c #8D9D7E",
"+.	c #E3E3E3",
"@.	c #D9D9D9",
"#.	c #D9D9D6",
"$.	c #D6D6D4",
"%.	c #D2D2CF",
"&.	c #A4A4A3",
"*.	c #5E753C",
"=.	c #74904B",
"-.	c #576D38",
";.	c #E2E2E0",
">.	c #E5E5E4",
",.	c #E4E4E2",
"'.	c #DEDEDC",
").	c #BBBBBA",
"!.	c #9E9E9B",
"~.	c #DDDDDB",
"{.	c #D1D1CF",
"].	c #CFCFCB",
"^.	c #CBCBC9",
"/.	c #C8C8C6",
"(.	c #C3C3BE",
"_.	c #A8A8A6",
":.	c #7F7F7D",
"<.	c #688243",
"[.	c #5A713A",
"}.	c #516534",
"|.	c #DCDCDB",
"1.	c #E0E0DC",
"2.	c #DCDCD9",
"3.	c #DADAD6",
"4.	c #CDCDCB",
"5.	c #B1B1AF",
"6.	c #888886",
"7.	c #DBDBD9",
"8.	c #D4D4D0",
"9.	c #C7C7C4",
"0.	c #C7C7C1",
"a.	c #C4C4BF",
"b.	c #C1C1BC",
"c.	c #BEBEBB",
"d.	c #B9B9B6",
"e.	c #B3B3B1",
"f.	c #A8A8A4",
"g.	c #767676",
"h.	c #7C7C7A",
"i.	c #7E7E7C",
"j.	c #747474",
"k.	c #D5D5D5",
"l.	c #D9D9D7",
"m.	c #D7D7D3",
"n.	c #D5D5D1",
"o.	c #D3D3D1",
"p.	c #D3D3D0",
"q.	c #CECECB",
"r.	c #C7C7C3",
"s.	c #ACACA9",
"t.	c #848483",
"u.	c #878784",
"v.	c #9A9A97",
"w.	c #8F8F8F",
"x.	c #CECEC9",
"y.	c #BFBFB9",
"z.	c #BCBCB9",
"A.	c #BCBCB8",
"B.	c #B9B9B4",
"C.	c #B8B8B2",
"D.	c #B7B7B1",
"E.	c #B1B1AC",
"F.	c #ACACA7",
"G.	c #959591",
"H.	c #727270",
"I.	c #92928F",
"J.	c #A8A8A5",
"K.	c #A0A09E",
"L.	c #D5D5D3",
"M.	c #D1D1D0",
"N.	c #D0D0CE",
"O.	c #D0D0CC",
"P.	c #CECECC",
"Q.	c #CECECA",
"R.	c #C9C9C5",
"S.	c #C3C3BF",
"T.	c #B6B6B2",
"U.	c #80807E",
"V.	c #9C9C99",
"W.	c #A7A7A3",
"X.	c #A2A2A2",
"Y.	c #D1D1CE",
"Z.	c #CCCCC8",
"`.	c #CBCBC7",
" +	c #C1C1BE",
".+	c #B5B5B2",
"++	c #AAAAA7",
"@+	c #ADADAA",
"#+	c #A6A6A6",
"$+	c #B4B4B3",
"%+	c #B4B4B1",
"&+	c #B3B3AF",
"*+	c #B0B0AC",
"=+	c #AEAEAA",
"-+	c #A9A9A7",
";+	c #A4A4A2",
">+	c #AEAEAC",
",+	c #90908E",
"                                                ",
"        . . . . . . . . . . . . . . . . + .     ",
"      @ # $ % % % % % % % % % % % % % % & .     ",
"    @ # * = - % % ; ; ; ; ; ; ; * * > * , .     ",
"  ' ) ! ~ { ] ; ; ; ; ; ; * * ^ / ( _ ( : .     ",
"  . < [ } | 1 * * 2 2 2 _ _ 3 4 5 . 6 - 7 .     ",
"  . 8 9 ; ; 0 * ^ > > > 2 a 9 b . . c : d .     ",
"  . e f / _ _ g h h i # - j k . l . m n o .     ",
"  . % # 2 2 2 p _ q 9 4 r s . t u . v w x .     ",
"  . % y h # z r A j B C D . t E u . . . . . . . ",
"  . % r 9 9 f # y - F G . t E E H I J J J J K . ",
"  . % ] L M 6 N O P Q . R E E E E S E E E E T . ",
"  . % e U ] V W B X . t Y Z Z Z Z Z Z ` Z  .... ",
"  . % 6 +.@.#.$.%.&.. *.=.=.=.=.=.=.=.=.=.=.-.. ",
"  . % ;.>., ,.;.'.).!.. *.=.=.=.=.=.=.=.=.=.-.. ",
"  . % '.~.{.].^./.(._.:.. *.=.=.<.[.-.-.-.-.}.. ",
"  . % |.1.'.|.2.3.$.4.5.6.. *.=.-.. . . . . . . ",
"  . % 7.8.9.0.a.b.c.d.e.f.g.. *.-.. h.i.j..     ",
"  . % k.l.l.m.n.o.p.%.q.r.s.t.. -.. u.v.w..     ",
"  . % o.x.y.z.A.A.B.C.D.E.F.G.H.. . I.J.K..     ",
"  . % L.p.p.M.N.O.P.Q.Q.^.R.S.T.U.. V.W.X..     ",
"  . % M.Y.N.P.Q.Q.Q.Q.Z.Z.`.9. +.+++@+.+#+.     ",
"  . % 5.$+%+%+%+e.e.&+&+&+5.*+=+-+;+W.>+,+.     ",
"  . . . . . . . . . . . . . . . . . . . . .     "};
