/* XPM */
static const char * balsa_gpg_encrypt_xpm[] = {
"24 24 45 1",
" 	c None",
".	c #000000",
"+	c #535353",
"@	c #FFFFFF",
"#	c #EEEEEE",
"$	c #4F4F4F",
"%	c #F5F5F5",
"&	c #FBFBFB",
"*	c #F7F7F7",
"=	c #FAFAFA",
"-	c #AEAEAE",
";	c #E4E4E4",
">	c #434343",
",	c #D5D5F0",
"'	c #8181E3",
")	c #4B4BDA",
"!	c #ACACAC",
"~	c #C8C8C8",
"{	c #B4B4EB",
"]	c #3838D8",
"^	c #A0A0A0",
"/	c #D4D4D4",
"(	c #424298",
"_	c #88889E",
":	c #3E3E3E",
"<	c #43438E",
"[	c #818181",
"}	c #C6C6C6",
"|	c #6A6A6A",
"1	c #676770",
"2	c #636363",
"3	c #B9B9B9",
"4	c #737373",
"5	c #7C7C7C",
"6	c #BCBCBC",
"7	c #4A4ADB",
"8	c #5C5CDF",
"9	c #6E6EE2",
"0	c #8080E6",
"a	c #9292E9",
"b	c #A4A4ED",
"c	c #B6B6F0",
"d	c #C8C8F4",
"e	c #DADAF7",
"f	c #ECECFB",
"                        ",
"  .................     ",
" .+@@@@@@@@@@@@@@@+.    ",
" .#$%&%&*&%&%&*=%$-.    ",
" .@;>%%%%%%%%,')$!~.    ",
" .@%;$%%%%%%{]]]^/~.    ",
" .@&%;>%%%%,]](_/;~.]   ",
" .@%%%;:%%%']<[};;~.]]  ",
" .@&%%%|>%%)]1^;%;~.]]  ",
" .@%%%233$%]]}4}%;~.]]  ",
" .@&%2}%;/$]];%5;;~.]]  ",
" .@%4/%%%%;]]%%%5;~.]]  ",
" .@5/;;;;;]]]]]]]]]]]]] ",
" .46666666]]7890abcdef] ",
"  ........]]7890abcdef] ",
"          ]]7890abcdef] ",
"          ]]7890abcdef] ",
"          ]]7890abcdef] ",
"          ]]7890abcdef] ",
"          ]]7890abcdef] ",
"          ]]7890abcdef] ",
"          ]]]]]]]]]]]]] ",
"                        ",
"                        "};
