/* XPM */
static const char * balsa_reply_all_xpm[] = {
"24 24 63 1",
" 	c None",
".	c #000000",
"+	c #535353",
"@	c #FFFFFF",
"#	c #EEEEEE",
"$	c #4F4F4F",
"%	c #F5F5F5",
"&	c #FBFBFB",
"*	c #F7F7F7",
"=	c #FAFAFA",
"-	c #AEAEAE",
";	c #E4E4E4",
">	c #434343",
",	c #ACACAC",
"'	c #C8C8C8",
")	c #A0A0A0",
"!	c #D4D4D4",
"~	c #959595",
"{	c #3E3E3E",
"]	c #4D4D4D",
"^	c #818181",
"/	c #C6C6C6",
"(	c #6A6A6A",
"_	c #B9B9B9",
":	c #737373",
"<	c #CCCCCC",
"[	c #7C7C7C",
"}	c #F7C3A4",
"|	c #8F8F8F",
"1	c #BFBFBF",
"2	c #B1B1B1",
"3	c #C5C5C5",
"4	c #F8CEB5",
"5	c #F4A677",
"6	c #A2A2A2",
"7	c #BEBEBE",
"8	c #F7C5A7",
"9	c #F8C8AC",
"0	c #C79374",
"a	c #757575",
"b	c #BCBCBC",
"c	c #636363",
"d	c #9C6A4C",
"e	c #6C6C6C",
"f	c #C7C7C7",
"g	c #946448",
"h	c #484847",
"i	c #6C6B6B",
"j	c #8A8989",
"k	c #7C7B7B",
"l	c #976A4B",
"m	c #A75223",
"n	c #653115",
"o	c #727171",
"p	c #929191",
"q	c #BBBBBB",
"r	c #636262",
"s	c #853C06",
"t	c #984A1F",
"u	c #7B3C19",
"v	c #612F14",
"w	c #6E3104",
"x	c #874015",
"                        ",
"    .................   ",
"   .+@@@@@@@@@@@@@@@+.  ",
"   .#$%&%&*&%&%&*=%$-.  ",
"   .@;>%%%%%%%%%%%$,'.. ",
"   .@%;$%%%%%%%%%>)!'.+.",
"   .@&%;>%%%%%%%$~!;'.-.",
"   .@%%%;{%%%%%]^/;;'.'.",
"   .@&%%%(>%%%$();%;'.'.",
"   .@%%%.__$%$~/:/%;'.'.",
"   .@&%..<;!$,/;%[;;'.'.",
"   .@%.}.|11223%%%[;'.'.",
"   .@.45......67;;;['.'.",
"   ..45589990.a|bbbbc.'.",
"   .45555555d........ef.",
"  .}55555555g.hijjjjjkf.",
" .lmmmmmmmmmn.opqqqqqqr.",
"  .smmmmmmmmn.......... ",
"   .smmmmmmmn.          ",
"    .smtuuuuv.          ",
"     .wx......          ",
"      .w.               ",
"       ..               ",
"        .               "};
