/* XPM */
static const char * balsa_next_part_xpm[] = {
"24 24 187 2",
"  	c None",
". 	c #000000",
"+ 	c #FFFFFF",
"@ 	c #E0E0E0",
"# 	c #C1C1C1",
"$ 	c #F4F4F4",
"% 	c #FDFDFD",
"& 	c #FBFBFB",
"* 	c #C3C3C3",
"= 	c #A8A8A8",
"- 	c #F6F6F6",
"; 	c #FEFEFE",
"> 	c #FCFCFC",
", 	c #FAFAFA",
"' 	c #FBFBFA",
") 	c #ADADAD",
"! 	c #767676",
"~ 	c #5D5D5D",
"{ 	c #404040",
"] 	c #4A4A4A",
"^ 	c #B5B5B5",
"/ 	c #EDEDED",
"( 	c #F3F3F3",
"_ 	c #F5F5F5",
": 	c #F7F7F7",
"< 	c #F8F8F8",
"[ 	c #F8F8F6",
"} 	c #E2E2E2",
"| 	c #858585",
"1 	c #4B4B49",
"2 	c #161616",
"3 	c #ABABAB",
"4 	c #E3E3E2",
"5 	c #EFEFEF",
"6 	c #F9F9F9",
"7 	c #F2F2F2",
"8 	c #F0F0F0",
"9 	c #D5D5D5",
"0 	c #EEEEEE",
"a 	c #749ABD",
"b 	c #9B9B9B",
"c 	c #D9D9D9",
"d 	c #E8E8E5",
"e 	c #ECECEC",
"f 	c #EDEDEA",
"g 	c #EAEAE7",
"h 	c #E5E5E5",
"i 	c #DFDFDF",
"j 	c #EBEBEB",
"k 	c #E3E3E3",
"l 	c #93B8DA",
"m 	c #9F9F9E",
"n 	c #DADADA",
"o 	c #E7E7E7",
"p 	c #EBEBE9",
"q 	c #E9E9E7",
"r 	c #E0E0DE",
"s 	c #BFBFBF",
"t 	c #9A9A9A",
"u 	c #CCCCCA",
"v 	c #D8D8D5",
"w 	c #DCDCD9",
"x 	c #DBDBD8",
"y 	c #D9D9D6",
"z 	c #D6D6D4",
"A 	c #E5E5E4",
"B 	c #D7D7D5",
"C 	c #BABABA",
"D 	c #CADCED",
"E 	c #979797",
"F 	c #D0D0CE",
"G 	c #DDDDDB",
"H 	c #E2E2E1",
"I 	c #E4E4E3",
"J 	c #E4E4E2",
"K 	c #E2E2E0",
"L 	c #D3D3D1",
"M 	c #8F8F8E",
"N 	c #BEBEBB",
"O 	c #DADAD8",
"P 	c #DEDEDC",
"Q 	c #DEDEDB",
"R 	c #D9D9D7",
"S 	c #BDBDBC",
"T 	c #9C9C9B",
"U 	c #CACAC9",
"V 	c #D7D7D4",
"W 	c #DBDBD9",
"X 	c #D5D5D3",
"Y 	c #BCBCBC",
"Z 	c #7693AB",
"` 	c #416A8C",
" .	c #264D75",
"..	c #777775",
"+.	c #BEBEBC",
"@.	c #D1D1CD",
"#.	c #C8C8C7",
"$.	c #B4B4B4",
"%.	c #6D6D6C",
"&.	c #A0A09D",
"*.	c #BCBCB8",
"=.	c #CDCDC9",
"-.	c #D2D2D0",
";.	c #D5D5D1",
">.	c #D7D7D3",
",.	c #BABAB8",
"'.	c #5E5E5D",
").	c #858582",
"!.	c #9B9B97",
"~.	c #C2C2BE",
"{.	c #CFCFCB",
"].	c #D2D2CF",
"^.	c #D1D1D0",
"/.	c #D3D3D0",
"(.	c #6B6B6A",
"_.	c #90908F",
":.	c #A8A8A5",
"<.	c #BEBEBA",
"[.	c #CACAC7",
"}.	c #CECECB",
"|.	c #D1D1CE",
"1.	c #D0D0CC",
"2.	c #CACAC8",
"3.	c #B6B6B6",
"4.	c #ACACAC",
"5.	c #929290",
"6.	c #8A8A87",
"7.	c #5F5F5D",
"8.	c #7F7F7D",
"9.	c #949492",
"0.	c #A8A8A4",
"a.	c #B1B1B0",
"b.	c #B5B5B1",
"c.	c #B7B7B1",
"d.	c #B8B8B2",
"e.	c #B4B4B2",
"f.	c #C5C5C1",
"g.	c #B1B1B1",
"h.	c #AEAEAC",
"i.	c #6D6D6D",
"j.	c #8F8F8D",
"k.	c #A7A7A5",
"l.	c #BBBBB8",
"m.	c #C7C7C4",
"n.	c #CDCDCB",
"o.	c #CECECA",
"p.	c #B8B8B8",
"q.	c #C7C7C5",
"r.	c #BBBBB6",
"s.	c #696966",
"t.	c #81817E",
"u.	c #93938F",
"v.	c #A5A59F",
"w.	c #B0B0AB",
"x.	c #B1B1AC",
"y.	c #B3B3AE",
"z.	c #B4B4AF",
"A.	c #B2B2AF",
"B.	c #B2B2AD",
"C.	c #CCCCC8",
"D.	c #B8B8B6",
"E.	c #C8C8C5",
"F.	c #929291",
"G.	c #989897",
"H.	c #B9B9B8",
"I.	c #C5C5C2",
"J.	c #CBCBC7",
"K.	c #CBCBC9",
"L.	c #C1C1BD",
"M.	c #B3B3B3",
"N.	c #D0D0CF",
"O.	c #CBCBC8",
"P.	c #BDBDBB",
"Q.	c #ADADAC",
"R.	c #AFAFAB",
"S.	c #BBBBB7",
"T.	c #C6C6C2",
"U.	c #C7C7C3",
"V.	c #B0B0AE",
"W.	c #ACACA9",
"X.	c #A9A9A6",
"Y.	c #B2B2AE",
"Z.	c #B3B3AF",
"`.	c #B1B1AF",
" +	c #B1B1AD",
".+	c #AFAFAD",
"++	c #B6B6B4",
"                                                ",
"    . . . . . . . . . . . . . . . . . .         ",
"    . + + + + + + + + + + + + + + + @ # .       ",
"    . + $ + + + + + % % % % % % % & * & = .     ",
"    . + - ; % > , > % % % % & & ' , ) ! ~ { .   ",
"    . + - > ] ^ / ( _ : < - - - ( [ } | 1 2 .   ",
"    . + ( - . . 3 4 5 : 6 < [ - $ 7 8 5 9 ) .   ",
"    . ; 5 0 . a . b c d / e f g h } i j } # .   ",
"    . $ k } . l a . m n o / 0 / j p q q r s .   ",
". . . . . . . l l a . t u v w x c y z A B C .   ",
". D D D D D D l l l a . E F G H I J r K L C .   ",
". D l l l l l l l l l a . M N O G P Q P R S .   ",
". D l l l l l l l l l l a . T U V x W W X Y .   ",
". Z ` ` ` ` ` ` ` ` ` `  .. ..+.@.z B R #.$..   ",
". Z ` ` ` ` ` ` ` ` `  .. %.&.*.=.-.;.>.F ,..   ",
". Z ` ` ` ` ` ` ` `  .. '.).!.~.{.].^./.F ,..   ",
". . . . . . . ` `  .. (._.:.<.[.}.|.1.^.2.3..   ",
"    . 4.5.6.. `  .. 7.8.9.0.a.b.c.d.e.|.f.$..   ",
"    . 9 g.h..  .. i.j.k.l.m.=.n.o.o.o.1.o.p..   ",
"    . ( q.r.. . s.t.u.v.w.x.y.z.A.A.B.o.C.D..   ",
"    . ; -.E.. F.G.0.H.I.J.K.C.C.C.[.[.C.L.M..   ",
"    . + N.O.P.Q.R.S.T.J.J.C.C.[.[.E.E.C.U.$..   ",
"    . + V.a.W.:.X.h.V.Y.Z.Z.`. + +.+.+Z.++5..   ",
"    . . . . . . . . . . . . . . . . . . . . .   "};
