/* XPM */
static const char * balsa_trash_empty_xpm[] = {
"24 24 175 2",
"  	c None",
". 	c #292929",
"+ 	c #000000",
"@ 	c #757575",
"# 	c #8C8C8C",
"$ 	c #929292",
"% 	c #898989",
"& 	c #878787",
"* 	c #7F7F7F",
"= 	c #7C7C7C",
"- 	c #6A6A6A",
"; 	c #5F5F5F",
"> 	c #434343",
", 	c #494949",
"' 	c #6D6D6D",
") 	c #7A7A7A",
"! 	c #848484",
"~ 	c #5E5E5E",
"{ 	c #525252",
"] 	c #C8C7B2",
"^ 	c #666666",
"/ 	c #7E7E7E",
"( 	c #838383",
"_ 	c #8D8D8D",
": 	c #858585",
"< 	c #767676",
"[ 	c #676767",
"} 	c #565656",
"| 	c #4D4D4D",
"1 	c #363636",
"2 	c #8B8976",
"3 	c #3E3E3E",
"4 	c #E2E0D0",
"5 	c #FCFBF1",
"6 	c #020202",
"7 	c #060606",
"8 	c #181818",
"9 	c #1E1E1E",
"0 	c #AFAD94",
"a 	c #AAA890",
"b 	c #B6B4AD",
"c 	c #FBFAF3",
"d 	c #FDFCF5",
"e 	c #FBFAF0",
"f 	c #010101",
"g 	c #3D3D3D",
"h 	c #121212",
"i 	c #E2DFCB",
"j 	c #D2D0C0",
"k 	c #BBB8A8",
"l 	c #7C7A69",
"m 	c #717060",
"n 	c #999882",
"o 	c #BDBCB3",
"p 	c #D8D7D0",
"q 	c #E5E5DE",
"r 	c #FBFBF4",
"s 	c #FEFDF7",
"t 	c #FEFDF6",
"u 	c #F7F6ED",
"v 	c #F2F0E4",
"w 	c #E3E1D3",
"x 	c #C0BFAE",
"y 	c #95937E",
"z 	c #787766",
"A 	c #6E6D5D",
"B 	c #6D6C5C",
"C 	c #767564",
"D 	c #93927D",
"E 	c #A3A18A",
"F 	c #B6B49E",
"G 	c #C4C3B4",
"H 	c #CFCEC1",
"I 	c #D8D6CA",
"J 	c #CAC9C0",
"K 	c #C7C6BB",
"L 	c #BDBBAA",
"M 	c #BAB7A3",
"N 	c #9F9D87",
"O 	c #8E8C78",
"P 	c #8C8B77",
"Q 	c #7A7968",
"R 	c #656456",
"S 	c #605E51",
"T 	c #989681",
"U 	c #BBB9AE",
"V 	c #C2C1B1",
"W 	c #D0CFBE",
"X 	c #D1CFBF",
"Y 	c #D8D7C6",
"Z 	c #C6C4B5",
"` 	c #B1AF96",
" .	c #9A9883",
"..	c #807F6D",
"+.	c #737261",
"@.	c #515045",
"#.	c #545445",
"$.	c #2B2B2B",
"%.	c #A5A38F",
"&.	c #B3B19E",
"*.	c #AAA895",
"=.	c #878673",
"-.	c #8F8D79",
";.	c #6D6C5D",
">.	c #3D3D32",
",.	c #71715D",
"'.	c #575647",
").	c #5A5A4A",
"!.	c #3F3F34",
"~.	c #474747",
"{.	c #5B5B5B",
"].	c #323229",
"^.	c #4D4D3F",
"/.	c #37372D",
"(.	c #7A7A65",
"_.	c #5B5B4B",
":.	c #858574",
"<.	c #626251",
"[.	c #838373",
"}.	c #757464",
"|.	c #515042",
"1.	c #7F7E70",
"2.	c #6A6A58",
"3.	c #404035",
"4.	c #3E3E33",
"5.	c #555546",
"6.	c #34342B",
"7.	c #515143",
"8.	c #85856E",
"9.	c #5D5C4C",
"0.	c #979685",
"a.	c #6B6A58",
"b.	c #97978A",
"c.	c #7A796C",
"d.	c #4E4D40",
"e.	c #8C8C7F",
"f.	c #7C7B68",
"g.	c #424237",
"h.	c #60604F",
"i.	c #3C3C32",
"j.	c #4E4E41",
"k.	c #35352C",
"l.	c #C2C1AC",
"m.	c #B5B4A5",
"n.	c #ADAD9F",
"o.	c #545345",
"p.	c #969586",
"q.	c #686856",
"r.	c #414136",
"s.	c #434337",
"t.	c #B7B7A1",
"u.	c #ADAD96",
"v.	c #84846F",
"w.	c #71715E",
"x.	c #B8B7A1",
"y.	c #C9C9B5",
"z.	c #7B7B65",
"A.	c #5F5F4F",
"B.	c #666654",
"C.	c #49493C",
"D.	c #575748",
"E.	c #7D7D68",
"F.	c #ABAB99",
"G.	c #AFAF9D",
"H.	c #6D6D5A",
"I.	c #CBCBB5",
"J.	c #696957",
"K.	c #414135",
"L.	c #565647",
"M.	c #444438",
"N.	c #4A4A3D",
"O.	c #585849",
"P.	c #4E4E40",
"Q.	c #747460",
"R.	c #616150",
"                                                ",
"                . + + + + + + +                 ",
"        @ + + + # $ % & * = - ; > + + ,         ",
"      + + ' ) ! # $ % & * = - ; ~ ; { + +       ",
"    + ] + ^ / ( _ _ $ : < < < [ } | 1 + 2 +     ",
"    3 ] + ' ) ! # $ % & * = - ; ~ ; { + 2 +     ",
"    + 4 5 6 + + _ _ $ : < < < [ 7 8 9 0 2 +     ",
"    + a b c d e + f 6 g . h 6 + i j k l m +     ",
"    + n 0 o p q r s s t c u v w x y z A B +     ",
"    + C D E F G H I J K L M N O P O Q R S +     ",
"      + T T U V W X Y Z ` ` `  ...+.@.@.+       ",
"      + #.3 $.] %.a &.*.E =.-.;.+.+ + >.+       ",
"      + ,.'.).!.~.~.+ {.+ + + + ].^./.!.+       ",
"      + (._.:.<.[.}.|.1.2.3.<.#.4.5.6.7.+       ",
"      + 8.9.0.a.b.c.d.e.f.g.h.).i.j.k.#.+       ",
"      + 8._.l.a.m.n.o.b.p.g.h.q.r.2.s.2.+       ",
"      + 8._.t.a.] ] a.] u.#.v.w.s.2.s.2.+       ",
"      + 8._.x.a.y.] a.] u.#.v.w.s.2.s.2.+       ",
"      + 8._.u.a.] ] a.] u.#.v.w.s.2.s.2.+       ",
"      + z._.t.a.] ] a.] u.#.v.w.s.2.s.A.+       ",
"      + B._.t.a.] ] a.] u.#.v.w.s.2.C.D.+       ",
"        + '.E.q.F.G.H.I.u.#.v.J.K.L.M.+         ",
"          + + + N.O.P.Q.R.j.C.C.+ + +           ",
"                + + + + + + + +                 "};
