/* XPM */
static const char * balsa_gpg_sign_xpm[] = {
"24 24 47 1",
" 	c None",
".	c #000000",
"+	c #535353",
"@	c #FFFFFF",
"#	c #6060D1",
"$	c #B3B3D8",
"%	c #0F0CFB",
"&	c #EEEEEE",
"*	c #4F4F4F",
"=	c #F5F5F5",
"-	c #FBFBFB",
";	c #F7F7F7",
">	c #B5B5B5",
",	c #03037F",
"'	c #020275",
")	c #E4E4E4",
"!	c #434343",
"~	c #7777C6",
"{	c #07049B",
"]	c #B2B2B2",
"^	c #B3B3B3",
"/	c #3E3E3E",
"(	c #7D7D7D",
"_	c #6A6A6A",
":	c #878786",
"<	c #636363",
"[	c #B9B9B9",
"}	c #AEAEAE",
"|	c #C8C8C8",
"1	c #C6C6C6",
"2	c #D4D4D4",
"3	c #ACACAC",
"4	c #9E9E9C",
"5	c #737373",
"6	c #AAAAAA",
"7	c #7C7C7C",
"8	c #979796",
"9	c #BCBCBC",
"0	c #A6A6A5",
"a	c #5454A8",
"b	c #3D3D96",
"c	c #010151",
"d	c #676764",
"e	c #0015FF",
"f	c #0E0E0E",
"g	c #898987",
"h	c #5B5B5B",
"                        ",
"   ..................   ",
"  .+@@@@@@@@@@@@@.#$%.  ",
"  .&*=-=-;-=-=-;>,$%'.  ",
"  .@)!==========.~#{.]  ",
"  .@=)*========^,$%'.   ",
"  .@-=)!=======.~~{..   ",
"  .@===)/=====(,$%'..   ",
"  .@-===_!===*.~~{.:.   ",
"  .@===<[[*=*}'$%'.|.   ",
"  .@-=<1=)2*3.~#{.4|.   ",
"  .@=52====)6,$%'.)|.   ",
"  .@72)))))).~#{.87|.   ",
"  .599999990a%%'.99<.   ",
"   .........$bc.d...    ",
"           .$b'.        ",
"   eee eee f+eee        ",
"  e    e  e.eg          ",
"  e    e  ehe           ",
"  e ee eee  e ee        ",
"  e  e e    e  e        ",
"   eee e     eee        ",
"                        ",
"                        "};
