/* XPM */
static const char * balsa_previous_part_xpm[] = {
"24 24 187 2",
"  	c None",
". 	c #000000",
"+ 	c #C1C1C1",
"@ 	c #E0E0E0",
"# 	c #FFFFFF",
"$ 	c #A8A8A8",
"% 	c #FBFBFB",
"& 	c #C3C3C3",
"* 	c #FDFDFD",
"= 	c #F4F4F4",
"- 	c #404040",
"; 	c #5D5D5D",
"> 	c #767676",
", 	c #ADADAD",
"' 	c #FAFAFA",
") 	c #FBFBFA",
"! 	c #FCFCFC",
"~ 	c #FEFEFE",
"{ 	c #F6F6F6",
"] 	c #161616",
"^ 	c #4B4B49",
"/ 	c #858585",
"( 	c #E2E2E2",
"_ 	c #F8F8F6",
": 	c #F3F3F3",
"< 	c #F8F8F8",
"[ 	c #F7F7F7",
"} 	c #F5F5F5",
"| 	c #EDEDED",
"1 	c #B5B5B5",
"2 	c #4A4A4A",
"3 	c #D5D5D5",
"4 	c #EFEFEF",
"5 	c #F0F0F0",
"6 	c #F2F2F2",
"7 	c #F9F9F9",
"8 	c #E3E3E2",
"9 	c #ABABAB",
"0 	c #EBEBEB",
"a 	c #DFDFDF",
"b 	c #E5E5E5",
"c 	c #EAEAE7",
"d 	c #EDEDEA",
"e 	c #ECECEC",
"f 	c #E8E8E5",
"g 	c #D9D9D9",
"h 	c #9B9B9B",
"i 	c #749ABD",
"j 	c #EEEEEE",
"k 	c #BFBFBF",
"l 	c #E0E0DE",
"m 	c #E9E9E7",
"n 	c #EBEBE9",
"o 	c #E7E7E7",
"p 	c #DADADA",
"q 	c #9F9F9E",
"r 	c #93B8DA",
"s 	c #E3E3E3",
"t 	c #BABABA",
"u 	c #D7D7D5",
"v 	c #E5E5E4",
"w 	c #D6D6D4",
"x 	c #D9D9D6",
"y 	c #DBDBD8",
"z 	c #DCDCD9",
"A 	c #D8D8D5",
"B 	c #CCCCCA",
"C 	c #9A9A9A",
"D 	c #D3D3D1",
"E 	c #E2E2E0",
"F 	c #E4E4E2",
"G 	c #E4E4E3",
"H 	c #E2E2E1",
"I 	c #DDDDDB",
"J 	c #D0D0CE",
"K 	c #979797",
"L 	c #CADCED",
"M 	c #BDBDBC",
"N 	c #D9D9D7",
"O 	c #DEDEDC",
"P 	c #DEDEDB",
"Q 	c #DADAD8",
"R 	c #BEBEBB",
"S 	c #8F8F8E",
"T 	c #BCBCBC",
"U 	c #D5D5D3",
"V 	c #DBDBD9",
"W 	c #D7D7D4",
"X 	c #CACAC9",
"Y 	c #9C9C9B",
"Z 	c #B4B4B4",
"` 	c #C8C8C7",
" .	c #D1D1CD",
"..	c #BEBEBC",
"+.	c #777775",
"@.	c #264D75",
"#.	c #416A8C",
"$.	c #7693AB",
"%.	c #BABAB8",
"&.	c #D7D7D3",
"*.	c #D5D5D1",
"=.	c #D2D2D0",
"-.	c #CDCDC9",
";.	c #BCBCB8",
">.	c #A0A09D",
",.	c #6D6D6C",
"'.	c #D3D3D0",
").	c #D1D1D0",
"!.	c #D2D2CF",
"~.	c #CFCFCB",
"{.	c #C2C2BE",
"].	c #9B9B97",
"^.	c #858582",
"/.	c #5E5E5D",
"(.	c #B6B6B6",
"_.	c #CACAC8",
":.	c #D0D0CC",
"<.	c #D1D1CE",
"[.	c #CECECB",
"}.	c #CACAC7",
"|.	c #BEBEBA",
"1.	c #A8A8A5",
"2.	c #90908F",
"3.	c #6B6B6A",
"4.	c #C5C5C1",
"5.	c #B4B4B2",
"6.	c #B8B8B2",
"7.	c #B7B7B1",
"8.	c #B5B5B1",
"9.	c #B1B1B0",
"0.	c #A8A8A4",
"a.	c #949492",
"b.	c #7F7F7D",
"c.	c #5F5F5D",
"d.	c #8A8A87",
"e.	c #929290",
"f.	c #ACACAC",
"g.	c #B8B8B8",
"h.	c #CECECA",
"i.	c #CDCDCB",
"j.	c #C7C7C4",
"k.	c #BBBBB8",
"l.	c #A7A7A5",
"m.	c #8F8F8D",
"n.	c #6D6D6D",
"o.	c #AEAEAC",
"p.	c #B1B1B1",
"q.	c #B8B8B6",
"r.	c #CCCCC8",
"s.	c #B2B2AD",
"t.	c #B2B2AF",
"u.	c #B4B4AF",
"v.	c #B3B3AE",
"w.	c #B1B1AC",
"x.	c #B0B0AB",
"y.	c #A5A59F",
"z.	c #93938F",
"A.	c #81817E",
"B.	c #696966",
"C.	c #BBBBB6",
"D.	c #C7C7C5",
"E.	c #B3B3B3",
"F.	c #C1C1BD",
"G.	c #CBCBC9",
"H.	c #CBCBC7",
"I.	c #C5C5C2",
"J.	c #B9B9B8",
"K.	c #989897",
"L.	c #929291",
"M.	c #C8C8C5",
"N.	c #C7C7C3",
"O.	c #C6C6C2",
"P.	c #BBBBB7",
"Q.	c #AFAFAB",
"R.	c #ADADAC",
"S.	c #BDBDBB",
"T.	c #CBCBC8",
"U.	c #D0D0CF",
"V.	c #B6B6B4",
"W.	c #B3B3AF",
"X.	c #AFAFAD",
"Y.	c #B1B1AD",
"Z.	c #B1B1AF",
"`.	c #B2B2AE",
" +	c #B0B0AE",
".+	c #A9A9A6",
"++	c #ACACA9",
"                                                ",
"        . . . . . . . . . . . . . . . . . .     ",
"      . + @ # # # # # # # # # # # # # # # .     ",
"    . $ % & % * * * * * * * # # # # # = # .     ",
"  . - ; > , ' ) % % * * * * ! ' ! * ~ { # .     ",
"  . ] ^ / ( _ : { { { < [ } : | 1 2 ! { # .     ",
"  . , 3 4 5 6 = { _ < 7 [ 4 8 9 . . { : # .     ",
"  . + ( 0 a ( b c d e | f g h . i . j 4 ~ .     ",
"  . k l m m n 0 | j | o p q . i r . ( s = .     ",
"  . t u v w x g y z A B C . i r r . . . . . . . ",
"  . t D E l F G H I J K . i r r r L L L L L L . ",
"  . M N O P O I Q R S . i r r r r r r r r r L . ",
"  . T U V V y W X Y . i r r r r r r r r r r L . ",
"  . Z ` N u w  ...+.. @.#.#.#.#.#.#.#.#.#.#.$.. ",
"  . %.J &.*.=.-.;.>.,.. @.#.#.#.#.#.#.#.#.#.$.. ",
"  . %.J '.).!.~.{.].^./.. @.#.#.#.#.#.#.#.#.$.. ",
"  . (._.).:.<.[.}.|.1.2.3.. @.#.#.. . . . . . . ",
"  . Z 4.<.5.6.7.8.9.0.a.b.c.. @.#.. d.e.f..     ",
"  . g.h.:.h.h.h.i.-.j.k.l.m.n.. @.. o.p.3 .     ",
"  . q.r.h.s.t.t.u.v.w.x.y.z.A.B.. . C.D.: .     ",
"  . E.F.r.}.}.r.r.r.G.H.I.J.0.K.L.. M.=.~ .     ",
"  . Z N.r.M.M.}.}.r.r.H.H.O.P.Q.R.S.T.U.# .     ",
"  . e.V.W.X.X.Y.Y.Z.W.W.`. +o..+1.++9. +# .     ",
"  . . . . . . . . . . . . . . . . . . . . .     "};
