/* XPM */
static char *close_mbox_xpm[] = {
/* width height num_colors chars_per_pixel */
"    24    24        8            1",
/* colors */
"  c None",
". c #000000",
"# c #7b2d34",
"a c #8c343c",
"b c #9f3c44",
"c c #b5444e",
"d c #bd5a62",
"e c #c46d74",
/* pixels */
"                        ",
"                        ",
"                        ",
"                        ",
"                        ",
"        ..      .       ",
"       .eb.    .c.      ",
"       .cc.   .dc.      ",
"        .cb. .dc#.      ",
"        .cc..dca.       ",
"         .ccccb.        ",
"         .cccc.         ",
"        .dccc.          ",
"       .dcccc.          ",
"      .dca..ca.         ",
"     .eca. .bc.         ",
"     .ca.   .cb.        ",
"      ..    .bc.        ",
"             ..         ",
"                        ",
"                        ",
"                        ",
"                        ",
"                        "
};
