/* XPM */
static char *closedfolder[] = {
/* width height num_colors chars_per_pixel */
"    14    16       11            1",
/* colors */
". c #707770",
"# c #7f7f7f",
"a c #808780",
"b c #906700",
"c c #90672f",
"d c #cf9760",
"e c #cfc890",
"f c #efd7c0",
"g c #ffc890",
"h c #ffffcf",
"i c #ffffff",
/* pixels */
"ihhiiiiiiiiiii",
"iggfhhiiiiiiii",
"ddgggciiiiiiii",
"hhddgciiiiiiii",
"eghhddfiiiiiii",
"gggghhddfiiiii",
"eggggghhdddiii",
"ggggggggfbdiii",
"eggggggggbdiii",
"gggggggggbd#ii",
"cggggggggbd#a#",
"iccggggggbd###",
"iiidcggggbd.ai",
"iiiiidcggbd#ii",
"iiiiiiidcbbiii",
"iiiiiiiiidiiii"
};
