/* XPM */
static char * empty_trash_xpm[] = {
"24 24 41 1",
" 	c None",
".	c #000000",
"+	c #3F483C",
"@	c #576452",
"#	c #5E6F5A",
"$	c #738B6E",
"%	c #A8B4A4",
"&	c #B2C2AB",
"*	c #5B6256",
"=	c #666B63",
"-	c #909F86",
";	c #BEC9B5",
">	c #D7DED2",
",	c #7C9674",
"'	c #637354",
")	c #E1E7DD",
"!	c #272727",
"~	c #687A63",
"{	c #B8C3B1",
"]	c #6F8668",
"^	c #2B2E28",
"/	c #A4B398",
"(	c #A5B49D",
"_	c #94A58A",
":	c #889C81",
"<	c #84957E",
"[	c #A0AD94",
"}	c #9BAA8F",
"|	c #9AA78E",
"1	c #667961",
"2	c #A9B9A6",
"3	c #4F5B4C",
"4	c #9AAD96",
"5	c #60725C",
"6	c #728A6B",
"7	c #6D8267",
"8	c #5A6A56",
"9	c #40463E",
"0	c #7A9472",
"a	c #788F71",
"b	c #3A4537",
"                        ",
"                        ",
"                        ",
"                        ",
"                        ",
"                        ",
"                        ",
"           ......       ",
"        ....+@#$%..     ",
"      ..&*..+@#$%=+.    ",
"     .-;>,'.+@#$%...    ",
"    .&;;)&$.....!+~.    ",
"   .{]^/(_]..+:+<+~.    ",
"  .--^~[:~...+:+<+~.... ",
"  .}!~[,#....+:+<+~.....",
" .}|-|:]@....+:+<+~.....",
" .}|||1@....2+:+<+~.....",
" .,__33.....456378~.... ",
"  .389.....0a6$]7b...   ",
"   .....  .........     ",
"                        ",
"                        ",
"                        ",
"                        "};
