/* XPM */
static char *envelope_xpm[] = {
/* width height num_colors chars_per_pixel */
"    16    16        7            1",
/* colors */
"  c None",
". c #000000",
"# c #3c3c3c",
"a c #646464",
"b c #878787",
"c c #cccccc",
"d c #e7e7e4",
/* pixels */
"                ",
"                ",
"                ",
"        ...     ",
"     ...dbc.    ",
"  ...dddcbd.    ",
" .dddddda#ad.   ",
" .aaaaa##dc#a.  ",
"  .dddadddddb.  ",
"  .dddcdddd..   ",
"   .dccdd..     ",
"   .dad..       ",
"    ...         ",
"                ",
"                ",
"                "
};
