/* XPM */
static char * flagged_xpm[] = {
"4 16 18 1",
" 	c None",
".	c #000000",
"+	c #BCA488",
"@	c #BBA488",
"#	c #B7A085",
"$	c #B7A084",
"%	c #B39C81",
"&	c #B29C81",
"*	c #AE987E",
"=	c #AD977D",
"-	c #A9947A",
";	c #A9937A",
">	c #A59077",
",	c #A48F77",
"'	c #84735F",
")	c #83725F",
"!	c #7F6F5C",
"~	c #7F6E5B",
" .. ",
".+@.",
".#$.",
".%&.",
".*=.",
".-;.",
".>,.",
" .. ",
" .. ",
" .. ",
" .. ",
"    ",
" .. ",
".').",
".!~.",
" .. "};
