/* XPM */
static char * folder_closed_xpm[] = {
"16 16 5 1",
" 	c None",
".	c #000000",
"+	c #88806C",
"@	c #635D4F",
"#	c #99907B",
"                ",
"         ..     ",
"       ..++..   ",
" ..  ..++@...   ",
".++..++@..###.  ",
".++++@..#####.  ",
" .+@..########. ",
" ...##########. ",
"  ..##########. ",
"  ...########.. ",
"   ..######..   ",
"   ...###..     ",
"    ..#..       ",
"     ..         ",
"                ",
"                "};
