/* XPM */
static char * folder_open_xpm[] = {
"16 16 12 1",
" 	c None",
".	c #000000",
"+	c #88806C",
"@	c #938A75",
"#	c #99907C",
"$	c #ADA694",
"%	c #FFFEF7",
"&	c #9A917D",
"*	c #9C937F",
"=	c #99907B",
"-	c #9E9683",
";	c #8D8571",
"                ",
"         ..     ",
"       ..++.    ",
" ..  ..@#$%.    ",
".++..&*$%%%.... ",
".++@#$%%%%..==. ",
" .+-%%%%..====. ",
" .;%%%..======. ",
" ..%..========. ",
"  ..=========.  ",
"  ..=======..   ",
"   ..====..     ",
"   ..==..       ",
"    ...         ",
"                ",
"                "};
