/* XPM */
static char * forwarded_xpm[] = {
"12 8 9 1",
" 	c None",
".	c #020204",
"+	c #B29E84",
"@	c #7A6A58",
"#	c #867664",
"$	c #8E7E6C",
"%	c #9A866C",
"&	c #A69278",
"*	c #C1A98C",
"       ..   ",
"       .+.  ",
"........++. ",
".@@#$%%&+**.",
".@@#$%&&++*.",
"........+*. ",
"       .+.  ",
"       ..   "};
