/* XPM */
static char * forwarded_xpm[] = {
"12 8 12 1",
" 	c None",
".	c #000000",
"+	c #B39C82",
"@	c #BCA488",
"#	c #746554",
"$	c #7D6D5B",
"%	c #867561",
"&	c #8F7D68",
"*	c #98856E",
"=	c #A18D75",
"-	c #AA947B",
";	c #C5AC8F",
"       ..   ",
"       .+.  ",
"........+@. ",
".#$%&*=-+@;.",
".#$%&*=-+@;.",
"........+@. ",
"       .+.  ",
"       ..   "};
