/* XPM */
static char * identity_xpm[] = {
"24 24 44 1",
" 	c None",
".	c #010101",
"+	c #F1B86A",
"@	c #EFB569",
"#	c #EEB367",
"$	c #EDB166",
"%	c #F1B86B",
"&	c #F0B669",
"*	c #EEB468",
"=	c #EDB266",
"-	c #ECB065",
";	c #EAAD64",
">	c #F0B76A",
",	c #EFB568",
"'	c #EDB267",
")	c #EBAE64",
"!	c #E9AC63",
"~	c #ECB166",
"{	c #EBAF65",
"]	c #EAAD63",
"^	c #E8AA62",
"/	c #E9AB62",
"(	c #E7A961",
"_	c #EAAE64",
":	c #0F0AE7",
"<	c #0D09D9",
"[	c #0C08CC",
"}	c #ED0300",
"|	c #0A07BE",
"1	c #E50301",
"2	c #0906B1",
"3	c #DD0402",
"4	c #0705A3",
"5	c #D60403",
"6	c #060496",
"7	c #CE0404",
"8	c #040388",
"9	c #C60505",
"0	c #03027B",
"a	c #BF0506",
"b	c #01016A",
"c	c #01016D",
"d	c #B70607",
"e	c #AF0608",
"                        ",
"             .....      ",
"             .+@#$.     ",
"            .%&*=-;.    ",
"     ....   .>,'-)!.    ",
"    .+@#$.  .@#~{]^.    ",
"   .%&*=-;. .*={;/(.    ",
"   .>,'-)!. ..._!..     ",
"   .@#~{]^.    ..       ",
"   .*={;/(.  .....      ",
"    .._!... .:::::...   ",
"      ..    .<<<<<<<.   ",
"     ....  .[[[[[[[[.   ",
"   ..}}}}...||||||||.   ",
"  .11111111.22222222.   ",
"  .33333333.44444444.   ",
"  .55555555.66666666.   ",
"  .77777777.88888888.   ",
"  .99999999.00000000.   ",
"  .aaaaaaaa.bccccccc.   ",
"  .dddddddd.........    ",
"  .eeeeeeee..           ",
"   ........             ",
"                        "};
