/* XPM */
static char *inbox_xpm[] = {
/* columns rows colors chars-per-pixel */
"16 16 17 1",
"  c Gray0",
". c Gray37",
"X c #606060",
"o c Gray41",
"O c #930808",
"+ c Gray57",
"@ c #939393",
"# c Gray60",
"$ c #aaaaaa",
"% c #b2b2b2",
"& c Gray71",
"* c #d2d2d2",
"= c #e4e4e4",
"- c Gray90",
"; c #e9e9e9",
": c Gray100",
"> c None",
/* pixels */
">>O>>>>>>>>>>>>>",
">OOO>>>> >>>>>>>",
">>OOO>  # >>>>>>",
">>>OOO#O#: >>>>>",
">>  OOOO.:: >>>>",
"  ###OOO&X:: >>>",
" : #OOOO--X:: >>",
" :: $&-----X:: >",
" ::: &&-----X:@ ",
"> ::: &&-----X; ",
">> ::: &&----%X ",
">>> ::: &*-%%%# ",
">>>> ::+o%%%#  >",
">>>>> := %#  >>>",
">>>>>> :   >>>>>",
">>>>>>>  >>>>>>>"
};
