/* XPM */
static const char * info_sign_good_xpm[] = {
"48 48 126 2",
"  	c None",
". 	c #000000",
"+ 	c #000200",
"@ 	c #00D000",
"# 	c #00F100",
"$ 	c #00F700",
"% 	c #00F900",
"& 	c #00F500",
"* 	c #00ED00",
"= 	c #00C600",
"- 	c #00E900",
"; 	c #00FB00",
"> 	c #00FA00",
", 	c #00F800",
"' 	c #00F400",
") 	c #00D100",
"! 	c #008900",
"~ 	c #00F300",
"{ 	c #00E500",
"] 	c #006300",
"^ 	c #00B800",
"/ 	c #00F000",
"( 	c #00EB00",
"_ 	c #00F600",
": 	c #00EE00",
"< 	c #00E700",
"[ 	c #008B00",
"} 	c #008600",
"| 	c #00E800",
"1 	c #007E00",
"2 	c #001D00",
"3 	c #00AC00",
"4 	c #00EC00",
"5 	c #006D00",
"6 	c #00CC00",
"7 	c #00BE00",
"8 	c #00C700",
"9 	c #00E300",
"0 	c #00C800",
"a 	c #00EA00",
"b 	c #000300",
"c 	c #00D700",
"d 	c #00D500",
"e 	c #00B400",
"f 	c #00F200",
"g 	c #00E000",
"h 	c #00A600",
"i 	c #004400",
"j 	c #00B500",
"k 	c #00E400",
"l 	c #00D400",
"m 	c #001600",
"n 	c #002D00",
"o 	c #00DB00",
"p 	c #00EF00",
"q 	c #00DE00",
"r 	c #002400",
"s 	c #007500",
"t 	c #009B00",
"u 	c #009700",
"v 	c #008100",
"w 	c #00A200",
"x 	c #009D00",
"y 	c #007A00",
"z 	c #008A00",
"A 	c #00E600",
"B 	c #00E100",
"C 	c #00DC00",
"D 	c #00D900",
"E 	c #00D300",
"F 	c #00CD00",
"G 	c #00C500",
"H 	c #00BC00",
"I 	c #00B700",
"J 	c #00B000",
"K 	c #009600",
"L 	c #007700",
"M 	c #00E200",
"N 	c #00DF00",
"O 	c #00DD00",
"P 	c #00DA00",
"Q 	c #00CE00",
"R 	c #00CF00",
"S 	c #00C900",
"T 	c #00C300",
"U 	c #00BB00",
"V 	c #00A300",
"W 	c #00AD00",
"X 	c #009100",
"Y 	c #007300",
"Z 	c #00D200",
"` 	c #00BA00",
" .	c #00B600",
"..	c #009900",
"+.	c #00D600",
"@.	c #00C400",
"#.	c #00AA00",
"$.	c #009500",
"%.	c #00C100",
"&.	c #00A800",
"*.	c #00C200",
"=.	c #00AF00",
"-.	c #00A100",
";.	c #00B100",
">.	c #00A400",
",.	c #009300",
"'.	c #007400",
").	c #00AB00",
"!.	c #00D800",
"~.	c #00BD00",
"{.	c #007000",
"].	c #00B200",
"^.	c #00A700",
"/.	c #009F00",
"(.	c #006E00",
"_.	c #00BF00",
":.	c #002100",
"<.	c #009A00",
"[.	c #009200",
"}.	c #008F00",
"|.	c #008700",
"1.	c #008400",
"2.	c #007B00",
"3.	c #004500",
"4.	c #001900",
"5.	c #002000",
"                                                                                                ",
"                                                                                                ",
"                                                                                                ",
"                                                                                                ",
"                                          . . . + . . .                                         ",
"                                    . . + @ # $ % & * = + . .                                   ",
"                                  . + - % ; ; ; > % , $ ' ) + .                                 ",
"                                . ! $ ; > % , $ $ $ $ $ $ ~ { ] .                               ",
"                              . ^ % ; % $ ' / ( ( / ~ & _ & : < [ .                             ",
"                            . } % ; , & | 1 2 . . . 3 - _ _ & 4 | 5 .                           ",
"                          . + $ ; % ' 6 . .           . ) & _ ' | { +                           ",
"                          . < ; % ' 7 .                 . 8 & _ / 9 0 .                         ",
"                          + % ; & a b .                   . c , & a { +                         ",
"                          d ; , * e .                       b & % f g h .                       ",
"                        . # ; ' a i .                         j > & k l .                       ",
"                        . $ ; / a m                           n % $ a o .                       ",
"                        . , > p { .                           . % , * g .                       ",
"                        . & % p q .                           . $ $ p q .                       ",
"                    r r r s t u v r r r r r r r r r r r r r r r } w x y r r r r                 ",
"                  r ) $ _ & ~ f f # / / / : * * * * * : : * * * ( a - < < 9 q z r               ",
"                  r , f # ( A { B g q C D c l l l l l l l E @ F 0 G H I J h K L r               ",
"                  r $ / / - M N O P o c l @ Q Q Q R R R R Q F S G T U j J V K s r               ",
"                  r , # / a k B g q P P c l ) ) ) ) ) ) ) R 6 0 G T I j W w X Y r               ",
"                  r $ # / | N q O q P c l ) @ R @ ) E l l Z @ Q F = T `  .W ..y r               ",
"                  r $ / / | k M g O o D +.l ) E E l l l l @ R 6 S @.U e J #.$.s r               ",
"                  r $ / : < N O O D o c l E R @ ) E l l l E @ Q 6 = %.H j W u L r               ",
"                  r $ / p | B g q O D c d l @ @ ) ) E E l Z Q 6 0 @.%.^ J &.K s r               ",
"                  r $ / p < g q O D D +.E R Q Q Q Q Q Q Q F 8 G *.U j =.&.-.X Y r               ",
"                  r $ / p < N q o D +.l R F 0 0 0 0 6 6 F 0 8 G T H  .;.W >.,.'.r               ",
"                  r , # / | k 9 9 g q o D c l l l l l E E @ F S G %.I ;.).h ,.s r               ",
"                  r $ / : A q D o !.+.E Q F 0 6 F F F Q Q F 0 = G %.H j =.&.x '.r               ",
"                  r $ / p < g q O D P +.E @ R Q Q Q Q Q Q F 8 = T U  .J #.h -.Y r               ",
"                  r , # / - k B g q o c d E R R Q Q Q Q Q F 8 G *.~. .J #.w j Y r               ",
"                  r $ / * A q q o P c l R Q F F F F Q Q Q F 0 8 G H I J 3 h *.{.r               ",
"                  r _ p * 9 q D P c l Q 6 8 = = 8 0 6 F F 0 = G *.~.].W &.V *.5 r               ",
"                  r $ p * k q o D +.E Q 0 = G @.G G G G G T *.H I j J 3 ^./.Z (.r               ",
"                  r $ / : A q P q P c l @ Q 6 F F F Q Q Q F 8 = @.H I =.W h l '.r               ",
"                  r $ / : < N O q o D +.l R R R R R R R R Q 0 = G U  .J ;.j +.{.r               ",
"                  r $ p : A O D o !.l ) Q 6 0 8 8 8 8 8 8 = G T ~.I e W ;.^ d Y r               ",
"                  r _ : * A P o D c l @ R Q F F F Q Q R R Q S 0 G %.~.7 Q _.Z {.r               ",
"                  r _ : 4 9 D D c l @ Q 0 8 = = 8 0 6 R E c c +.+.q O D o 7 w (.r               ",
"                  :.>.Z R %.J J ).&.>.^.-.V -.-.-././././.-.<...$.[.}.z |.1.2.3.4.              ",
"                    5.r r r r r r r r r r r r r r r r r r r r r r r r r r r r 4.                ",
"                                                                                                ",
"                                                                                                ",
"                                                                                                ",
"                                                                                                ",
"                                                                                                "};
