/* XPM */
static const char * info_encr_xpm[] = {
"48 48 119 2",
"  	c None",
". 	c #000000",
"+ 	c #000006",
"@ 	c #0000F4",
"# 	c #0000FB",
"$ 	c #0000FD",
"% 	c #0000FC",
"& 	c #0000FA",
"* 	c #0000F1",
"= 	c #0000FE",
"- 	c #0000D5",
"; 	c #0000F9",
"> 	c #0000B7",
", 	c #0000ED",
"' 	c #0000D7",
") 	c #0000D3",
"! 	c #0000CD",
"~ 	c #000059",
"{ 	c #0000E9",
"] 	c #0000C0",
"^ 	c #0000F3",
"/ 	c #0000EF",
"( 	c #0000F2",
"_ 	c #0000F8",
": 	c #00000B",
"< 	c #0000F5",
"[ 	c #0000EC",
"} 	c #0000F7",
"| 	c #0000E6",
"1 	c #000097",
"2 	c #000047",
"3 	c #000079",
"4 	c #0000F6",
"5 	c #000028",
"6 	c #000063",
"7 	c #000085",
"8 	c #000087",
"9 	c #000071",
"0 	c #00008E",
"a 	c #000089",
"b 	c #00006C",
"c 	c #0000EE",
"d 	c #00006F",
"e 	c #0000F0",
"f 	c #0000EB",
"g 	c #0000E5",
"h 	c #0000E1",
"i 	c #0000E0",
"j 	c #0000DB",
"k 	c #0000D8",
"l 	c #0000D6",
"m 	c #0000D0",
"n 	c #0000C7",
"o 	c #0000BF",
"p 	c #0000B0",
"q 	c #0000AC",
"r 	c #00009F",
"s 	c #00007F",
"t 	c #0000EA",
"u 	c #0000E7",
"v 	c #0000E3",
"w 	c #0000DF",
"x 	c #0000DC",
"y 	c #0000D9",
"z 	c #0000D2",
"A 	c #0000CF",
"B 	c #0000C9",
"C 	c #0000C4",
"D 	c #0000BC",
"E 	c #0000AF",
"F 	c #00009B",
"G 	c #0000D4",
"H 	c #0000B2",
"I 	c #0000A5",
"J 	c #000091",
"K 	c #000076",
"L 	c #0000DA",
"M 	c #0000CB",
"N 	c #0000A3",
"O 	c #000081",
"P 	c #0000E4",
"Q 	c #0000DE",
"R 	c #0000C6",
"S 	c #0000A8",
"T 	c #00007D",
"U 	c #0000E2",
"V 	c #0000AE",
"W 	c #0000DD",
"X 	c #0000CE",
"Y 	c #0000B5",
"Z 	c #0000C2",
"` 	c #0000A2",
" .	c #000074",
"..	c #0000E8",
"+.	c #0000D1",
"@.	c #0000AB",
"#.	c #0000B6",
"$.	c #0000A6",
"%.	c #000098",
"&.	c #000095",
"*.	c #0000BA",
"=.	c #0000B3",
"-.	c #0000CC",
";.	c #000056",
">.	c #0000CA",
",.	c #0000C5",
"'.	c #0000A9",
").	c #0000C1",
"!.	c #000023",
"~.	c #000093",
"{.	c #000090",
"].	c #00008C",
"^.	c #00007B",
"/.	c #000069",
"(.	c #000066",
"_.	c #000060",
":.	c #00005D",
"<.	c #00003E",
"[.	c #000019",
"                                                                                                ",
"                                                                                                ",
"                                                                                                ",
"                                                                                                ",
"                                          . . . + . . .                                         ",
"                                    . . + @ # $ $ % & * + . .                                   ",
"                                  . + & $ = = = $ $ $ % % @ + .                                 ",
"                                . - $ = $ $ $ $ $ % % % % % ; > .                               ",
"                              . , $ = $ $ % # & & # % % % % # ; ' .                             ",
"                            . ) $ = $ % ; ! ~ . . . { & % % % & ; ] .                           ",
"                          . + % = $ % ^ . .           . @ % % % ; ; +                           ",
"                          . ; = $ % / .                 . ( % % # _ ( .                         ",
"                          + $ = % & : .                   . < $ % & ; +                         ",
"                          < = $ & [ .                       : % $ # } | .                       ",
"                        . # = % & 1 .                         [ $ % _ < .                       ",
"                        . % = # & 2                           3 $ % & 4 .                       ",
"                        . $ $ # ; .                           . $ $ & } .                       ",
"                        . % $ # } .                           . $ $ # } .                       ",
"                    5 5 5 6 7 8 9 5 5 5 5 5 5 5 5 5 5 5 5 5 5 5 3 0 a b 5 5 5 5                 ",
"                  5 ' # # & ; _ _ _ } } 4 < < < < < < < < < < < @ @ ( ( * c { d 5               ",
"                  5 # _ _ @ e c [ f { g h i j j j j j j j j k l m n o p q r s ~ 5               ",
"                  5 # } 4 * , t { u v w x y l l l ' ' ' ' l z A B C D E q F s ~ 5               ",
"                  5 # _ } ^ c [ f { u h i j y y y y y y y ' G m B C H E I J K ~ 5               ",
"                  5 # _ } ( t t { g h w x y y ' y y j x j L y l z M C > E N O ~ 5               ",
"                  5 # } } ( c [ f { P h Q j y j j x x x j y ' G A R D q S r T ~ 5               ",
"                  5 # } 4 * t { { g U i j j ' y y j x j j j k l G M ] > V N s ~ 5               ",
"                  5 # } 4 ( [ f t { v w W x y y y y j j x L l G X R ] Y q F s ~ 5               ",
"                  5 # 4 4 * f { { g h Q j ' l l l l l l l l M B Z D E S ` J  .~ 5               ",
"                  5 # } 4 * t ..v h Q x ' z X m m m +.+.z m M n C o E @.N 1 T ~ 5               ",
"                  5 # _ } ( c , , f ..P h i j j x x x j j k z A B ] #.@.$.%.T ~ 5               ",
"                  5 # } 4 e u g v h Q j l z m +.z l l l l l m M B ] > E I F 8 ~ 5               ",
"                  5 # } 4 * f { { g h Q j y ' l l l l l l l M M C D E S I &.0 ~ 5               ",
"                  5 # _ } ^ c [ f { P w W j ' ' l l l l l z M B Z *.E S I J =.~ 5               ",
"                  5 # 4 < * { ..| h Q j ' l z z z l l l l l m M n o #.q N %.R ~ 5               ",
"                  5 # 4 < c | v h w x l G -.M M -.m +.z l m M B Z *.q I ` &.R ;.5               ",
"                  5 # 4 < c | v h Q j l m M >.R M M M M M ,.Z o #.E S N F 0 k ~ 5               ",
"                  5 # 4 4 e { u g h w x k l G z l l l l l l M M R o H S I %.W ~ 5               ",
"                  5 # } 4 * t { ..U h Q x ' ' ' ' ' ' ' ' l m M n D E S '.q Q ~ 5               ",
"                  5 # 4 4 e { g U h j y l +.X -.-.-.-.-.-.M n C *.#.V I '.> Q ~ 5               ",
"                  5 # 4 < / | v h w j k ' l z l l l l ' ' l A X B ).*.).l C - ~ 5               ",
"                  5 # < @ , v h w x y G m -.M M -.m +.' j w w Q Q ..u v P ] %.~ 5               ",
"                  !.~.- z ] q $.$.` F &.J {.].].].].].].].].8 O s ^. ./.(._.:.<.[.              ",
"                    !.5 5 5 5 5 5 5 5 5 5 5 5 5 5 5 5 5 5 5 5 5 5 5 5 5 5 5 5 [.                ",
"                                                                                                ",
"                                                                                                ",
"                                                                                                ",
"                                                                                                ",
"                                                                                                "};
