/* XPM */
static const char * info_sign_xpm[] = {
"48 48 159 2",
"  	g None",
". 	g #000000",
"+ 	g #010101",
"@ 	g #9B9B9B",
"# 	g #D0D0D0",
"$ 	g #E3E3E3",
"% 	g #E9E9E9",
"& 	g #DDDDDD",
"* 	g #C6C6C6",
"= 	g #919191",
"- 	g #BEBEBE",
"; 	g #EAEAEA",
"> 	g #F1F1F1",
", 	g #F3F3F3",
"' 	g #EDEDED",
") 	g #E6E6E6",
"! 	g #E2E2E2",
"~ 	g #D8D8D8",
"{ 	g #9C9C9C",
"] 	g #606060",
"^ 	g #F0F0F0",
"/ 	g #ECECEC",
"( 	g #E4E4E4",
"_ 	g #E1E1E1",
": 	g #D6D6D6",
"< 	g #B7B7B7",
"[ 	g #454545",
"} 	g #858585",
"| 	g #D9D9D9",
"1 	g #CECECE",
"2 	g #C2C2C2",
"3 	g #CCCCCC",
"4 	g #D5D5D5",
"5 	g #DCDCDC",
"6 	g #E0E0E0",
"7 	g #C8C8C8",
"8 	g #B9B9B9",
"9 	g #626262",
"0 	g #5E5E5E",
"a 	g #E8E8E8",
"b 	g #BCBCBC",
"c 	g #585858",
"d 	g #141414",
"e 	g #7B7B7B",
"f 	g #DFDFDF",
"g 	g #C3C3C3",
"h 	g #BBBBBB",
"i 	g #4C4C4C",
"j 	g #979797",
"k 	g #B6B6B6",
"l 	g #EBEBEB",
"m 	g #8A8A8A",
"n 	g #929292",
"o 	g #DBDBDB",
"p 	g #B3B3B3",
"q 	g #939393",
"r 	g #C0C0C0",
"s 	g #020202",
"t 	g #A2A2A2",
"u 	g #E5E5E5",
"v 	g #A0A0A0",
"w 	g #818181",
"x 	g #D1D1D1",
"y 	g #AEAEAE",
"z 	g #767676",
"A 	g #F2F2F2",
"B 	g #2F2F2F",
"C 	g #828282",
"D 	g #EEEEEE",
"E 	g #B5B5B5",
"F 	g #9F9F9F",
"G 	g #0F0F0F",
"H 	g #1F1F1F",
"I 	g #A8A8A8",
"J 	g #EFEFEF",
"K 	g #CBCBCB",
"L 	g #C5C5C5",
"M 	g #DADADA",
"N 	g #CACACA",
"O 	g #ABABAB",
"P 	g #ACACAC",
"Q 	g #202020",
"R 	g #7C7C7C",
"S 	g #6A6A6A",
"T 	g #6C6C6C",
"U 	g #7D7D7D",
"V 	g #A3A3A3",
"W 	g #DEDEDE",
"X 	g #D4D4D4",
"Y 	g #D3D3D3",
"Z 	g #CDCDCD",
"` 	g #C1C1C1",
" .	g #6D6D6D",
"..	g #BDBDBD",
"+.	g #B2B2B2",
"@.	g #AFAFAF",
"#.	g #A9A9A9",
"$.	g #A6A6A6",
"%.	g #A5A5A5",
"&.	g #8E8E8E",
"*.	g #898989",
"=.	g #747474",
"-.	g #5D5D5D",
";.	g #E7E7E7",
">.	g #B8B8B8",
",.	g #B4B4B4",
"'.	g #B1B1B1",
").	g #ADADAD",
"!.	g #AAAAAA",
"~.	g #A1A1A1",
"{.	g #9E9E9E",
"].	g #989898",
"^.	g #959595",
"/.	g #909090",
"(.	g #8B8B8B",
"_.	g #7F7F7F",
":.	g #5C5C5C",
"<.	g #8D8D8D",
"[.	g #868686",
"}.	g #707070",
"|.	g #5A5A5A",
"1.	g #B0B0B0",
"2.	g #A4A4A4",
"3.	g #777777",
"4.	g #5F5F5F",
"5.	g #D2D2D2",
"6.	g #BABABA",
"7.	g #A7A7A7",
"8.	g #969696",
"9.	g #888888",
"0.	g #838383",
"a.	g #737373",
"b.	g #949494",
"c.	g #8C8C8C",
"d.	g #CFCFCF",
"e.	g #9A9A9A",
"f.	g #BFBFBF",
"g.	g #717171",
"h.	g #9D9D9D",
"i.	g #727272",
"j.	g #5B5B5B",
"k.	g #808080",
"l.	g #878787",
"m.	g #7A7A7A",
"n.	g #848484",
"o.	g #C4C4C4",
"p.	g #595959",
"q.	g #999999",
"r.	g #7E7E7E",
"s.	g #575757",
"t.	g #1E1E1E",
"u.	g #6F6F6F",
"v.	g #6B6B6B",
"w.	g #696969",
"x.	g #676767",
"y.	g #616161",
"z.	g #383838",
"A.	g #161616",
"B.	g #1C1C1C",
"                                                                                                ",
"                                                                                                ",
"                                                                                                ",
"                                                                                                ",
"                                          . . . + . . .                                         ",
"                                    . . + @ # $ % & * = + . .                                   ",
"                                  . + - ; > , > ' ; ) ! ~ { + .                                 ",
"                                . ] $ , ^ / ) ( $ ! ! ! _ : < [ .                               ",
"                              . } / , ; $ | 1 2 2 3 4 5 6 & 7 8 9 .                             ",
"                            . 0 / , a 5 b c d . . . e - 6 f 5 g h i .                           ",
"                          . + ! , % ~ j . .           . { & 6 ~ h k +                           ",
"                          . 8 , l ~ m .                 . n o f 1 p q .                         ",
"                          + ; > & r s .                   . t u & r k +                         ",
"                          v > a * w .                       s 5 ; x y z .                       ",
"                        . # A | r B .                         C D 5 E F .                       ",
"                        . _ > 3 r G                           H / ! r I .                       ",
"                        . ) J K < .                           . % u L y .                       ",
"                        . M l N O .                           . ( $ N P .                       ",
"                    Q Q Q 9 R e S Q Q Q Q Q Q Q Q Q Q Q Q Q Q Q T w U 9 Q Q Q Q                 ",
"                  Q V ( $ W | : : X Y x # Z 3 3 3 3 3 Z Z 3 K K 7 * g ` r h p  .Q               ",
"                  Q a : X 7 ..b < E +.@.P #.$.$.$.$.$.$.$.%.t F @ j = &.*.w =.-.Q               ",
"                  Q ;.Y x 2 >.,.'.y ).!.%.t v v v ~.~.~.~.v {.@ ].^./.(.*._.=.:.Q               ",
"                  Q a X Y L h < k +.y ).#.$.V V V V V V V ~.{.@ ].^.<.(.[.U }.|.Q               ",
"                  Q ;.X x 2 ,.+.'.1.).!.%.V t ~.t V %.%.$.2.t v {.].^./.<.[.3.4.Q               ",
"                  Q ;.Y 5.g 6.>.k '.y P 7.$.V %.%.%.%.%.$.t ~.{.@ 8./.(.9.0.a.:.Q               ",
"                  Q ( x Z r ,.'.'.).y #.$.%.~.t V %.%.$.$.%.t v {.].b./.c.[.z -.Q               ",
"                  Q ;.5.d.2 < E +.'.).!.7.%.t t V V %.%.%.2.v {.e.8.b.&.*.C =.:.Q               ",
"                  Q ( # 1 f.E +.'.).P 7.%.~.v v v v v v v F e.].b./.(.[.0.R g.|.Q               ",
"                  Q ;.5.d.r ,.'.y P 7.%.~.{.e.@ @ @ h.h.{.@ e.j ^.= <.9.[._.i.j.Q               ",
"                  Q a X 5.g h 6.6.E '.y P #.$.$.%.%.%.%.%.t {.@ ].b.<.9.} k.i.:.Q               ",
"                  Q ( 5.Z ..+.).y !.7.%.v {.@ h.{.F F v v F @ ].].b./.(.l.C m.j.Q               ",
"                  Q ;.5.d.f.E +.'.).).7.%.t ~.v v v v v v F e.].^./.<.9.n._.R |.Q               ",
"                  Q a X 5.o.h < E +.y !.7.%.~.~.v v v v v {.e.].b.= <.9.n.U <.|.Q               ",
"                  Q ( # 3 - +.'.y ).#.$.~.v {.{.{.F v v v F @ e.j = <.*.} k.8.p.Q               ",
"                  Q $ d.3 6.'.).).!.%.v {.q.].].q.@ h.{.F @ ].].b.= *.[.0.r.8.s.Q               ",
"                  Q ( 1 3 h '.).P 7.%.v @ ].j 8.j j j j j ^.b.= <.(.9.} w e 2.c Q               ",
"                  Q ( # 3 ..+.y 1.).I %.t v {.{.F F v v v F e.].8.= <.[.[.k.7.j.Q               ",
"                  Q ;.x Z f.,.'.'.y P 7.%.~.~.~.~.~.~.~.~.v @ ].j /.<.9.*.c.#.p.Q               ",
"                  Q ( # Z ..'.).y !.$.V v h.e.q.q.q.q.q.q.].j ^.= <.m [.*.&.I |.Q               ",
"                  Q $ 1 K ..y ).P I $.t ~.v {.F F v v ~.~.v @ e.].q = q v b.V p.Q               ",
"                  Q $ Z 7 6.).P !.%.t F @ q.].].q.@ h.~.%.!.!.#.#.'.1.).@.q r.c Q               ",
"                  t._.V v b.*.9.} 0.k.k.R U e e e e e e e e 3.3.a.g.u.v.w.x.y.z.A.              ",
"                    B.Q Q Q Q Q Q Q Q Q Q Q Q Q Q Q Q Q Q Q Q Q Q Q Q Q Q Q Q A.                ",
"                                                                                                ",
"                                                                                                ",
"                                                                                                ",
"                                                                                                ",
"                                                                                                "};
