/* XPM */
static const char * info_lock_sigtrust_xpm[] = {
"48 48 142 2",
"  	c None",
". 	c #000000",
"+ 	c #040400",
"@ 	c #EEEE00",
"# 	c #FBFB00",
"$ 	c #FDFD00",
"% 	c #FCFC00",
"& 	c #FAFA00",
"* 	c #E9E900",
"= 	c #F9F900",
"- 	c #FEFE00",
"; 	c #EFEF00",
"> 	c #B8B800",
", 	c #F7F700",
"' 	c #929200",
") 	c #E0E000",
"! 	c #F8F800",
"~ 	c #BABA00",
"{ 	c #B5B500",
"] 	c #ADAD00",
"^ 	c #3C3C00",
"/ 	c #D7D700",
"( 	c #9C9C00",
"_ 	c #ECEC00",
": 	c #E4E400",
"< 	c #EAEA00",
"[ 	c #F6F600",
"} 	c #070700",
"| 	c #F1F100",
"1 	c #F0F000",
"2 	c #DDDD00",
"3 	c #F5F500",
"4 	c #D2D200",
"5 	c #707000",
"6 	c #2F2F00",
"7 	c #555500",
"8 	c #F3F300",
"9 	c #F4F400",
"0 	c #7D4800",
"a 	c #EFA500",
"b 	c #F8C900",
"c 	c #F8C500",
"d 	c #F3B000",
"e 	c #F2B500",
"f 	c #F8CE00",
"g 	c #F8CA00",
"h 	c #ECA900",
"i 	c #FAEF00",
"j 	c #FEFC00",
"k 	c #FDFC00",
"l 	c #FDFB00",
"m 	c #FDFA00",
"n 	c #FDF900",
"o 	c #FCF900",
"p 	c #FCF800",
"q 	c #FCF600",
"r 	c #FCF500",
"s 	c #F1B900",
"t 	c #FEFD00",
"u 	c #FCF700",
"v 	c #FBF400",
"w 	c #FBF200",
"x 	c #FAF000",
"y 	c #FAEE00",
"z 	c #F9ED00",
"A 	c #F9EA00",
"B 	c #F9E800",
"C 	c #F8E300",
"D 	c #F8DF00",
"E 	c #F8DA00",
"F 	c #F6D200",
"G 	c #F3C400",
"H 	c #E6A600",
"I 	c #FBF300",
"J 	c #FAED00",
"K 	c #F9EB00",
"L 	c #F9E700",
"M 	c #F8E200",
"N 	c #F8DD00",
"O 	c #F6CF00",
"P 	c #E5A500",
"Q 	c #FBF500",
"R 	c #F9EC00",
"S 	c #F7D800",
"T 	c #F5CE00",
"U 	c #F2BF00",
"V 	c #E2A200",
"W 	c #F9E900",
"X 	c #F9E100",
"Y 	c #F8DE00",
"Z 	c #F4C700",
"` 	c #E6A900",
" .	c #FAF100",
"..	c #F7DA00",
"+.	c #F6D500",
"@.	c #F3C300",
"#.	c #F8E600",
"$.	c #F4C500",
"%.	c #F8E000",
"&.	c #F6D400",
"*.	c #F7D900",
"=.	c #F7D400",
"-.	c #F5CD00",
";.	c #F7DB00",
">.	c #F6D100",
",.	c #F2C200",
"'.	c #E3A300",
").	c #F7D600",
"!.	c #F5CA00",
"~.	c #F7D500",
"{.	c #F5D200",
"].	c #FBF100",
"^.	c #F7D700",
"/.	c #F9E600",
"(.	c #E39F00",
"_.	c #F8DC00",
":.	c #F5CF00",
"<.	c #E19C00",
"[.	c #F8E800",
"}.	c #F8E700",
"|.	c #F6D300",
"1.	c #F5CC00",
"2.	c #E29E00",
"3.	c #FBF000",
"4.	c #F8DB00",
"5.	c #F9E400",
"6.	c #F9E500",
"7.	c #F6CE00",
"8.	c #764400",
"9.	c #F5D300",
"0.	c #F4CD00",
"a.	c #F4C800",
"b.	c #F2C300",
"c.	c #F2C100",
"d.	c #F1BE00",
"e.	c #F0B900",
"f.	c #EEB600",
"g.	c #EDB400",
"h.	c #EAAA00",
"i.	c #AD7200",
"j.	c #613400",
"k.	c #734100",
"                                                                                                ",
"                                                                                                ",
"                                                                                                ",
"                                                                                                ",
"                                          . . . + . . .                                         ",
"                                    . . + @ # $ $ % & * + . .                                   ",
"                                  . + = $ $ - $ $ $ $ % % ; + .                                 ",
"                                . > $ - $ $ $ $ $ % % % % % , ' .                               ",
"                              . ) $ - $ $ % # = = # % % % % & ! ~ .                             ",
"                            . { $ - $ % ! ] ^ . . . / = % % % = ! ( .                           ",
"                          . + % - $ % _ . .           . ; % % % ! , +                           ",
"                          . ! - $ % : .                 . < % % # [ < .                         ",
"                          + $ $ % = } .                   . | $ % = , +                         ",
"                          1 $ $ & 2 .                       } % $ # 3 4 .                       ",
"                        . # $ % = 5 .                         2 $ % , 1 .                       ",
"                        . % $ # = 6                           7 $ % = 8 .                       ",
"                        . $ $ # , .                           . $ $ & 3 .                       ",
"                        . % $ & 9 .                           . $ $ & 3 .                       ",
"                    0 0 0 a b c d 0 0 0 0 0 0 0 0 0 0 0 0 0 0 0 e f g h 0 0 0 0                 ",
"                  0 i j j k k l l l l l l m m m m m m m m m m m n o p p p q r s 0               ",
"                  0 t l l n p u q r v v w w x x x x x x x x y z A B C D E F G H 0               ",
"                  0 t l l p q r v I I w x y J J J y y y y J z K B L M N E O G P 0               ",
"                  0 t l l o u q r Q I I w x i i i i i i i y R A B L D N S T U V 0               ",
"                  0 t l l p r v v v I w x i y y y i x x x i y J z W L X Y S Z ` 0               ",
"                  0 t l l p u q r v I w  .x i x x x x x x y y R K B M N ..+.@.P 0               ",
"                  0 j l m p r v v w I w x x y y i x x x x x y J R W #.C N S $.H 0               ",
"                  0 t l l p q r v v w w x x y y i i x x x i J R A B #.%.E &.G P 0               ",
"                  0 j l m p r v v w w  .x y J J J J J J J z A B #.M N *.=.-.U V 0               ",
"                  0 t l l p r v I w  .x y z A A A A R R z A A B L C Y ;.S >.,.'.0               ",
"                  0 t l l p u q q r v I w w x x x x x x x y z K B #.D ;.).F ,.P 0               ",
"                  0 j l m p Q w I w  .x J z A R z z z J J z A W B #.C N *.&.!.'.0               ",
"                  0 t l l p r v v w I  .x y y J J J J J J z A W L M Y ..~.{.-.V 0               ",
"                  0 t l l p u q r Q I w x x y y J J J J J z A B #.C Y ..~.T N V 0               ",
"                  0 j l m p v v I I ].x y J z z z z J J J z A A B C D E ^.F /.(.0               ",
"                  0 j l m q v w I w x J R A W W A A R z z A W B #.C _.S =.:./.<.0               ",
"                  0 j m m u v I w  .x J A W B B [.[.[.[.[.}.#.C D N ..^.|.1.i 2.0               ",
"                  0 j l m p v I v I ].x y J R z z z J J J z A W B C D *.S F 3.'.0               ",
"                  0 t l m p r v v I w  .x y y y y y y y y J A W B M Y ..4.N ].(.0               ",
"                  0 j l m p v w I w x i J R A A A A A A A W B L C D N S 4.%.3.V 0               ",
"                  0 j m m p I I w ].x y y J z z z J J y y J K A B #.C 5.J 6.i (.0               ",
"                  0 j m o q w w w x y z A A W W A A R y x w w ].].v v w I 5.7.2.0               ",
"                  8.>.i y #.E E ).=.>.9.-.:.0.0.0.1.1.1.1.0.a.Z b.c.d.e.f.g.h.i.j.              ",
"                    k.0 0 0 0 0 0 0 0 0 0 0 0 0 0 0 0 0 0 0 0 0 0 0 0 0 0 0 0 j.                ",
"                                                                                                ",
"                                                                                                ",
"                                                                                                ",
"                                                                                                ",
"                                                                                                "};
