/* XPM */
static const char * info_sign_xpm[] = {
"16 16 11 1",
" 	c None",
".	c #3A3A3A",
"+	c #000000",
"@	c #83817E",
"#	c #8E8C89",
"$	c #9A9894",
"%	c #A6A4A0",
"&	c #B2B0AB",
"*	c #BEBBB6",
"=	c #CAC7C2",
"-	c #D6D3CD",
"                ",
"      ....      ",
"     ......     ",
"    ..    ..    ",
"    ..    ..    ",
"    ..    ..    ",
"   ++++++++++   ",
"   +@#$%&*=-+   ",
"   +@#$%&*=-+   ",
"   +@#$%&*=-+   ",
"   +@#$%&*=-+   ",
"   +@#$%&*=-+   ",
"   +@#$%&*=-+   ",
"   +@#$%&*=-+   ",
"   ++++++++++   ",
"                "};
