/* XPM */
static const char * info_sign_bad_xpm[] = {
"48 48 122 2",
"  	c None",
". 	c #000000",
"+ 	c #010000",
"@ 	c #9B0000",
"# 	c #D00000",
"$ 	c #E30000",
"% 	c #E90000",
"& 	c #DD0000",
"* 	c #C60000",
"= 	c #910000",
"- 	c #BE0000",
"; 	c #EA0000",
"> 	c #F10000",
", 	c #F30000",
"' 	c #ED0000",
") 	c #E60000",
"! 	c #E20000",
"~ 	c #D80000",
"{ 	c #9C0000",
"] 	c #600000",
"^ 	c #F00000",
"/ 	c #EC0000",
"( 	c #E40000",
"_ 	c #E10000",
": 	c #D60000",
"< 	c #B70000",
"[ 	c #450000",
"} 	c #850000",
"| 	c #D90000",
"1 	c #CE0000",
"2 	c #C20000",
"3 	c #CC0000",
"4 	c #D50000",
"5 	c #DC0000",
"6 	c #E00000",
"7 	c #C80000",
"8 	c #B90000",
"9 	c #620000",
"0 	c #5E0000",
"a 	c #E80000",
"b 	c #BC0000",
"c 	c #580000",
"d 	c #140000",
"e 	c #7B0000",
"f 	c #DF0000",
"g 	c #C30000",
"h 	c #BB0000",
"i 	c #4C0000",
"j 	c #970000",
"k 	c #B60000",
"l 	c #EB0000",
"m 	c #8A0000",
"n 	c #920000",
"o 	c #DB0000",
"p 	c #B30000",
"q 	c #930000",
"r 	c #C00000",
"s 	c #020000",
"t 	c #A20000",
"u 	c #E50000",
"v 	c #A00000",
"w 	c #810000",
"x 	c #D10000",
"y 	c #AE0000",
"z 	c #760000",
"A 	c #F20000",
"B 	c #2F0000",
"C 	c #820000",
"D 	c #EE0000",
"E 	c #B50000",
"F 	c #9F0000",
"G 	c #0F0000",
"H 	c #1F0000",
"I 	c #A80000",
"J 	c #EF0000",
"K 	c #CB0000",
"L 	c #C50000",
"M 	c #DA0000",
"N 	c #CA0000",
"O 	c #AB0000",
"P 	c #AD0000",
"Q 	c #370000",
"R 	c #B80000",
"S 	c #A70000",
"T 	c #A50000",
"U 	c #C90000",
"V 	c #F40000",
"W 	c #E70000",
"X 	c #F50000",
"Y 	c #D30000",
"Z 	c #CF0000",
"` 	c #BF0000",
" .	c #BD0000",
"..	c #BA0000",
"+.	c #8D0000",
"@.	c #D20000",
"#.	c #CD0000",
"$.	c #C40000",
"%.	c #C10000",
"&.	c #B10000",
"*.	c #8B0000",
"=.	c #D70000",
"-.	c #C70000",
";.	c #AF0000",
">.	c #A30000",
",.	c #870000",
"'.	c #AA0000",
").	c #A60000",
"!.	c #A90000",
"~.	c #A40000",
"{.	c #B00000",
"].	c #890000",
"^.	c #B40000",
"/.	c #860000",
"(.	c #D40000",
"_.	c #330000",
":.	c #B20000",
"<.	c #AC0000",
"[.	c #9E0000",
"}.	c #990000",
"|.	c #260000",
"1.	c #310000",
"                                                                                                ",
"                                                                                                ",
"                                                                                                ",
"                                                                                                ",
"                                          . . . + . . .                                         ",
"                                    . . + @ # $ % & * = + . .                                   ",
"                                  . + - ; > , > ' ; ) ! ~ { + .                                 ",
"                                . ] $ , ^ / ) ( $ ! ! ! _ : < [ .                               ",
"                              . } / , ; $ | 1 2 2 3 4 5 6 & 7 8 9 .                             ",
"                            . 0 / , a 5 b c d . . . e - 6 f 5 g h i .                           ",
"                          . + ! , % ~ j . .           . { & 6 ~ h k +                           ",
"                          . 8 , l ~ m .                 . n o f 1 p q .                         ",
"                          + ; > & r s .                   . t u & r k +                         ",
"                          v > a * w .                       s 5 ; x y z .                       ",
"                        . # A | r B .                         C D 5 E F .                       ",
"                        . _ > 3 r G                           H / ! r I .                       ",
"                        . ) J K < .                           . % u L y .                       ",
"                        . M l N O .                           . ( $ N P .                       ",
"                    Q Q Q { R 8 S Q Q Q Q Q Q Q Q Q Q Q Q Q Q Q T b R j Q Q Q Q                 ",
"                  Q U V V J / l ; l % a W a ) ) ) ) ) a a ) u u $ 6 6 f f & 4 t Q               ",
"                  Q X ; ; $ M M ~ : Y x Z 3 N N N N N N N 7 * 2 2 ` b  ...p S +.Q               ",
"                  Q X % W f ~ 4 @.@.# #.7 L $.$.$.L L L L $.2 %.` - b ....&.S *.Q               ",
"                  Q X l % 6 o ~ =.@.@.# 3 N -.-.-.-.-.-.-.L 2 2 ` - b ..E ;.>.,.Q               ",
"                  Q X ; a f 4 @.@.# # #.7 -.L L L -.7 7 N -.L $.2 ` - - b k '.+.Q               ",
"                  Q X % a _ M ~ =.@.# Z N N -.7 7 7 7 7 N L L 2 %.- b ..< p ).*.Q               ",
"                  Q V a u & 4 @.@.@.x 3 N 7 L L -.7 7 N N 7 * $.2 `  .b h k !.+.Q               ",
"                  Q X % W f ~ : @.@.x #.N 7 L L -.-.7 7 7 -.$.2 r -  .b ..p S *.Q               ",
"                  Q V a u 5 : Y @.@.Z N 7 L $.$.$.$.$.$.$.2 %.`  .b ..E E P ~.,.Q               ",
"                  Q X % W & 4 @.x Z N 7 L 2 r 2 2 2 %.%.2 2 %.` - b b < k {.~.].Q               ",
"                  Q X ; % _ o M M : @.# Z 3 N N 7 7 7 7 7 * 2 %.`  .h < k &.~.*.Q               ",
"                  Q V % u M @.@.x #.N 7 $.2 2 %.2 2 2 $.$.2 2 ` `  .b ..< p P ].Q               ",
"                  Q X % W 5 : Y @.@.# N 7 L L $.$.$.$.$.$.2 %.` - b b < E P ;.,.Q               ",
"                  Q X ; % _ o ~ : @.# #.N 7 L L $.$.$.$.$.2 %.`  .b b < E ;. .,.Q               ",
"                  Q V W ) o Y @.x # 3 N L $.2 2 2 2 $.$.$.2 2 %.` b h ..^.&.r ].Q               ",
"                  Q V W ) 5 x x # #.7 $.2 r ` ` r 2 %.2 2 2 ` `  .b R E E ;.r /.Q               ",
"                  Q V ) ) o x # Z N 7 $.2 ` - -  . . . . . . .b h ..< ^.&.P N ,.Q               ",
"                  Q V a ( M Y @.# # K 7 * $.2 2 2 2 $.$.$.2 %.` - b b E E &.3 ].Q               ",
"                  Q X a u 5 4 @.@.x Z N 7 L L L L L L L L $.2 ` ` b b < R b 1 ].Q               ",
"                  Q V a u M @.@.x #.N -.$.%.r r r r r r r ` ` - b h 8 E R b #.,.Q               ",
"                  Q V ) u | Y # Z K N * L $.2 2 2 $.$.L L $.%.r ` b b - $.- -.].Q               ",
"                  Q V ) _ M x Z #.7 L 2 2 r ` ` r 2 %.L 7 #.#.1 1 @.@.x (.` &.,.Q               ",
"                  _.:.-.$. ...R k E p ;.P <.'.'.'.y y y y '.!.'.T >.t [.@ }.n c |.              ",
"                    1.Q Q Q Q Q Q Q Q Q Q Q Q Q Q Q Q Q Q Q Q Q Q Q Q Q Q Q Q |.                ",
"                                                                                                ",
"                                                                                                ",
"                                                                                                ",
"                                                                                                ",
"                                                                                                "};
