/* XPM */
static char * mailbox_xpm[] = {
"16 16 34 1",
" 	c None",
".	c #000000",
"+	c #E0E4E0",
"@	c #7A7A7A",
"#	c #CDCECD",
"$	c #ACADAC",
"%	c #7B7B7B",
"&	c #E5E5E5",
"*	c #E7EAE7",
"=	c #6D6D6D",
"-	c #4C4C4C",
";	c #717171",
">	c #DADADA",
",	c #656665",
"'	c #5B5C5B",
")	c #525252",
"!	c #494949",
"~	c #3C3C3C",
"{	c #DEDEDE",
"]	c #CDCDCD",
"^	c #4E4E4E",
"/	c #666666",
"(	c #E9E9E9",
"_	c #646464",
":	c #E3E6E3",
"<	c #E3E4E3",
"[	c #E4E4E4",
"}	c #E2E2E2",
"|	c #878787",
"1	c #E1E1E1",
"2	c #7E7E7E",
"3	c #B8B8B8",
"4	c #696969",
"5	c #D6D8D6",
"                ",
"                ",
"                ",
"        ...     ",
"     ...+@#.    ",
"  ...+++$%&.    ",
" .+++++*=-;>.   ",
" .,',))!~{]^/.  ",
"  .++(_:(<[}|.  ",
"  .++12++++..   ",
"   .+23++..     ",
"   .+45..       ",
"    ...         ",
"                ",
"                ",
"                "};
