/* XPM */
static char * mark_all_xpm[] = {
"33 30 114 2",
"  	c None",
". 	c #000000",
"+ 	c #030303",
"@ 	c #7B7B78",
"# 	c #C7C7C3",
"$ 	c #F1F0EB",
"% 	c #BFBFBC",
"& 	c #FF0000",
"* 	c #5F5E5D",
"= 	c #E3E3DC",
"- 	c #F3F3EF",
"; 	c #F2F2EE",
"> 	c #F1F1EC",
", 	c #F0EFEB",
"' 	c #D2D2CD",
") 	c #F8F8F6",
"! 	c #F7F7F5",
"~ 	c #FFFFFF",
"{ 	c #F5F5F2",
"] 	c #F4F4F0",
"^ 	c #838381",
"/ 	c #D0D0CD",
"( 	c #B0B0AE",
"_ 	c #F2F1ED",
": 	c #5F5E5E",
"< 	c #E3E3DF",
"[ 	c #969592",
"} 	c #F1F0EC",
"| 	c #F0EFEA",
"1 	c #EFEEE9",
"2 	c #4F4F4D",
"3 	c #BDBCB8",
"4 	c #A7A6A3",
"5 	c #525251",
"6 	c #F5F4F1",
"7 	c #F4F3F0",
"8 	c #F3F2EE",
"9 	c #999894",
"0 	c #62625F",
"a 	c #BCBCB6",
"b 	c #EBE9E3",
"c 	c #B6B5B2",
"d 	c #EEEDD6",
"e 	c #A8A8A6",
"f 	c #515150",
"g 	c #7E7D7C",
"h 	c #DAD9D5",
"i 	c #EFEEE8",
"j 	c #EEEDE7",
"k 	c #4F4E4C",
"l 	c #BCBBB6",
"m 	c #EBE9E2",
"n 	c #EAE8E1",
"o 	c #ECEBE5",
"p 	c #F4F3EF",
"q 	c #B5B4B1",
"r 	c #9B9A97",
"s 	c #646361",
"t 	c #92918E",
"u 	c #EEEDE8",
"v 	c #EDECE6",
"w 	c #4E4E4C",
"x 	c #797976",
"y 	c #797874",
"z 	c #E9E8E1",
"A 	c #E8E7DF",
"B 	c #B4B3AF",
"C 	c #797875",
"D 	c #BFBEBA",
"E 	c #BEBDB9",
"F 	c #7A7A77",
"G 	c #979691",
"H 	c #EAE9E2",
"I 	c #959590",
"J 	c #787773",
"K 	c #B8B7B0",
"L 	c #E6E4DC",
"M 	c #585754",
"N 	c #7B7A76",
"O 	c #A9A9A6",
"P 	c #626260",
"Q 	c #ECEBE4",
"R 	c #EBEAE3",
"S 	c #E9E7E0",
"T 	c #E8E6DF",
"U 	c #E7E5DD",
"V 	c #777671",
"W 	c #93918C",
"X 	c #BEBDB8",
"Y 	c #989793",
"Z 	c #ECEAE4",
"` 	c #E8E6DE",
" .	c #E6E4DB",
"..	c #E4E3DA",
"+.	c #75746F",
"@.	c #91908A",
"#.	c #EEECE7",
"$.	c #62615F",
"%.	c #EBEAE4",
"&.	c #E7E6DE",
"*.	c #E6E5DC",
"=.	c #E5E4DB",
"-.	c #E4E2DA",
";.	c #CCCBC4",
">.	c #A3A29D",
",.	c #BCBCB7",
"'.	c #CDCCC6",
").	c #959490",
"!.	c #61615E",
"~.	c #E9E8E0",
"{.	c #CECDC7",
"].	c #969590",
"^.	c #CFCEC8",
"/.	c #AEADA8",
"                                                                  ",
"                                                                  ",
"                            . . . .                               ",
"                  . . . + . @ # $ % .                             ",
"      & & & & . . * % = - ; > , ' . . . .                         ",
"      & & & ) ! ~ { ] - . . . + . @ # $ % .                       ",
"      & & ~ & & & & . . * % = - ; > , ' . . . .                   ",
"      & ^ ~ & & & ) ! ~ { ] - . . . + . @ # $ % .                 ",
"        . ~ & & ~ & & & & . . * % = - ; > , ' . . . .             ",
"        . / & ^ ~ & & & ) ! ~ { ] - . . . . . @ # $ % .           ",
"        . ( _ . ~ & & ~ & & & & . . : % < - ; > , ' [ .           ",
"          . $ . / & ^ ~ & & & ) ! ~ { ] - _ } | 1 2 3 4 .         ",
"          . , . ( _ . ~ & & ~ 5 ~ 6 7 8 _ $ | 1 9 0 a b .         ",
"          . c d . $ . / & ^ ~ e f g h _ $ | i j k l m n .         ",
"            . o . , . ( _ . ~ 6 p q r s t u v w x y z A B .       ",
"            . C . c d . $ . / ~ ~ } , D E F w G H I J K L .       ",
"            . M N . o . , . O _ } | 1 P v Q R n S T U V W .       ",
"              . . . C . c v . $ | i X Y Z b n S ` U  ...+.@..     ",
"                  . M N . o . , i #.$.%.H z A &.*.=.-.;.>.. .     ",
"                    . . . C . c v ,.G H z A &.L '.).. . .         ",
"                        . M N . o !.H ~.T {.I . . .               ",
"                          . . . C ].^./.. . .                     ",
"                              . M N . .                           ",
"                                . .                               ",
"                                                                  ",
"                                                                  ",
"                                                                  ",
"                                                                  ",
"                                                                  ",
"                                                                  "};
