/* XPM */
static char * mark_all_menu_xpm[] = {
"16 16 105 2",
"  	c None",
". 	c #000000",
"+ 	c #010101",
"@ 	c #636361",
"# 	c #979794",
"$ 	c #60605E",
"% 	c #FF0000",
"& 	c #FE1C1B",
"* 	c #8B5252",
"= 	c #696968",
"- 	c #BBBBB8",
"; 	c #D1D1CC",
"> 	c #A2A29F",
", 	c #A0A09D",
"' 	c #93928F",
") 	c #313130",
"! 	c #4C4B4A",
"~ 	c #373736",
"{ 	c #FE8D8D",
"] 	c #FC5252",
"^ 	c #FE5454",
"/ 	c #8A5150",
"( 	c #4B4B4A",
"_ 	c #6A6A68",
": 	c #9B9B98",
"< 	c #D2D2CD",
"[ 	c #DEDED9",
"} 	c #6D6D6B",
"| 	c #814240",
"1 	c #FFAAAA",
"2 	c #EA7978",
"3 	c #E7E7E5",
"4 	c #F9F9F7",
"5 	c #F4F4F0",
"6 	c #F2F2EE",
"7 	c #F1F0EC",
"8 	c #E6E5E0",
"9 	c #7F7F7C",
"0 	c #BDBCB8",
"a 	c #3F3F3D",
"b 	c #EA9594",
"c 	c #C83A39",
"d 	c #D8D8D8",
"e 	c #8B8B8A",
"f 	c #BAB9B7",
"g 	c #EDECE8",
"h 	c #F1F0EB",
"i 	c #F0EFE9",
"j 	c #C1C0BC",
"k 	c #8C8B87",
"l 	c #E0DFD8",
"m 	c #4E4D4B",
"n 	c #9F9E9C",
"o 	c #51504F",
"p 	c #F2F2F1",
"q 	c #F8F7F5",
"r 	c #C3C2BF",
"s 	c #949390",
"t 	c #AEADA9",
"u 	c #797975",
"v 	c #CAC9C3",
"w 	c #CBCAC4",
"x 	c #50504E",
"y 	c #CBCBC8",
"z 	c #F6F5F3",
"A 	c #F0EFEA",
"B 	c #A6A5A2",
"C 	c #D6D5CF",
"D 	c #BCBBB6",
"E 	c #D7D6CF",
"F 	c #D6D5CE",
"G 	c #B0AFA8",
"H 	c #A3A29C",
"I 	c #343433",
"J 	c #C6C5C1",
"K 	c #D4D3CE",
"L 	c #ADACA7",
"M 	c #EBE9E3",
"N 	c #EAE8E1",
"O 	c #E8E6DF",
"P 	c #E7E5DD",
"Q 	c #E2E1D8",
"R 	c #A2A19A",
"S 	c #40403D",
"T 	c #6A6A67",
"U 	c #434342",
"V 	c #E2E1DB",
"W 	c #B5B4AF",
"X 	c #C9C8C2",
"Y 	c #E9E8E1",
"Z 	c #E8E7DF",
"` 	c #E1DFD8",
" .	c #BCBBB5",
"..	c #494946",
"+.	c #3B3B39",
"@.	c #2C2C2A",
"#.	c #373634",
"$.	c #848380",
"%.	c #979792",
"&.	c #D9D8D1",
"*.	c #95948F",
"=.	c #70706C",
"-.	c #42413F",
";.	c #6F6E6B",
">.	c #3E3D3C",
"                                ",
"          . + + @ # $           ",
"  % & * = - ; > , ' ) ! ~       ",
"  % { ] ^ / ( _ : > < [ }       ",
"  | 1 % 2 3 4 5 6 7 8 9 0 a     ",
"  . b c d e f g h i j k l m     ",
"    n o p q r s t 0 u k v w .   ",
"    x x y z A B C D E F G H .   ",
"    I J x A K L M N O P Q R S   ",
"      T U V W X Y Z `  ...+.    ",
"      @.#.$.%.&.*.=.. .         ",
"        . -.;.>.                ",
"                                ",
"                                ",
"                                ",
"                                "};
