/* XPM */
static char * mark_all_xpm[] = {
"24 24 113 2",
"  	c None",
". 	c #000000",
"+ 	c #030303",
"@ 	c #7B7B78",
"# 	c #C7C7C3",
"$ 	c #F1F0EB",
"% 	c #BFBFBC",
"& 	c #FF0000",
"* 	c #5F5E5D",
"= 	c #E3E3DC",
"- 	c #F3F3EF",
"; 	c #F2F2EE",
"> 	c #F1F1EC",
", 	c #F0EFEB",
"' 	c #D2D2CD",
") 	c #F8F8F6",
"! 	c #F7F7F5",
"~ 	c #FFFFFF",
"{ 	c #F5F5F2",
"] 	c #F4F4F0",
"^ 	c #5F5E5E",
"/ 	c #E3E3DF",
"( 	c #969592",
"_ 	c #838381",
": 	c #F2F1ED",
"< 	c #F1F0EC",
"[ 	c #F0EFEA",
"} 	c #EFEEE9",
"| 	c #4F4F4D",
"1 	c #BDBCB8",
"2 	c #A7A6A3",
"3 	c #525251",
"4 	c #F5F4F1",
"5 	c #F4F3F0",
"6 	c #F3F2EE",
"7 	c #999894",
"8 	c #62625F",
"9 	c #BCBCB6",
"0 	c #EBE9E3",
"a 	c #D0D0CD",
"b 	c #A8A8A6",
"c 	c #515150",
"d 	c #7E7D7C",
"e 	c #DAD9D5",
"f 	c #EFEEE8",
"g 	c #EEEDE7",
"h 	c #4F4E4C",
"i 	c #BCBBB6",
"j 	c #EBE9E2",
"k 	c #EAE8E1",
"l 	c #B0B0AE",
"m 	c #F4F3EF",
"n 	c #B5B4B1",
"o 	c #9B9A97",
"p 	c #646361",
"q 	c #92918E",
"r 	c #EEEDE8",
"s 	c #EDECE6",
"t 	c #4E4E4C",
"u 	c #797976",
"v 	c #797874",
"w 	c #E9E8E1",
"x 	c #E8E7DF",
"y 	c #B4B3AF",
"z 	c #BFBEBA",
"A 	c #BEBDB9",
"B 	c #7A7A77",
"C 	c #979691",
"D 	c #EAE9E2",
"E 	c #959590",
"F 	c #787773",
"G 	c #B8B7B0",
"H 	c #E6E4DC",
"I 	c #A9A9A6",
"J 	c #626260",
"K 	c #ECEBE4",
"L 	c #EBEAE3",
"M 	c #E9E7E0",
"N 	c #E8E6DF",
"O 	c #E7E5DD",
"P 	c #777671",
"Q 	c #93918C",
"R 	c #B6B5B2",
"S 	c #BEBDB8",
"T 	c #989793",
"U 	c #ECEAE4",
"V 	c #E8E6DE",
"W 	c #E6E4DB",
"X 	c #E4E3DA",
"Y 	c #75746F",
"Z 	c #91908A",
"` 	c #ECEBE5",
" .	c #EEECE7",
"..	c #62615F",
"+.	c #EBEAE4",
"@.	c #E7E6DE",
"#.	c #E6E5DC",
"$.	c #E5E4DB",
"%.	c #E4E2DA",
"&.	c #CCCBC4",
"*.	c #A3A29D",
"=.	c #797875",
"-.	c #BCBCB7",
";.	c #CDCCC6",
">.	c #959490",
",.	c #585754",
"'.	c #7B7A76",
").	c #61615E",
"!.	c #E9E8E0",
"~.	c #CECDC7",
"{.	c #969590",
"].	c #CFCEC8",
"^.	c #AEADA8",
"                                                ",
"                        . . . .                 ",
"              . . . + . @ # $ % .               ",
"  & & & & . . * % = - ; > , ' . . . .           ",
"  & & & ) ! ~ { ] - . . . . . @ # $ % .         ",
"  & & ~ & & & & . . ^ % / - ; > , ' ( .         ",
"  & _ ~ & & & ) ! ~ { ] - : < [ } | 1 2 .       ",
"    . ~ & & ~ 3 ~ 4 5 6 : $ [ } 7 8 9 0 .       ",
"    . a & _ ~ b c d e : $ [ f g h i j k .       ",
"    . l : . ~ 4 m n o p q r s t u v w x y .     ",
"      . $ . a ~ ~ < , z A B t C D E F G H .     ",
"      . , . I : < [ } J s K L k M N O P Q .     ",
"      . R s . $ [ f S T U 0 k M V O W X Y Z .   ",
"        . ` . , f  ...+.D w x @.#.$.%.&.*.. .   ",
"        . =.. R s -.C D w x @.H ;.>.. . .       ",
"        . ,.'.. ` ).D !.N ~.E . . .             ",
"          . . . =.{.].^.. . .                   ",
"              . ,.'.. .                         ",
"                . .                             ",
"                                                ",
"                                                ",
"                                                ",
"                                                ",
"                                                "};
