/* XPM */
static const char * mbox_sent_xpm[] = {
"16 16 25 1",
" 	c None",
".	c #000000",
"+	c #999999",
"@	c #AAAAAA",
"#	c #5E5E5E",
"$	c #C7C7C7",
"%	c #606060",
"&	c #B5B5B5",
"*	c #727272",
"=	c #393939",
"-	c #FFFFFF",
";	c #E5E5E5",
">	c #4C4C4C",
",	c #B2B2B2",
"'	c #1A1A1A",
")	c #404040",
"!	c #8E8E8E",
"~	c #101010",
"{	c #989898",
"]	c #333333",
"^	c #4D4D4D",
"/	c #D2D2D2",
"(	c #919191",
"_	c #696969",
":	c #E4E4E4",
"                ",
"        .  .... ",
"      ..+... ...",
"    ..+++@.   ..",
"  ..++++#$..    ",
"..++++#%&%*=... ",
".-.+#%&;;;%--...",
".--.@&;;;>.%--..",
".---.&&;;,.')!~.",
" .---.&&;;{]..^.",
"  .---.&&;;;;,%.",
"   .---.&/;,,,+.",
"    .--(_,,,+.. ",
"     .-:.,+..   ",
"      .-...     ",
"       ..       "};
