/* XPM */
static const char * mbox_dir_closed_xpm[] = {
"16 16 70 1",
" 	c None",
".	c #000000",
"+	c #BFB886",
"@	c #B8AE7B",
"#	c #B1A770",
"$	c #A99F66",
"%	c #C3BC8C",
"&	c #BCB381",
"*	c #B4AB77",
"=	c #AEA36B",
"-	c #A69C61",
";	c #9F9256",
">	c #EAE8C7",
",	c #E7E5C0",
"'	c #E3E0B8",
")	c #E0DCB1",
"!	c #DCD7AB",
"~	c #D9D3A2",
"{	c #D5CF9C",
"]	c #D2CC95",
"^	c #CEC68D",
"/	c #CBC286",
"(	c #C7BE7E",
"_	c #C4BA77",
":	c #E8E6C3",
"<	c #E5E2BC",
"[	c #E2DEB5",
"}	c #DEDAAD",
"|	c #DBD5A6",
"1	c #D7D19E",
"2	c #D4CD97",
"3	c #D0C991",
"4	c #CCC589",
"5	c #C9C082",
"6	c #C6BC7B",
"7	c #C2B873",
"8	c #DCD7A9",
"9	c #D1C994",
"0	c #CAC185",
"a	c #C0B56F",
"b	c #E1DEB4",
"c	c #DED9AD",
"d	c #CFC990",
"e	c #CCC389",
"f	c #C5BB7A",
"g	c #BEB36B",
"h	c #DFDBB0",
"i	c #D5CF9A",
"j	c #D2CB93",
"k	c #C3B976",
"l	c #BCB269",
"m	c #E1DDB4",
"n	c #DAD5A5",
"o	c #D3CD96",
"p	c #CFC790",
"q	c #CCC489",
"r	c #C8BF80",
"s	c #BBAF64",
"t	c #D8D2A1",
"u	c #CEC58B",
"v	c #C7BD7C",
"w	c #BCB167",
"x	c #B9AB60",
"y	c #DED8AB",
"z	c #D3CB96",
"A	c #D0C78F",
"B	c #CCC387",
"C	c #C2B771",
"D	c #BAAF63",
"E	c #B6AB5D",
"                ",
"                ",
"   ....         ",
"  .+@#$.        ",
" .%&*=-;......  ",
" .>,')!~{]^/(_. ",
" .:<[}|1234567. ",
" .,')8~{9^0(_a. ",
" .<bc|12de5f7g. ",
" .'h8~ij^0(kal. ",
" .mcn1opqrf7gs. ",
" .h8tiju0vkawx. ",
" .yn1zABrfCgDE. ",
"  ............  ",
"                ",
"                "};
