/* XPM */
static const char * mbox_trash_xpm[] = {
"16 16 142 2",
"  	c None",
". 	c #0E0E0E",
"+ 	c #424242",
"@ 	c #4A4A4A",
"# 	c #3E3E3E",
"$ 	c #2C2C2C",
"% 	c #000000",
"& 	c #858371",
"* 	c #F0EDD8",
"= 	c #F2F1E9",
"- 	c #EEEDE4",
"; 	c #C7C6BA",
"> 	c #535246",
", 	c #101010",
"' 	c #C2C0A5",
") 	c #C1BFA5",
"! 	c #7A7967",
"~ 	c #484740",
"{ 	c #272725",
"] 	c #36352E",
"^ 	c #878572",
"/ 	c #A09E88",
"( 	c #A3A18A",
"_ 	c #A5A38C",
": 	c #2B2B2B",
"< 	c #D3D1BC",
"[ 	c #DCDAC4",
"} 	c #E2E0CF",
"| 	c #B9B7A2",
"1 	c #64625B",
"2 	c #393836",
"3 	c #3C3C33",
"4 	c #616053",
"5 	c #9A9883",
"6 	c #B7B59B",
"7 	c #B3B298",
"8 	c #A4A28B",
"9 	c #E7E3D0",
"0 	c #F1EDE2",
"a 	c #F2F1E4",
"b 	c #EAE9DA",
"c 	c #E5E2D2",
"d 	c #D5D2BE",
"e 	c #C3C1A7",
"f 	c #AFAD94",
"g 	c #C0BEA4",
"h 	c #C6C4AC",
"i 	c #B8B69C",
"j 	c #797766",
"k 	c #8A8975",
"l 	c #EFEBCB",
"m 	c #FAF6E3",
"n 	c #F9F5ED",
"o 	c #F8F7EE",
"p 	c #F8F7EC",
"q 	c #F5F3E6",
"r 	c #ECEAD9",
"s 	c #DEDDCB",
"t 	c #9D9B89",
"u 	c #636254",
"v 	c #58574A",
"w 	c #525146",
"x 	c #737165",
"y 	c #9F9D91",
"z 	c #E4E1C8",
"A 	c #E9E5CF",
"B 	c #E9E6C9",
"C 	c #ACAA92",
"D 	c #777665",
"E 	c #7F7D6B",
"F 	c #434238",
"G 	c #292822",
"H 	c #1F1F1B",
"I 	c #343430",
"J 	c #4B4944",
"K 	c #686762",
"L 	c #706F66",
"M 	c #6B6B64",
"N 	c #848270",
"O 	c #656456",
"P 	c #393931",
"Q 	c #171615",
"R 	c #1A1A16",
"S 	c #1F1E19",
"T 	c #2A2A23",
"U 	c #666654",
"V 	c #4D4D40",
"W 	c #363630",
"X 	c #2A2A26",
"Y 	c #2F2F2A",
"Z 	c #0F0F0D",
"` 	c #0B0B09",
" .	c #10100D",
"..	c #26261F",
"+.	c #34342B",
"@.	c #24241F",
"#.	c #2B2B24",
"$.	c #696856",
"%.	c #7E7D6E",
"&.	c #717067",
"*.	c #7E7E68",
"=.	c #747363",
"-.	c #404035",
";.	c #565647",
">.	c #39392F",
",.	c #4A4A3D",
"'.	c #3F3F34",
").	c #262620",
"!.	c #2C2C25",
"~.	c #6C6C5A",
"{.	c #9C9B8A",
"].	c #8B8B7F",
"^.	c #9E9D8B",
"/.	c #88887B",
"(.	c #58574F",
"_.	c #60604F",
":.	c #5C5C4C",
"<.	c #505042",
"[.	c #292922",
"}.	c #6C6C59",
"|.	c #999986",
"1.	c #8D8D80",
"2.	c #B5B5A0",
"3.	c #ACAB99",
"4.	c #5D5D52",
"5.	c #747460",
"6.	c #5D5D4D",
"7.	c #4F4F41",
"8.	c #282822",
"9.	c #272721",
"0.	c #656553",
"a.	c #9E9E8B",
"b.	c #3F3F39",
"c.	c #4C4C42",
"d.	c #7C7B6D",
"e.	c #8C8C74",
"f.	c #949482",
"g.	c #4D4C43",
"h.	c #393932",
"i.	c #060606",
"j.	c #0F0F0F",
"k.	c #050505",
"          . + @ # $ %           ",
"      % % & * = - ; > % %       ",
"    , ' ) ! ~ { ] ^ / ( _ %     ",
"  : < [ } | 1 2 3 4 5 6 7 8 %   ",
"  % 9 0 a b c d e f g h i j %   ",
"  % k l m n o p q r s t u v %   ",
"  % w x y z A B C D E D F G %   ",
"    H I J K L M N O P Q R S     ",
"    T U V W X Y Z `  ...+.@.    ",
"    #.$.%.&.*.=.-.;.>.,.'.).    ",
"    !.~.{.].^./.(._.,.:.<.[.    ",
"    #.}.|.1.2.3.4.5.V 6.7.8.    ",
"    9.0.a.1.2.3.4.5.V 6.V 9.    ",
"      b.c.d.e.f.g.U -.h.%       ",
"          i.% j.k.% %           ",
"                                "};
