/* XPM */
static const char * mbox_draft_xpm[] = {
"16 16 11 1",
" 	c None",
".	c #020204",
"+	c #7F0000",
"@	c #99999B",
"#	c #FFFF00",
"$	c #827F00",
"%	c #FDFDFB",
"&	c #626263",
"*	c #B4B4B4",
"=	c #E5E5E3",
"-	c #000000",
"                ",
"        .     ++",
"      ..@.   #$+",
"    ..@@@%. ##$ ",
"  ..@@@@&%%##$  ",
"..@@@@&&*&##$   ",
".%.@&&*==$#$%.  ",
".%%.@*===-$&%%. ",
".%%%.**=====&%@.",
" .%%%.**=====&=.",
"  .%%%.**====*&.",
"   .%%%.*==***@.",
"    .%%@&***@.. ",
"     .%=.*@..   ",
"      .%...     ",
"       ..       "};
