/* XPM */
static const char * mbox_tray_full_xpm[] = {
"16 16 42 1",
" 	c None",
".	c #000000",
"+	c #A7AE97",
"@	c #BFB6A9",
"#	c #FFFFFF",
"$	c #809771",
"%	c #919C7F",
"&	c #82996E",
"*	c #999999",
"=	c #7E996B",
"-	c #7C9B64",
";	c #737373",
">	c #191919",
",	c #93A480",
"'	c #85936B",
")	c #4C4C4C",
"!	c #696969",
"~	c #D6D6D6",
"{	c #555555",
"]	c #CFCFCF",
"^	c #ABABAB",
"/	c #7F7F7F",
"(	c #969696",
"_	c #747474",
":	c #BABABA",
"<	c #323232",
"[	c #8F8F8F",
"}	c #939393",
"|	c #494949",
"1	c #757575",
"2	c #BCBCBC",
"3	c #E9E9E9",
"4	c #5B5B5B",
"5	c #B3B3B3",
"6	c #DBDBDB",
"7	c #606060",
"8	c #A1A1A1",
"9	c #919191",
"0	c #878787",
"a	c #585858",
"b	c #E4E4E4",
"c	c #B2B2B2",
"                ",
"    .......     ",
"    .+@###.     ",
"    .$.......   ",
"  ...%.+&###.   ",
"..**.#.=-#;#.   ",
".#.*.#>,'#)#!.  ",
".##..~{]##^#/.. ",
".###.(_:##<#[.}.",
" .###.|1####2.3.",
"  .###.45###6.7.",
"   .###.89:0a.*.",
"    .##9....... ",
"     .#b.c*..   ",
"      .#...     ",
"       ..       "};
