/* XPM */
static const char * mbox_dir_open_xpm[] = {
"16 16 64 1",
" 	c None",
".	c #000000",
"+	c #B1AC84",
"@	c #ACA67D",
"#	c #A7A176",
"$	c #A29B6F",
"%	c #B4AF87",
"&	c #AFA980",
"*	c #A9A37A",
"=	c #A49D71",
"-	c #9E986B",
";	c #9A9263",
">	c #B0AB83",
",	c #ABA57C",
"'	c #A6A175",
")	c #A19B6E",
"!	c #9C9467",
"~	c #978F60",
"{	c #928959",
"]	c #8D8352",
"^	c #887D4B",
"/	c #827845",
"(	c #7D713C",
"_	c #776C36",
":	c #7F7440",
"<	c #7A6F39",
"[	c #756932",
"}	c #F0EEC5",
"|	c #EBE7BC",
"1	c #E7E3B4",
"2	c #E2DEAD",
"3	c #DDD7A4",
"4	c #D9D29C",
"5	c #D5CD94",
"6	c #D0C78B",
"7	c #CCC283",
"8	c #C7BC7C",
"9	c #C2B673",
"0	c #786C35",
"a	c #72662F",
"b	c #EEEAC1",
"c	c #E9E5B8",
"d	c #E4DFB1",
"e	c #DFDAA8",
"f	c #DBD5A0",
"g	c #D7CF98",
"h	c #D3CA90",
"i	c #CEC587",
"j	c #C9C080",
"k	c #C4B877",
"l	c #C0B46F",
"m	c #766A31",
"n	c #70622B",
"o	c #BEB16B",
"p	c #BAAD63",
"q	c #6D6026",
"r	c #353535",
"s	c #BBAE66",
"t	c #B8AA5F",
"u	c #6A5C23",
"v	c #B5A75A",
"w	c #B1A052",
"x	c #B2A457",
"y	c #AEA04F",
"                ",
"                ",
"    ....        ",
"   .+@#$.       ",
"  .%&*=-;...... ",
"  .>,')!~{]^/(_.",
" ...........:<[.",
".}|123456789.0a.",
".bcdefghijkl.mn.",
" .123456789op.q.",
" rdefghijklst.u.",
"  r3456789opvw..",
"  .fghijklstxy..",
"   ............ ",
"                ",
"                "};
