/* XPM */
static const char * menu_postpone_xpm[] = {
"16 16 55 1",
" 	c None",
".	c #000000",
"+	c #F7F9FE",
"@	c #BADEFF",
"#	c #C7C7C7",
"$	c #E9E9E9",
"%	c #EAEAEA",
"&	c #F2F2F2",
"*	c #AAD8FF",
"=	c #D0E8FF",
"-	c #72ABDB",
";	c #A3A3A3",
">	c #BABABA",
",	c #C0C0C0",
"'	c #E0E0E0",
")	c #3F6B94",
"!	c #C0E1FF",
"~	c #D7D7D7",
"{	c #FFFFFF",
"]	c #FAFAFA",
"^	c #69A2D2",
"/	c #39698E",
"(	c #D6D6D6",
"_	c #679DCA",
":	c #34658B",
"<	c #C46D74",
"[	c #9F3C44",
"}	c #ECECEC",
"|	c #B5444E",
"1	c #C5C5C5",
"2	c #BD5A62",
"3	c #EFEFEF",
"4	c #F3F3F3",
"5	c #7B2D34",
"6	c #9DC1E0",
"7	c #C0D8EB",
"8	c #BDCFE6",
"9	c #B4CCE3",
"0	c #8C343C",
"a	c #6DA8DA",
"b	c #649CCB",
"c	c #71ACDA",
"d	c #9DB1CA",
"e	c #CECECE",
"f	c #06375D",
"g	c #8AA7BF",
"h	c #6AA8D7",
"i	c #CDCDCD",
"j	c #92ACBD",
"k	c #5E7A91",
"l	c #68A0CF",
"m	c #4F657A",
"n	c #3A678D",
"o	c #6E6E6E",
"p	c #0B3A58",
" .............. ",
".+@#$$$$$$%$&**.",
".=-;>>>>>>>,'-).",
".!-~{{{{{{{{]^/.",
".!-~~~~..~~(&_:.",
".!-~{{.<[.}}&_.|",
".!-~~~.||.11&.2|",
".!-3{{4.|[.}.2|5",
".!-6789.||..2|0.",
".!--ab__.||||[..",
".!-cd11e.||||.:.",
".!-^11f.2|||.g:.",
".!h_1i.2||||.j:.",
".kl_i.2|0..|0.:.",
" .mn.<|0.o.[|.p.",
"  ...|0.....|[. "};
