/* XPM */
static const char * menu_receive_xpm[] = {
"16 16 49 1",
" 	c None",
".	c #000000",
"+	c #568037",
"@	c #679942",
"#	c #AECF9F",
"$	c #476A2D",
"%	c #010101",
"&	c #2F2F2F",
"*	c #A7A4A0",
"=	c #FCFCFC",
"-	c #64625F",
";	c #FFFFFF",
">	c #5D5B57",
",	c #868580",
"'	c #E5E2DB",
")	c #FBFBF8",
"!	c #716E6B",
"~	c #62605C",
"{	c #F8F7F2",
"]	c #DDDAD4",
"^	c #929191",
"/	c #969390",
"(	c #92908A",
"_	c #A1A0A0",
":	c #F7F5F1",
"<	c #FBFAF7",
"[	c #A5A29D",
"}	c #908D87",
"|	c #F9F7F3",
"1	c #F0EEE8",
"2	c #DDD9D2",
"3	c #797873",
"4	c #F9F8F4",
"5	c #74726E",
"6	c #E3E0D9",
"7	c #7D7A77",
"8	c #FAF9F6",
"9	c #F8F6F2",
"0	c #FAF8F5",
"a	c #F7F5F2",
"b	c #E2DFD8",
"c	c #090808",
"d	c #D7D4CE",
"e	c #D8D5CF",
"f	c #D6D3CD",
"g	c #D9D6D0",
"h	c #DAD7D1",
"i	c #E0DCD5",
"j	c #222221",
"      ......    ",
"      .+@##.    ",
"      .@+##.    ",
"      .+@##.    ",
"   ....@+##.... ",
"    .$@+@###@.  ",
"   %&.$@+##@.%  ",
"  %*==.$@#@.=-% ",
"  %;>;;.$@.;,'% ",
"  %;)!;;..;~{]% ",
"  %;))^//(_):]% ",
"  %;)<[)))}|12% ",
"  %;<3)))44562% ",
"  %;7):890a'5b% ",
"  %cdeeefgghij% ",
"   %%%%%%%%%%%  "};
