/* XPM */
static const char * menu_compose_xpm[] = {
"16 16 161 2",
"  	c None",
". 	c #3C321C",
"+ 	c #514528",
"@ 	c #322203",
"# 	c #000000",
"$ 	c #AAAAAA",
"% 	c #746852",
"& 	c #BDA464",
"* 	c #DEA62F",
"= 	c #392802",
"- 	c #8E8E8E",
"; 	c #373737",
"> 	c #FCFCFC",
", 	c #FFFFFF",
"' 	c #FEFEFE",
") 	c #EDEDED",
"! 	c #715C2E",
"~ 	c #F1C86B",
"{ 	c #7B5505",
"] 	c #878787",
"^ 	c #C2C2C2",
"/ 	c #A4A4A4",
"( 	c #121212",
"_ 	c #FBFBFB",
": 	c #7B7B7B",
"< 	c #DAB663",
"[ 	c #E7AD38",
"} 	c #433C26",
"| 	c #CCCCCB",
"1 	c #B6B6B6",
"2 	c #616160",
"3 	c #181818",
"4 	c #F9F9F9",
"5 	c #FAFAFA",
"6 	c #C1C1C1",
"7 	c #967739",
"8 	c #F0C96D",
"9 	c #896005",
"0 	c #6E6E6D",
"a 	c #EBEBEB",
"b 	c #E0E0E0",
"c 	c #787878",
"d 	c #F6F6F6",
"e 	c #F7F7F7",
"f 	c #F7F7F6",
"g 	c #9F9685",
"h 	c #BAA367",
"i 	c #D99F24",
"j 	c #342501",
"k 	c #D5D5D5",
"l 	c #E8E8E7",
"m 	c #E7E7E6",
"n 	c #E4E4E2",
"o 	c #808080",
"p 	c #F2F2F2",
"q 	c #F1F1F0",
"r 	c #DFDFDF",
"s 	c #F1C76A",
"t 	c #765105",
"u 	c #7A7A78",
"v 	c #DEDEDD",
"w 	c #DDDDDB",
"x 	c #7C7C7C",
"y 	c #EFEFEE",
"z 	c #EBEBEA",
"A 	c #747474",
"B 	c #DAB664",
"C 	c #E2A939",
"D 	c #3E3721",
"E 	c #B3B3B1",
"F 	c #E3E3E1",
"G 	c #E1E1DF",
"H 	c #DFDFDC",
"I 	c #DBDBD9",
"J 	c #7D7D7D",
"K 	c #E9E9E9",
"L 	c #BEBEBD",
"M 	c #AD8F52",
"N 	c #CF9426",
"O 	c #7A5604",
"P 	c #60605E",
"Q 	c #D9D9D7",
"R 	c #DCDCD9",
"S 	c #DADAD8",
"T 	c #D7D7D5",
"U 	c #F6F6F5",
"V 	c #E4E4E3",
"W 	c #969696",
"X 	c #97927E",
"Y 	c #7A6943",
"Z 	c #261C01",
"` 	c #C0C0BD",
" .	c #D5D5D2",
"..	c #D9D9D6",
"+.	c #D7D7D4",
"@.	c #D6D6D3",
"#.	c #D4D4D1",
"$.	c #7B7B7A",
"%.	c #F4F4F3",
"&.	c #DEDEDB",
"*.	c #919190",
"=.	c #282828",
"-.	c #353534",
";.	c #838381",
">.	c #C8C8C4",
",.	c #C6C6C2",
"'.	c #D3D3D0",
").	c #D2D2CF",
"!.	c #D1D1CF",
"~.	c #D1D1CE",
"{.	c #F3F3F3",
"].	c #9C9C9A",
"^.	c #555553",
"/.	c #999996",
"(.	c #B5B5B2",
"_.	c #C2C2BF",
":.	c #C6C6C3",
"<.	c #C9C9C6",
"[.	c #CCCCC9",
"}.	c #CDCDCA",
"|.	c #F0F0EF",
"1.	c #CBCBC8",
"2.	c #939390",
"3.	c #8F8F8D",
"4.	c #979795",
"5.	c #A0A09D",
"6.	c #ACACAA",
"7.	c #B3B3B0",
"8.	c #B8B8B5",
"9.	c #BDBDBA",
"0.	c #767676",
"a.	c #D0D0CD",
"b.	c #ADADAA",
"c.	c #A3A3A0",
"d.	c #9E9E9B",
"e.	c #A1A19D",
"f.	c #A5A5A2",
"g.	c #AAAAA7",
"h.	c #B2B2AE",
"i.	c #707070",
"j.	c #ECECEC",
"k.	c #C7C7C5",
"l.	c #C6C6C4",
"m.	c #C5C5C2",
"n.	c #C5C5C1",
"o.	c #C1C1BD",
"p.	c #B5B5B1",
"q.	c #AEAEAB",
"r.	c #A8A8A5",
"s.	c #A0A09E",
"t.	c #A6A6A3",
"u.	c #656565",
"v.	c #4C4C4C",
"w.	c #3C3C3B",
"x.	c #3B3B3A",
"y.	c #393938",
"z.	c #373736",
"A.	c #343433",
"B.	c #313130",
"C.	c #333332",
"D.	c #1E1E1D",
"                  . + @         ",
"  # $ $ $ $ $ $ % & * = - ;     ",
"  # > > , , ' ) ! ~ { ] ^ / (   ",
"  # > > > > _ : < [ } | 1 2 3   ",
"  # _ 4 5 4 6 7 8 9 0 ) a b c   ",
"  # 5 d e f g h i j k l m n o   ",
"  # 4 p q r ! s t u v w w w x   ",
"  # 4 y z A B C D E F G H I J   ",
"  # e K L M N O P Q w R S T x   ",
"  # U V W X Y Z `  ...+.@.#.$.  ",
"  # %.&.*.=.-.;.>.,.'.).!.~.$.  ",
"  # {...].^./.(._.:.<.[.}.}.c   ",
"  # |.~.1.E 2.3.4.5.6.7.8.9.0.  ",
"  # |.~.a.}.9.b.c.d.e.f.g.h.i.  ",
"  # j.k.l.m.n.o.p.q.r.5.s.t.u.  ",
"  # v.w.w.w.w.x.y.z.z.A.B.C.D.  "};
