/* XPM */
static const char * menu_reply_group_xpm[] = {
"16 16 34 1",
" 	c None",
".	c #010101",
"+	c #2F2F2F",
"@	c #A7A4A0",
"#	c #FCFCFC",
"$	c #64625F",
"%	c #FFFFFF",
"&	c #5D5B57",
"*	c #868580",
"=	c #E5E2DB",
"-	c #FBFBF8",
";	c #716E6B",
">	c #62605C",
",	c #F8F7F2",
"'	c #DDDAD4",
")	c #F7F5F1",
"!	c #FBFAF7",
"~	c #A5A29D",
"{	c #000000",
"]	c #797873",
"^	c #7D7A77",
"/	c #FAF9F6",
"(	c #F8F6F2",
"_	c #314E6C",
":	c #EFEFEF",
"<	c #CCCCCC",
"[	c #090808",
"}	c #D7D4CE",
"|	c #D8D5CF",
"1	c #D6D3CD",
"2	c #576E87",
"3	c #BBC2CC",
"4	c #181818",
"5	c #090909",
"                ",
"                ",
" .+.........    ",
".@#########$.   ",
".%&%%%%%%%*=..  ",
".%-;%%%%%>,'.$. ",
".%--;%%%;-)'.=. ",
".%-!~;-{{{{{{{{{",
".%!]--;{%%%%%%%{",
".%^-)/({%____:<{",
".[}|||1{%___::<{",
" ......{%____:<{",
"  .[}||{%_:__2<{",
"   ....{%:::23<{",
"       {%<<<<<<4",
"       {{5{{{{{{"};
