/* XPM */
static const char * menu_previous_xpm[] = {
"16 16 158 2",
"  	c None",
". 	c #656565",
"+ 	c #777777",
"@ 	c #AAAAAA",
"# 	c #A0A0A0",
"$ 	c #000000",
"% 	c #5D5D5D",
"& 	c #CFCFCF",
"* 	c #999999",
"= 	c #F2F2F2",
"- 	c #FEFEFE",
"; 	c #FDFDFD",
"> 	c #FCFCFC",
", 	c #FCFCFB",
"' 	c #FAFAFA",
") 	c #F9F9F9",
"! 	c #EBEBEB",
"~ 	c #666666",
"{ 	c #BBBBBB",
"] 	c #9B9B9B",
"^ 	c #F0F0F0",
"/ 	c #F8F8F8",
"( 	c #F7F7F7",
"_ 	c #ECECEB",
": 	c #80807F",
"< 	c #ECECEC",
"[ 	c #E4E4E4",
"} 	c #898989",
"| 	c #F6F6F6",
"1 	c #FBFBFB",
"2 	c #FAFAF9",
"3 	c #F9F9F8",
"4 	c #F8F8F7",
"5 	c #F4F4F3",
"6 	c #E5E5E4",
"7 	c #6E6F6C",
"8 	c #181917",
"9 	c #D0D0D0",
"0 	c #DADADA",
"a 	c #A5A5A5",
"b 	c #F3F3F3",
"c 	c #F6F6F5",
"d 	c #F5F5F3",
"e 	c #F2F2F1",
"f 	c #E1E1E0",
"g 	c #6B6B6A",
"h 	c #A3AA9B",
"i 	c #3C4137",
"j 	c #BABABA",
"k 	c #CECECD",
"l 	c #F0F0EE",
"m 	c #EEEEEC",
"n 	c #E8E8E6",
"o 	c #D0D0CF",
"p 	c #676765",
"q 	c #A9B1A2",
"r 	c #B3C6A1",
"s 	c #6A7263",
"t 	c #4A4D47",
"u 	c #444841",
"v 	c #131511",
"w 	c #EDEDED",
"x 	c #EDEDEC",
"y 	c #E8E8E8",
"z 	c #E5E5E3",
"A 	c #C4C4C3",
"B 	c #ACB2A4",
"C 	c #BCCEAA",
"D 	c #B7CBA5",
"E 	c #C1D2B1",
"F 	c #C3D3B4",
"G 	c #B4C4A4",
"H 	c #32372D",
"I 	c #E8E8E7",
"J 	c #E7E7E7",
"K 	c #E4E4E2",
"L 	c #E0E0DE",
"M 	c #6F6F6E",
"N 	c #7C8372",
"O 	c #AEC097",
"P 	c #ADC096",
"Q 	c #ADC095",
"R 	c #9DAF87",
"S 	c #292F22",
"T 	c #E3E3E2",
"U 	c #E2E2E1",
"V 	c #E0E0DD",
"W 	c #DBDBD9",
"X 	c #9B9B99",
"Y 	c #383D30",
"Z 	c #6A8444",
"` 	c #74904B",
" .	c #6A8445",
"..	c #1D2413",
"+.	c #DEDEDC",
"@.	c #D8D8D6",
"#.	c #D2D2D0",
"$.	c #CFCFCC",
"%.	c #C2C2BF",
"&.	c #9C9C9A",
"*.	c #33382B",
"=.	c #5D743C",
"-.	c #6E8947",
";.	c #495B2F",
">.	c #3A4925",
",.	c #394724",
"'.	c #12160C",
").	c #DADAD8",
"!.	c #D2D2CF",
"~.	c #CDCDC9",
"{.	c #CACAC6",
"].	c #C4C4C1",
"^.	c #B7B7B5",
"/.	c #838381",
"(.	c #2F3428",
"_.	c #61783E",
":.	c #535352",
"<.	c #50504F",
"[.	c #D5D5D3",
"}.	c #CECECA",
"|.	c #CCCCC9",
"1.	c #C7C7C3",
"2.	c #B9B9B5",
"3.	c #959593",
"4.	c #2D3225",
"5.	c #13180C",
"6.	c #91918E",
"7.	c #989897",
"8.	c #D3D3D1",
"9.	c #CACAC8",
"0.	c #C9C9C6",
"a.	c #C6C6C2",
"b.	c #C1C1BE",
"c.	c #B8B8B3",
"d.	c #878784",
"e.	c #1C1C1C",
"f.	c #9E9E9A",
"g.	c #A3A3A2",
"h.	c #C7C7C5",
"i.	c #C5C5C3",
"j.	c #C5C5C2",
"k.	c #C5C5C1",
"l.	c #C4C4C0",
"m.	c #C3C3BF",
"n.	c #C0C0BD",
"o.	c #B7B7B4",
"p.	c #ABABA8",
"q.	c #AEAEAA",
"r.	c #A5A5A4",
"s.	c #393939",
"t.	c #3B3B3B",
"u.	c #3C3C3B",
"v.	c #3C3C3A",
"w.	c #3B3B3A",
"x.	c #393938",
"y.	c #373737",
"z.	c #383837",
"A.	c #333333",
"                                ",
"    . + @ @ @ @ @ @ @ @ @ # $   ",
"  % & * = - ; ; ; > , ' ) ! $   ",
"  ~ { ] ^ > ' ' / ( _ : < [ $   ",
"  } | 1 2 3 4 ( 5 6 7 8 9 0 $   ",
"  a b / ( c d e f g h i j k $   ",
"  @ ^ = l m n o p q r s t t u v ",
"  @ w x y z A . B C D E F F G H ",
"  @ I J K L M N O P P P Q Q R S ",
"  @ T U V W X Y Z ` ` ` ` `  ...",
"  @ +.@.#.$.%.&.*.=.-.;.>.>.,.'.",
"  @ ).!.~.{.].^./.(._...:.<.$   ",
"  @ [.!.}.|.{.1.2.3.4.5.6.7.$   ",
"  @ 8.}.9.0.1.a.b.c.d.e.f.g.$   ",
"  @ h.h.i.j.k.l.m.n.o.p.q.r.$   ",
"  s.t.u.u.u.u.v.w.w.x.y.z.A.$   "};
