/* XPM */
static const char * menu_mark_all_xpm[] = {
"16 16 43 1",
" 	c None",
".	c #DB6464",
"+	c #A31D1D",
"@	c #010101",
"#	c #FCFCFC",
"$	c #64625F",
"%	c #FFFFFF",
"&	c #868580",
"*	c #E5E2DB",
"=	c #716E6B",
"-	c #62605C",
";	c #F8F7F2",
">	c #DDDAD4",
",	c #FBFBF8",
"'	c #929191",
")	c #969390",
"!	c #92908A",
"~	c #A1A0A0",
"{	c #F7F5F1",
"]	c #FBFAF7",
"^	c #A5A29D",
"/	c #908D87",
"(	c #F9F7F3",
"_	c #F0EEE8",
":	c #DDD9D2",
"<	c #797873",
"[	c #F9F8F4",
"}	c #74726E",
"|	c #E3E0D9",
"1	c #7D7A77",
"2	c #FAF9F6",
"3	c #F8F6F2",
"4	c #FAF8F5",
"5	c #F7F5F2",
"6	c #E2DFD8",
"7	c #090808",
"8	c #D7D4CE",
"9	c #D8D5CF",
"0	c #D6D3CD",
"a	c #D9D6D0",
"b	c #DAD7D1",
"c	c #E0DCD5",
"d	c #222221",
"                ",
"  .             ",
" .+.@@@@@@@@    ",
".+++.######$@   ",
"@.+.%%%%%%&*@@  ",
"@%.=%%%%%-;>@$@ ",
"@%,,'))!~,{>@*@ ",
"@%,]^,,,/(_:@>@ ",
"@%]<,,,[[}|:@>@ ",
"@%1,{2345*}6@:@ ",
"@789990aabcd@:@ ",
" @@@@@@@@@@@}6@ ",
"  @789990aabcd@ ",
"   @@@@@@@@@@@  ",
"                ",
"                "};
