/* XPM */
static const char * menu_next_xpm[] = {
"16 16 146 2",
"  	c None",
". 	c #000000",
"+ 	c #AAAAAA",
"@ 	c #8E8E8E",
"# 	c #373737",
"$ 	c #FCFCFC",
"% 	c #FBFBFB",
"& 	c #FEFEFE",
"* 	c #FDFDFD",
"= 	c #C2C2C2",
"- 	c #A4A4A4",
"; 	c #121212",
"> 	c #FAFAFA",
", 	c #9D9D9D",
"' 	c #E5E5E5",
") 	c #F7F7F7",
"! 	c #F9F9F9",
"~ 	c #F8F8F8",
"{ 	c #F8F8F7",
"] 	c #B6B6B6",
"^ 	c #616160",
"/ 	c #181818",
"( 	c #F3F3F3",
"_ 	c #10120C",
": 	c #5C5E58",
"< 	c #D5D5D4",
"[ 	c #EFEFEE",
"} 	c #F5F5F5",
"| 	c #F4F4F3",
"1 	c #F1F1F0",
"2 	c #EDEDED",
"3 	c #EBEBEB",
"4 	c #E0E0E0",
"5 	c #787878",
"6 	c #F2F2F2",
"7 	c #E6E6E6",
"8 	c #3F4439",
"9 	c #73845B",
"0 	c #5E5E5E",
"a 	c #D0D0CF",
"b 	c #EAEAEA",
"c 	c #EBEBEA",
"d 	c #E8E8E7",
"e 	c #E7E7E6",
"f 	c #E4E4E2",
"g 	c #808080",
"h 	c #181917",
"i 	c #454940",
"j 	c #43483E",
"k 	c #72796C",
"l 	c #BFD0AE",
"m 	c #697D4E",
"n 	c #51544D",
"o 	c #C3C3C2",
"p 	c #DADAD7",
"q 	c #DDDDDB",
"r 	c #DADAD9",
"s 	c #7C7C7C",
"t 	c #494C46",
"u 	c #C7D6B8",
"v 	c #BCCEAB",
"w 	c #BDCFAD",
"x 	c #B7CBA5",
"y 	c #AFC499",
"z 	c #585858",
"A 	c #BCBCBA",
"B 	c #DEDEDC",
"C 	c #E0E0DE",
"D 	c #DFDFDC",
"E 	c #DADAD8",
"F 	c #7D7D7D",
"G 	c #454941",
"H 	c #B8C8A5",
"I 	c #AABD91",
"J 	c #A9BD91",
"K 	c #AABE93",
"L 	c #A3B989",
"M 	c #45562D",
"N 	c #60605F",
"O 	c #CBCBC9",
"P 	c #D8D8D5",
"Q 	c #D4D4D2",
"R 	c #363C2D",
"S 	c #839C5F",
"T 	c #74904B",
"U 	c #647C40",
"V 	c #2A2E23",
"W 	c #7A7A78",
"X 	c #C3C3BF",
"Y 	c #D2D2CF",
"Z 	c #D6D6D3",
"` 	c #D1D1CF",
" .	c #7B7B7A",
"..	c #1D2315",
"+.	c #516336",
"@.	c #4D6032",
"#.	c #5A703A",
"$.	c #576C38",
"%.	c #9F9F9C",
"&.	c #C8C8C4",
"*.	c #D1D1CD",
"=.	c #CFCFCD",
"-.	c #6D6D6C",
";.	c #5E5E5C",
">.	c #273019",
",.	c #272B20",
"'.	c #656564",
").	c #9A9A97",
"!.	c #B1B1AE",
"~.	c #BDBDB9",
"{.	c #C0C0BB",
"].	c #C4C4C1",
"^.	c #CACAC7",
"/.	c #D2D2D2",
"(.	c #B4B4B2",
"_.	c #12160B",
":.	c #292E22",
"<.	c #7D7D7C",
"[.	c #BABAB6",
"}.	c #C5C5C1",
"|.	c #CECECA",
"1.	c #ECECEB",
"2.	c #C7C7C4",
"3.	c #202020",
"4.	c #A1A19E",
"5.	c #B6B6B2",
"6.	c #C2C2BE",
"7.	c #C4C4C0",
"8.	c #C2C2BF",
"9.	c #C6C6C2",
"0.	c #C7C7C3",
"a.	c #C3C3C1",
"b.	c #B3B3B1",
"c.	c #ACACA9",
"d.	c #B9B9B6",
"e.	c #C1C1BE",
"f.	c #C3C3C0",
"g.	c #C0C0BD",
"h.	c #707070",
"i.	c #4C4C4C",
"j.	c #3B3B3A",
"k.	c #393938",
"l.	c #383837",
"m.	c #3A3A3A",
"n.	c #3C3C3A",
"o.	c #3C3C3B",
"                                ",
"  . + + + + + + + + + + @ #     ",
"  . $ % & & & * * * $ % = - ;   ",
"  . $ > , ' ) ! ! ~ ) { ] ^ /   ",
"  . > ( _ : < [ } | 1 2 3 4 5   ",
"  . 6 7 8 9 0 a b 2 c d e f g   ",
"h i j j k l m n o p q q q r s   ",
"t u v v w x y m z A B C D E F   ",
"G H I J K J J L M N O P E Q s   ",
"R S T T T T T U V W X Y Z `  .  ",
"..+.@.@.#.T $.V W %.&.*.` =. .  ",
"  . -.;.>.U ,.'.).!.~.{.].^.5   ",
"  . /.(._.:.<.%.[.X }.}.&.|. .  ",
"  . 1.2.3. .4.5.6.X 7.8.9.0.5   ",
"  . 1.a.b.c.d.e.X f.6.g.e.8.h.  ",
"  . i.j.k.l.m.j.n.j.j.j.j.o.3.  "};
