/* XPM */
static const char * menu_mark_all_read_xpm[] = {
"16 16 43 1",
" 	c None",
".	c #010101",
"+	c #FFFFFF",
"@	c #F9F7F3",
"#	c #F7F5F1",
"$	c #F0EEE8",
"%	c #D7D4CE",
"&	c #D8D5CF",
"*	c #D6D3CD",
"=	c #D9D6D0",
"-	c #DAD7D1",
";	c #E0DCD5",
">	c #A7A4A0",
",	c #FCFCFC",
"'	c #64625F",
")	c #5D5B57",
"!	c #868580",
"~	c #E5E2DB",
"{	c #FBFBF8",
"]	c #716E6B",
"^	c #62605C",
"/	c #F8F7F2",
"(	c #DDDAD4",
"_	c #929191",
":	c #969390",
"<	c #92908A",
"[	c #A1A0A0",
"}	c #FBFAF7",
"|	c #A5A29D",
"1	c #908D87",
"2	c #DDD9D2",
"3	c #797873",
"4	c #F9F8F4",
"5	c #74726E",
"6	c #E3E0D9",
"7	c #7D7A77",
"8	c #FAF9F6",
"9	c #F8F6F2",
"0	c #FAF8F5",
"a	c #F7F5F2",
"b	c #E2DFD8",
"c	c #090808",
"d	c #222221",
"    .....       ",
"   .++++@.      ",
"  .++++@#$..    ",
" .%&&&*==-;..   ",
".>,,,,,,,,,'..  ",
".+)+++++++!~.%. ",
".+{]+++++^/(.~'.",
".+{{_::<[{#(.!~.",
".+{}|{{{1@$2./(.",
".+}3{{{44562.#(.",
".+7{#890a~5b.$2.",
".c%&&&*==-;d.62.",
" ...........=5b.",
"   .c%&&&*==-;d.",
"    ........... ",
"                "};
