/* XPM */
static const char * menu_flagged_xpm[] = {
"16 16 17 1",
" 	c None",
".	c #000000",
"+	c #EEE4C7",
"@	c #E1BC6C",
"#	c #AF8932",
"$	c #E4C279",
"%	c #D1940C",
"&	c #A07208",
"*	c #E3C178",
"=	c #E3C279",
"-	c #E2BF72",
";	c #C6A14F",
">	c #B7820A",
",	c #7F5903",
"'	c #E8CC92",
")	c #C78D0B",
"!	c #8F6404",
"                ",
"                ",
"     ......     ",
"     .+@@#.     ",
"     .$%%&.     ",
"     .*%%&.     ",
"     .=%%&.     ",
"     .-%%&.     ",
"     .;>>,.     ",
"      ....      ",
"                ",
"       ..       ",
"      .').      ",
"      .)!.      ",
"      ....      ",
"                "};
