/* XPM */
static const char * menu_next_unread_xpm[] = {
"16 16 68 1",
" 	c None",
".	c #000000",
"+	c #222222",
"@	c #2C2C2C",
"#	c #414141",
"$	c #A9A9A9",
"%	c #1E1E1E",
"&	c #1F251D",
"*	c #878787",
"=	c #868686",
"-	c #898989",
";	c #9B9B9B",
">	c #BFBFBF",
",	c #707070",
"'	c #6E806A",
")	c #3C5037",
"!	c #B9B9B9",
"~	c #BBBBBB",
"{	c #151815",
"]	c #3F473E",
"^	c #40473F",
"/	c #41483F",
"(	c #8DA08A",
"_	c #A0BE9C",
":	c #455A40",
"<	c #939393",
"[	c #929292",
"}	c #3C443A",
"|	c #B3CBB0",
"1	c #B2CCAF",
"2	c #B3CCAF",
"3	c #B2CCAE",
"4	c #AEC9AB",
"5	c #ADC8AC",
"6	c #9ABB97",
"7	c #43543D",
"8	c #747474",
"9	c #6B6B6B",
"0	c #323A30",
"a	c #95B291",
"b	c #93B48F",
"c	c #95B590",
"d	c #96B591",
"e	c #95B591",
"f	c #97B593",
"g	c #84A67E",
"h	c #33442A",
"i	c #6F6F6F",
"j	c #626262",
"k	c #252E22",
"l	c #65835B",
"m	c #608156",
"n	c #5B7A4E",
"o	c #2A381E",
"p	c #232C20",
"q	c #5D7953",
"r	c #57744D",
"s	c #5A774F",
"t	c #5B7950",
"u	c #567248",
"v	c #222E16",
"w	c #0B0E0A",
"x	c #1D261A",
"y	c #1B2417",
"z	c #415639",
"A	c #28361C",
"B	c #334429",
"C	c #0F140A",
"                ",
"                ",
"      .         ",
"      +@        ",
"      #$%&      ",
" .*=--;>,')     ",
" .!~{]^//(_:    ",
" .<[}|1234567   ",
" .890abbcdefgh  ",
" .ijklmmmmmmno  ",
"  ..pqrrrstuv   ",
"    wxyyyzuA    ",
"      .  Bv     ",
"         C      ",
"                ",
"                "};
