/* XPM */
static const char * menu_send_xpm[] = {
"16 16 59 1",
" 	c None",
".	c #000000",
"+	c #D1940C",
"@	c #8E6407",
"#	c #EED680",
"$	c #AC7A09",
"%	c #010101",
"&	c #2F2F2F",
"*	c #A7A4A0",
"=	c #FCFCFC",
"-	c #63615D",
";	c #FFFFFF",
">	c #5D5B57",
",	c #E6E6E6",
"'	c #706E6A",
")	c #989590",
"!	c #E7E6E3",
"~	c #BEBDBA",
"{	c #716E6B",
"]	c #EAEAE9",
"^	c #DFDEDE",
"/	c #6E6B68",
"(	c #817F7C",
"_	c #A19F9B",
":	c #BBB9B3",
"<	c #DCDBD8",
"[	c #E4E3DF",
"}	c #A5A29D",
"|	c #E4E3E0",
"1	c #6F6C69",
"2	c #6E6C68",
"3	c #A2A09C",
"4	c #DDDBD5",
"5	c #C3C0B9",
"6	c #DCDAD7",
"7	c #797873",
"8	c #EFEFEC",
"9	c #C7C6C3",
"0	c #6A6764",
"a	c #969490",
"b	c #B0AFAB",
"c	c #B6B4AD",
"d	c #BBB8B1",
"e	c #7D7A77",
"f	c #EBE9E5",
"g	c #E6E5E2",
"h	c #BEBCB8",
"i	c #D2D0CD",
"j	c #EBE9E6",
"k	c #E5E2DB",
"l	c #B6B3AD",
"m	c #090808",
"n	c #C7C4BF",
"o	c #BFBDB7",
"p	c #BEBBB5",
"q	c #C0BDB8",
"r	c #C1BEB9",
"s	c #C6C2BC",
"t	c #222221",
"        ..      ",
"       .+@.     ",
"      .+#+@.    ",
"     .+##$+@.   ",
"    .+###+$+@.  ",
"   ....##$+.... ",
"      .##+$.    ",
"   %&%.##$+.%%  ",
"  %*==.##+$.=-% ",
"  %;>,......')% ",
"  %;!~{]^]/(_:% ",
"  %;<[}{|12345% ",
"  %;67890ab'cd% ",
"  %;e8fghijk'l% ",
"  %mnooopqqrst% ",
"   %%%%%%%%%%%  "};
