/* XPM */
static const char * menu_new_xpm[] = {
"16 16 44 1",
" 	c None",
".	c #010101",
"+	c #2F2F2F",
"@	c #A7A4A0",
"#	c #FCFCFC",
"$	c #64625F",
"%	c #FFFFFF",
"&	c #5D5B57",
"*	c #868580",
"=	c #E5E2DB",
"-	c #FBFBF8",
";	c #716E6B",
">	c #62605C",
",	c #F8F7F2",
"'	c #DDDAD4",
")	c #929191",
"!	c #969390",
"~	c #92908A",
"{	c #A1A0A0",
"]	c #F7F5F1",
"^	c #FBFAF7",
"/	c #A5A29D",
"(	c #908D87",
"_	c #F9F7F3",
":	c #F0EEE8",
"<	c #DDD9D2",
"[	c #797873",
"}	c #F9F8F4",
"|	c #74726E",
"1	c #E3E0D9",
"2	c #7D7A77",
"3	c #FAF9F6",
"4	c #F8F6F2",
"5	c #FAF8F5",
"6	c #F7F5F2",
"7	c #E2DFD8",
"8	c #090808",
"9	c #D7D4CE",
"0	c #D8D5CF",
"a	c #D6D3CD",
"b	c #D9D6D0",
"c	c #DAD7D1",
"d	c #E0DCD5",
"e	c #222221",
"                ",
"                ",
"                ",
"  .+.........   ",
" .@#########$.  ",
" .%&%%%%%%%*=.  ",
" .%-;%%%%%>,'.  ",
" .%--)!!~{-]'.  ",
" .%-^/---(_:<.  ",
" .%^[---}}|1<.  ",
" .%2-]3456=|7.  ",
" .89000abbcde.  ",
"  ...........   ",
"                ",
"                ",
"                "};
