/* XPM */
static const char * menu_next_flagged_xpm[] = {
"16 16 75 1",
" 	c None",
".	c #000000",
"+	c #222222",
"@	c #2C2C2C",
"#	c #1A1916",
"$	c #4C432E",
"%	c #45391E",
"&	c #130F06",
"*	c #878787",
"=	c #868686",
"-	c #898989",
";	c #4D4431",
">	c #DCB04E",
",	c #C69425",
"'	c #372907",
")	c #3C5037",
"!	c #B9B9B9",
"~	c #BBBBBB",
"{	c #151815",
"]	c #3F473E",
"^	c #4C4028",
"/	c #D7A330",
"(	c #C1890B",
"_	c #352603",
":	c #A0BE9C",
"<	c #455A40",
"[	c #939393",
"}	c #929292",
"|	c #3C443A",
"1	c #B3CBB0",
"2	c #4B4027",
"3	c #D7A32F",
"4	c #ADC8AC",
"5	c #9ABB97",
"6	c #43543D",
"7	c #747474",
"8	c #6B6B6B",
"9	c #323A30",
"0	c #95B291",
"a	c #3D3B22",
"b	c #7D5E16",
"c	c #6E4E05",
"d	c #2E2B11",
"e	c #95B591",
"f	c #97B593",
"g	c #84A67E",
"h	c #33442A",
"i	c #6F6F6F",
"j	c #626262",
"k	c #252E22",
"l	c #65835B",
"m	c #4E6845",
"n	c #3D5135",
"o	c #4E6846",
"p	c #608156",
"q	c #5B7A4E",
"r	c #2A381E",
"s	c #232C20",
"t	c #5D7953",
"u	c #4A6241",
"v	c #43422E",
"w	c #3B330F",
"x	c #4B6442",
"y	c #5B7950",
"z	c #567248",
"A	c #222E16",
"B	c #0B0E0A",
"C	c #1D261A",
"D	c #121810",
"E	c #8C6C25",
"F	c #6C4C04",
"G	c #384A31",
"H	c #28361C",
"I	c #334429",
"J	c #0F140A",
"                ",
"                ",
"      .         ",
"      +@        ",
"      #$%&      ",
" .*=--;>,')     ",
" .!~{]^/(_:<    ",
" .[}|123(_456   ",
" .7890abcdefgh  ",
" .ijklmnnoppqr  ",
"  ..stuvwxyzA   ",
"    BCDEFGzH    ",
"      ...IA     ",
"         J      ",
"                ",
"                "};
