/* XPM */
static const char * menu_next_part_xpm[] = {
"16 16 140 2",
"  	c None",
". 	c #000000",
"+ 	c #AAAAAA",
"@ 	c #8E8E8E",
"# 	c #373737",
"$ 	c #FCFCFC",
"% 	c #FBFBFB",
"& 	c #FEFEFE",
"* 	c #FDFDFD",
"= 	c #C2C2C2",
"- 	c #A4A4A4",
"; 	c #121212",
"> 	c #FAFAFA",
", 	c #9D9D9D",
"' 	c #E5E5E5",
") 	c #F7F7F7",
"! 	c #F9F9F9",
"~ 	c #F8F8F8",
"{ 	c #F8F8F7",
"] 	c #B6B6B6",
"^ 	c #616160",
"/ 	c #181818",
"( 	c #F3F3F3",
"_ 	c #0D1115",
": 	c #595D61",
"< 	c #D5D5D4",
"[ 	c #EFEFEE",
"} 	c #F5F5F5",
"| 	c #F4F4F3",
"1 	c #F1F1F0",
"2 	c #EDEDED",
"3 	c #EBEBEB",
"4 	c #E0E0E0",
"5 	c #787878",
"6 	c #F2F2F2",
"7 	c #E6E6E6",
"8 	c #2E3A45",
"9 	c #617E99",
"0 	c #5E5E5E",
"a 	c #D0D0CF",
"b 	c #EAEAEA",
"c 	c #EBEBEA",
"d 	c #E8E8E7",
"e 	c #E7E7E6",
"f 	c #E4E4E2",
"g 	c #808080",
"h 	c #16181A",
"i 	c #43494F",
"j 	c #5E6E7D",
"k 	c #93B8DA",
"l 	c #515659",
"m 	c #C3C3C2",
"n 	c #DADAD7",
"o 	c #DDDDDB",
"p 	c #DADAD9",
"q 	c #7C7C7C",
"r 	c #B2CCE5",
"s 	c #A5C4E0",
"t 	c #9FC0DE",
"u 	c #90B5D7",
"v 	c #585858",
"w 	c #BCBCBA",
"x 	c #DEDEDC",
"y 	c #E0E0DE",
"z 	c #DFDFDC",
"A 	c #DADAD8",
"B 	c #7D7D7D",
"C 	c #3A4148",
"D 	c #8AABC8",
"E 	c #789EC0",
"F 	c #3C566E",
"G 	c #60605F",
"H 	c #CBCBC9",
"I 	c #D8D8D5",
"J 	c #D4D4D2",
"K 	c #273139",
"L 	c #537896",
"M 	c #416A8C",
"N 	c #355D82",
"O 	c #212932",
"P 	c #7A7A78",
"Q 	c #C3C3BF",
"R 	c #D2D2CF",
"S 	c #D6D6D3",
"T 	c #D1D1CF",
"U 	c #7B7B7A",
"V 	c #1A2126",
"W 	c #375064",
"X 	c #2B475D",
"Y 	c #33526D",
"Z 	c #2E5172",
"` 	c #202932",
" .	c #9F9F9C",
"..	c #C8C8C4",
"+.	c #D1D1CD",
"@.	c #CFCFCD",
"#.	c #6D6D6C",
"$.	c #5E5E5C",
"%.	c #16232F",
"&.	c #1E262F",
"*.	c #656564",
"=.	c #9A9A97",
"-.	c #B1B1AE",
";.	c #BDBDB9",
">.	c #C0C0BB",
",.	c #C4C4C1",
"'.	c #CACAC7",
").	c #D2D2D2",
"!.	c #B4B4B2",
"~.	c #08111A",
"{.	c #202831",
"].	c #7D7D7C",
"^.	c #BABAB6",
"/.	c #C5C5C1",
"(.	c #CECECA",
"_.	c #ECECEB",
":.	c #C7C7C4",
"<.	c #202020",
"[.	c #A1A19E",
"}.	c #B6B6B2",
"|.	c #C2C2BE",
"1.	c #C4C4C0",
"2.	c #C2C2BF",
"3.	c #C6C6C2",
"4.	c #C7C7C3",
"5.	c #C3C3C1",
"6.	c #B3B3B1",
"7.	c #ACACA9",
"8.	c #B9B9B6",
"9.	c #C1C1BE",
"0.	c #C3C3C0",
"a.	c #C0C0BD",
"b.	c #707070",
"c.	c #4C4C4C",
"d.	c #3B3B3A",
"e.	c #393938",
"f.	c #383837",
"g.	c #3A3A3A",
"h.	c #3C3C3A",
"i.	c #3C3C3B",
"                                ",
"  . + + + + + + + + + + @ #     ",
"  . $ % & & & * * * $ % = - ;   ",
"  . $ > , ' ) ! ! ~ ) { ] ^ /   ",
"  . > ( _ : < [ } | 1 2 3 4 5   ",
"  . 6 7 8 9 0 a b 2 c d e f g   ",
"h i i i j k 9 l m n o o o p q   ",
"i r s s t k u 9 v w x y z A B   ",
"C D E E E E E E F G H I A J q   ",
"K L M M M M M N O P Q R S T U   ",
"V W X X Y M Z ` P  ...+.T @.U   ",
"  . #.$.%.N &.*.=.-.;.>.,.'.5   ",
"  . ).!.~.{.]. .^.Q /./...(.U   ",
"  . _.:.<.U [.}.|.Q 1.2.3.4.5   ",
"  . _.5.6.7.8.9.Q 0.|.a.9.2.b.  ",
"  . c.d.e.f.g.d.h.d.d.d.d.i.<.  "};
