/* XPM */
static const char * menu_previous_part_xpm[] = {
"16 16 140 2",
"  	c None",
". 	c #373737",
"+ 	c #8E8E8E",
"@ 	c #AAAAAA",
"# 	c #000000",
"$ 	c #121212",
"% 	c #A4A4A4",
"& 	c #C2C2C2",
"* 	c #FBFBFB",
"= 	c #FCFCFC",
"- 	c #FDFDFD",
"; 	c #FEFEFE",
"> 	c #181818",
", 	c #616160",
"' 	c #B6B6B6",
") 	c #F8F8F7",
"! 	c #F7F7F7",
"~ 	c #F8F8F8",
"{ 	c #F9F9F9",
"] 	c #E5E5E5",
"^ 	c #9D9D9D",
"/ 	c #FAFAFA",
"( 	c #787878",
"_ 	c #E0E0E0",
": 	c #EBEBEB",
"< 	c #EDEDED",
"[ 	c #F1F1F0",
"} 	c #F4F4F3",
"| 	c #F5F5F5",
"1 	c #EFEFEE",
"2 	c #D5D5D4",
"3 	c #595D61",
"4 	c #0D1115",
"5 	c #F3F3F3",
"6 	c #808080",
"7 	c #E4E4E2",
"8 	c #E7E7E6",
"9 	c #E8E8E7",
"0 	c #EBEBEA",
"a 	c #EAEAEA",
"b 	c #D0D0CF",
"c 	c #5E5E5E",
"d 	c #617E99",
"e 	c #2E3A45",
"f 	c #E6E6E6",
"g 	c #F2F2F2",
"h 	c #7C7C7C",
"i 	c #DADAD9",
"j 	c #DDDDDB",
"k 	c #DADAD7",
"l 	c #C3C3C2",
"m 	c #515659",
"n 	c #93B8DA",
"o 	c #5E6E7D",
"p 	c #43494F",
"q 	c #16181A",
"r 	c #7D7D7D",
"s 	c #DADAD8",
"t 	c #DFDFDC",
"u 	c #E0E0DE",
"v 	c #DEDEDC",
"w 	c #BCBCBA",
"x 	c #585858",
"y 	c #90B5D7",
"z 	c #9FC0DE",
"A 	c #A5C4E0",
"B 	c #B2CCE5",
"C 	c #D4D4D2",
"D 	c #D8D8D5",
"E 	c #CBCBC9",
"F 	c #60605F",
"G 	c #3C566E",
"H 	c #789EC0",
"I 	c #8AABC8",
"J 	c #3A4148",
"K 	c #7B7B7A",
"L 	c #D1D1CF",
"M 	c #D6D6D3",
"N 	c #D2D2CF",
"O 	c #C3C3BF",
"P 	c #7A7A78",
"Q 	c #212932",
"R 	c #355D82",
"S 	c #416A8C",
"T 	c #537896",
"U 	c #273139",
"V 	c #CFCFCD",
"W 	c #D1D1CD",
"X 	c #C8C8C4",
"Y 	c #9F9F9C",
"Z 	c #202932",
"` 	c #2E5172",
" .	c #33526D",
"..	c #2B475D",
"+.	c #375064",
"@.	c #1A2126",
"#.	c #CACAC7",
"$.	c #C4C4C1",
"%.	c #C0C0BB",
"&.	c #BDBDB9",
"*.	c #B1B1AE",
"=.	c #9A9A97",
"-.	c #656564",
";.	c #1E262F",
">.	c #16232F",
",.	c #5E5E5C",
"'.	c #6D6D6C",
").	c #CECECA",
"!.	c #C5C5C1",
"~.	c #BABAB6",
"{.	c #7D7D7C",
"].	c #202831",
"^.	c #08111A",
"/.	c #B4B4B2",
"(.	c #D2D2D2",
"_.	c #C7C7C3",
":.	c #C6C6C2",
"<.	c #C2C2BF",
"[.	c #C4C4C0",
"}.	c #C2C2BE",
"|.	c #B6B6B2",
"1.	c #A1A19E",
"2.	c #202020",
"3.	c #C7C7C4",
"4.	c #ECECEB",
"5.	c #707070",
"6.	c #C1C1BE",
"7.	c #C0C0BD",
"8.	c #C3C3C0",
"9.	c #B9B9B6",
"0.	c #ACACA9",
"a.	c #B3B3B1",
"b.	c #C3C3C1",
"c.	c #3C3C3B",
"d.	c #3B3B3A",
"e.	c #3C3C3A",
"f.	c #3A3A3A",
"g.	c #383837",
"h.	c #393938",
"i.	c #4C4C4C",
"                                ",
"    . + @ @ @ @ @ @ @ @ @ @ #   ",
"  $ % & * = - - - ; ; ; * = #   ",
"  > , ' ) ! ~ { { ! ] ^ / = #   ",
"  ( _ : < [ } | 1 2 3 4 5 / #   ",
"  6 7 8 9 0 < a b c d e f g #   ",
"  h i j j j k l m d n o p p p q ",
"  r s t u v w x d y n z A A B p ",
"  h C s D E F G H H H H H H I J ",
"  K L M N O P Q R S S S S S T U ",
"  K V L W X Y P Z ` S  .....+.@.",
"  ( #.$.%.&.*.=.-.;.R >.,.'.#   ",
"  K ).X !.!.O ~.Y {.].^./.(.#   ",
"  ( _.:.<.[.O }.|.1.K 2.3.4.#   ",
"  5.<.6.7.}.8.O 6.9.0.a.b.4.#   ",
"  2.c.d.d.d.d.e.d.f.g.h.d.i.#   "};
