/* XPM */
static char * mini_dir_closed_xpm[] = {
"16 16 7 1",
" 	c None",
".	c #020204",
"+	c #8E7B5E",
"@	c #BDA27C",
"#	c #AA9274",
"$	c #2E2E2C",
"%	c #D2B68C",
"                ",
"                ",
"          ..    ",
"        ..@+.   ",
"  ... ..%@@#.   ",
" .#%..%%%@@#+.  ",
" .%..%%@@@##+.  ",
" ..%%%%%@@##++. ",
"  .%%%%@@###++. ",
"  .#%%@@####+.. ",
"   .%#@###+..   ",
"   .#@##+..     ",
"    $#+..       ",
"    ...         ",
"                ",
"                "};
