/* XPM */
static char * mini_dir_open_xpm[] = {
"16 16 7 1",
" 	c None",
".	c #030305",
"+	c #A18D71",
"@	c #CECECC",
"#	c #BEA482",
"$	c #716451",
"%	c #FEFEFC",
"                ",
"                ",
"          ..    ",
"        ..@+... ",
"  ... ..@%%..+. ",
" .#%..@%%..+#+. ",
" .@%%%%..+##++. ",
" ..%+..++##+++. ",
"  .@.+#####+$+. ",
"  .$.####+++$.. ",
"   ..###++$..   ",
"   ..##+$..     ",
"    .#$..       ",
"    ...         ",
"                ",
"                "};
