/* XPM */
static char * multipart_xpm[] = {
"16 16 73 1",
" 	c None",
".	c #5D5D5D",
"+	c #737373",
"@	c #383838",
"#	c #717170",
"$	c #AAAAAA",
"%	c #B5B5B4",
"&	c #B1B1B0",
"*	c #ABABAA",
"=	c #2B2B2B",
"-	c #CECECE",
";	c #797979",
">	c #A9A9A9",
",	c #AEAEAE",
"'	c #ADADAD",
")	c #ACACAC",
"!	c #5F5F5F",
"~	c #565656",
"{	c #6A6A6A",
"]	c #7C7C7C",
"^	c #A0A0A0",
"/	c #ABABAB",
"(	c #454545",
"_	c #A1A1A1",
":	c #B2B2B2",
"<	c #B9B9B9",
"[	c #B7B7B7",
"}	c #B8B8B7",
"|	c #414141",
"1	c #C8C8C8",
"2	c #C2C2C2",
"3	c #CCCCCB",
"4	c #CACACA",
"5	c #C7C7C6",
"6	c #C3C3C3",
"7	c #BEBEBD",
"8	c #252525",
"9	c #E1E1E1",
"0	c #DFDFDF",
"a	c #DCDCDC",
"b	c #DBDBDB",
"c	c #D9D9D8",
"d	c #D4D4D3",
"e	c #CACAC9",
"f	c #979797",
"g	c #B1B1B1",
"h	c #EFEFEF",
"i	c #EAEAEA",
"j	c #E7E7E7",
"k	c #E3E3E3",
"l	c #DEDEDE",
"m	c #D7D7D7",
"n	c #D1D1D1",
"o	c #AFAFAF",
"p	c #212121",
"q	c #6F6F6F",
"r	c #FBFBFB",
"s	c #F6F6F6",
"t	c #F1F1F1",
"u	c #EBEBEB",
"v	c #E5E5E5",
"w	c #BDBDBD",
"x	c #585858",
"y	c #020202",
"z	c #FFFFFF",
"A	c #FDFDFD",
"B	c #F3F3F3",
"C	c #A7A7A7",
"D	c #464646",
"E	c #000000",
"F	c #888888",
"G	c #747474",
"H	c #181818",
"                ",
"                ",
"                ",
"        .+      ",
"    @#$%&*      ",
"   =-;>,')!     ",
"   ~{]^',)/     ",
"   (__:<<[}{    ",
"   |121345678   ",
"    90abcd-ef   ",
"    ghijklmnop  ",
"    qrstuvwxy   ",
"    @zABCDEEE   ",
"     FGHEE      ",
"                ",
"                "};
