/* XPM */
static char * next_flagged_menu_xpm[] = {
"16 16 47 1",
" 	c None",
".	c #323432",
"+	c #A3A5A3",
"@	c #9A9E99",
"#	c #3D403C",
"$	c #54221F",
"%	c #AAAAAA",
"&	c #F2F6F1",
"*	c #EFF3EE",
"=	c #ABB3A9",
"-	c #474B46",
";	c #6F2E29",
">	c #A7453E",
",	c #381715",
"'	c #F0F4F0",
")	c #ECF1EB",
"!	c #E1EADF",
"~	c #989D96",
"{	c #484C47",
"]	c #9EA49B",
"^	c #CCDBC9",
"/	c #C7D8C3",
"(	c #C0D2BC",
"_	c #BBCFB6",
":	c #BCCDB8",
"<	c #5C6C58",
"[	c #000000",
"}	c #677D60",
"|	c #85AB7C",
"1	c #85AA7D",
"2	c #84A87A",
"3	c #7DA274",
"4	c #5E8155",
"5	c #30412C",
"6	c #11190F",
"7	c #301412",
"8	c #647B5E",
"9	c #82A878",
"0	c #779C6C",
"a	c #537449",
"b	c #344D2D",
"c	c #210E0C",
"d	c #5A7355",
"e	c #5F8556",
"f	c #2C4027",
"g	c #111B0E",
"h	c #1C2D17",
"                ",
"                ",
"                ",
"                ",
" .              ",
" +@#        $   ",
" %&*=-     ;>,  ",
" %'*)!~{   ;>,  ",
" ]^^/(_:<[ ;;   ",
" }|123456  ;7   ",
" 890ab[   c,    ",
" defg     ,>[   ",
" h[        [    ",
"                ",
"                ",
"                "};
