/* XPM */
static char * next_unread_menu_xpm[] = {
"16 16 77 1",
" 	c None",
".	c #323432",
"+	c #747474",
"@	c #808080",
"#	c #A3A5A3",
"$	c #9A9E99",
"%	c #3D403C",
"&	c #969696",
"*	c #D6D6D6",
"=	c #A5A5A5",
"-	c #656565",
";	c #AAAAAA",
">	c #F2F6F1",
",	c #EFF3EE",
"'	c #ABB3A9",
")	c #474B46",
"!	c #666666",
"~	c #DDDDDD",
"{	c #F4F4F4",
"]	c #ECECEC",
"^	c #939393",
"/	c #7E7E7E",
"(	c #F0F4F0",
"_	c #ECF1EB",
":	c #E1EADF",
"<	c #989D96",
"[	c #6F726E",
"}	c #888888",
"|	c #F3F3F3",
"1	c #F1F1F1",
"2	c #D1D1D1",
"3	c #A6A6A6",
"4	c #6A6A6A",
"5	c #9EA49B",
"6	c #CCDBC9",
"7	c #C7D8C3",
"8	c #C0D2BC",
"9	c #BBCFB6",
"0	c #BCCDB8",
"a	c #5C6C58",
"b	c #000000",
"c	c #DCDCDC",
"d	c #D9D9D9",
"e	c #D8D8D8",
"f	c #C6C6C6",
"g	c #677D60",
"h	c #85AB7C",
"i	c #85AA7D",
"j	c #84A87A",
"k	c #7DA274",
"l	c #5E8155",
"m	c #30412C",
"n	c #363D35",
"o	c #7C7C7C",
"p	c #B9B9B9",
"q	c #ACACAC",
"r	c #919191",
"s	c #757575",
"t	c #647B5E",
"u	c #82A878",
"v	c #779C6C",
"w	c #537449",
"x	c #344D2D",
"y	c #2C2C2C",
"z	c #B5B5B5",
"A	c #A9A9A9",
"B	c #8A8A8A",
"C	c #5A7355",
"D	c #5F8556",
"E	c #2C4027",
"F	c #111B0E",
"G	c #838383",
"H	c #B2B2B2",
"I	c #8E8E8E",
"J	c #1C2D17",
"K	c #6F6F6F",
"L	c #727272",
"                ",
"                ",
"                ",
"                ",
" .    +@        ",
" #$%  &*=-      ",
" ;>,')!~{]^/    ",
" ;(,_:<[}|1234  ",
" 5667890abcdef- ",
" ghijklmnopqrs  ",
" tuvwxy^zAB+    ",
" CDEF GHIs      ",
" Jb   KL        ",
"                ",
"                ",
"                "};
