/* XPM */
static char * next_unread_menu_xpm[] = {
"16 15 82 1",
" 	c None",
".	c #000000",
"+	c #656565",
"@	c #E1EADF",
"#	c #EDEDED",
"$	c #FFFFFF",
"%	c #F0F4EF",
"&	c #D4E0D1",
"*	c #F5F5F5",
"=	c #E6E6E6",
"-	c #F3F7F3",
";	c #EDF2EB",
">	c #CEDCCB",
",	c #F7F7F7",
"'	c #F3F3F3",
")	c #E3E3E3",
"!	c #F4F7F4",
"~	c #F1F5F0",
"{	c #EFF3EE",
"]	c #EBF1EA",
"^	c #C9D8C5",
"/	c #F6F6F6",
"(	c #F4F4F4",
"_	c #E0E0E0",
":	c #E5ECE3",
"<	c #CBDAC7",
"[	c #181818",
"}	c #EFEFEF",
"|	c #E1E1E1",
"1	c #737373",
"2	c #2B2B2B",
"3	c #E4EBE2",
"4	c #DEE7DC",
"5	c #D7E3D5",
"6	c #EEF3ED",
"7	c #B1C7AC",
"8	c #EEEEEE",
"9	c #EBEBEB",
"0	c #E8E8E8",
"a	c #D3D3D3",
"b	c #9DBB90",
"c	c #88AC80",
"d	c #83AA7C",
"e	c #85A879",
"f	c #7EA476",
"g	c #84A778",
"h	c #759B6C",
"i	c #59814F",
"j	c #3A5934",
"k	c #BABABA",
"l	c #B9B9B9",
"m	c #B3B3B3",
"n	c #A2A2A2",
"o	c #8E8E8E",
"p	c #9ABB8F",
"q	c #83AA7A",
"r	c #87AC7D",
"s	c #82A87B",
"t	c #86A97C",
"u	c #759C6D",
"v	c #537C49",
"w	c #445840",
"x	c #BBBBBB",
"y	c #BCBCBC",
"z	c #9F9F9F",
"A	c #919191",
"B	c #80A776",
"C	c #749868",
"D	c #4B7040",
"E	c #BDBDBD",
"F	c #B1B1B1",
"G	c #999999",
"H	c #90B387",
"I	c #749A6B",
"J	c #3B5E31",
"K	c #C2C2C2",
"L	c #B2B2B2",
"M	c #5D8554",
"N	c #37592F",
"O	c #A5A5A5",
"P	c #8D8D8D",
"Q	c #3F6534",
"                ",
"                ",
"                ",
" .              ",
" ..   +++       ",
" .%.. +*=+      ",
" .!{]..,/'/++   ",
" .{{]45678809a+ ",
" .ccdfgijkkkmo+ ",
" .reCD.ElFz++   ",
" .B...+lLo+     ",
" ..   +++       ",
" .              ",
"                ",
"                "};
