/* XPM */
static char * next_flagged_menu_xpm[] = {
"16 16 40 1",
" 	c None",
".	c #000000",
"+	c #787A78",
"@	c #474B46",
"#	c #D3A29E",
"$	c #808080",
"%	c #F3F7F3",
"&	c #EEF3ED",
"*	c #CEDCCB",
"=	c #A7453E",
"-	c #F2F5F1",
";	c #F0F4EE",
">	c #EBF1EA",
",	c #E2EAE0",
"'	c #4C514A",
")	c #959595",
"!	c #EFF3EE",
"~	c #E1E9DF",
"{	c #D7E3D5",
"]	c #E6EDE4",
"^	c #B1C7AC",
"/	c #FFFFFF",
"(	c #4E5E48",
"_	c #86AB7D",
":	c #85AA7D",
"<	c #84A87A",
"[	c #80A476",
"}	c #6C9260",
"|	c #445D3F",
"1	c #1D2C1A",
"2	c #4D5E48",
"3	c #87AC7D",
"4	c #82A878",
"5	c #749868",
"6	c #4F7644",
"7	c #455741",
"8	c #6E9665",
"9	c #3F5C39",
"0	c #1D2F18",
"a	c #20331A",
"                ",
"                ",
"                ",
"  .             ",
"  ++@.       #  ",
"  $%&*.     #=# ",
"  $-;>,+'.  #=# ",
"  )!!>~{]^. #=/ ",
"  (_:<[}|1. ##  ",
"  23456..   /   ",
"  7890.    /=/  ",
"  a..       /   ",
"  .             ",
"                ",
"                ",
"                "};
