/* XPM */
static char * next_flagged_xpm[] = {
"24 24 50 1",
" 	c None",
".	c #000000",
"+	c #E1EADF",
"@	c #FFFFFF",
"#	c #F0F4EF",
"$	c #D4E0D1",
"%	c #A7453E",
"&	c #F3F7F3",
"*	c #EDF2EB",
"=	c #CEDCCB",
"-	c #F4F7F4",
";	c #F1F5F0",
">	c #EFF3EE",
",	c #EBF1EA",
"'	c #C9D8C5",
")	c #E5ECE3",
"!	c #CBDAC7",
"~	c #181818",
"{	c #2B2B2B",
"]	c #E4EBE2",
"^	c #DEE7DC",
"/	c #D7E3D5",
"(	c #EEF3ED",
"_	c #B1C7AC",
":	c #9DBB90",
"<	c #88AC80",
"[	c #83AA7C",
"}	c #85A879",
"|	c #7EA476",
"1	c #84A778",
"2	c #759B6C",
"3	c #59814F",
"4	c #3A5934",
"5	c #9ABB8F",
"6	c #83AA7A",
"7	c #87AC7D",
"8	c #82A87B",
"9	c #86A97C",
"0	c #759C6D",
"a	c #537C49",
"b	c #445840",
"c	c #80A776",
"d	c #749868",
"e	c #4B7040",
"f	c #90B387",
"g	c #749A6B",
"h	c #3B5E31",
"i	c #5D8554",
"j	c #37592F",
"k	c #3F6534",
"                        ",
"                        ",
"                        ",
"                        ",
"                        ",
"                        ",
" ..                     ",
" .+..             .     ",
" .@#$..          .%.    ",
" .@&*#=..       .%%%.   ",
" .@-;>,;'..     .%%%.   ",
" .@>>>,,)#!~.   .%%%.   ",
" {@>>>,]^/^(_.. .%%.    ",
" .:<[<[}|1234.. .%%.    ",
" .5678190ab..   .%.     ",
" .57c}dae..     ..      ",
" .fcgah..      .%%.     ",
" .[ij..        .%%.     ",
" .k..           ..      ",
" ..                     ",
"                        ",
"                        ",
"                        ",
"                        "};
