/* XPM */
static char *openfolder[] = {
/* width height num_colors chars_per_pixel */
"    17    15        9            1",
/* colors */
". c #7f7f7f",
"# c #903000",
"a c #906700",
"b c #90672f",
"c c #cf9760",
"d c #efd7c0",
"e c #ffc890",
"f c #ffffcf",
"g c #ffffff",
/* pixels */
"ggggggggggggggggg",
"ggggggggfedgggggg",
"cfgggggfeeeaggggg",
"accfgggfeeeaggggg",
"accccffeeeeedcggg",
"gacccccfeeeeeed#g",
"gaccccccfeeeeee#g",
"ggacccccaeeeeee#g",
"ggacccccaeeeee#gg",
"gggacccccaeeeecgg",
"gggbbccccaeee#ggg",
"gggggbbcccaeec.gg",
"gggggggbbcae#...g",
"gggggggggbbac..gg",
"ggggggggggga.gggg"
};
