/* XPM */
static const char * other_close_xpm[] = {
"9 9 29 1",
" 	c None",
".	c #B6B2BE",
"+	c #BEBAC6",
"@	c #B1ADB9",
"#	c #5C5E60",
"$	c #949698",
"%	c #E3E3E7",
"&	c #2D3135",
"*	c #151516",
"=	c #7D7A83",
"-	c #0F100F",
";	c #4A4C4E",
">	c #060706",
",	c #525455",
"'	c #060606",
")	c #3E3E3E",
"!	c #373837",
"~	c #020302",
"{	c #5F6366",
"]	c #88868E",
"^	c #252525",
"/	c #7C7E80",
"(	c #202020",
"_	c #4D5053",
":	c #66676C",
"<	c #A6A2AE",
"[	c #AEAAB6",
"}	c #2C2B2D",
"|	c #3D3F40",
"         ",
"  .  +@  ",
"  #$%&*= ",
"   -;>,  ",
"   ,')   ",
"   !~~{  ",
"  ]^/(>_ ",
"  :< [}| ",
"         "};
