/* XPM */
static const char * other_enabled_xpm[] = {
"16 16 6 1",
" 	c None",
".	c #000000",
"+	c #0C2D0C",
"@	c #2AA02C",
"#	c #3BDE3E",
"$	c #3EE841",
"                ",
"                ",
"      ....      ",
"    ........    ",
"   ..+@##@+..   ",
"   .+#$$$$#+.   ",
"  ..@$$$$$$@..  ",
"  ..#$$$$$$#..  ",
"  ..#$$$$$$#..  ",
"  ..@$$$$$$@..  ",
"   .+#$$$$#+.   ",
"   ..+@##@+..   ",
"    ........    ",
"      ....      ",
"                ",
"                "};
