/* XPM */
static char *outbox_xpm[] = {
/* columns rows colors chars-per-pixel */
"16 16 17 1",
"  c Gray0",
". c #004a68",
"X c Gray37",
"o c #606060",
"O c Gray41",
"+ c Gray57",
"@ c #939393",
"# c Gray60",
"$ c #aaaaaa",
"% c #b2b2b2",
"& c Gray71",
"* c #d2d2d2",
"= c #e4e4e4",
"- c Gray90",
"; c #e9e9e9",
": c Gray100",
"> c None",
/* pixels */
">>>>>>>>>>>>>>>>",
">>>>>>>> >>>....",
">>>>>>  # >>>...",
">>>>  ###: >....",
">>  ####X::...>.",
"  ####Xo&o...>>>",
" : #Xo&--...: >>",
" :: $&----.o:: >",
" ::: &&-----o:@ ",
"> ::: &&-----o; ",
">> ::: &&----%o ",
">>> ::: &*-%%%# ",
">>>> ::+O%%%#  >",
">>>>> := %#  >>>",
">>>>>> :   >>>>>",
">>>>>>>  >>>>>>>"
};
