/* XPM */
static char * p1_xpm[] = {
"27 27 5 1",
" 	c None",
".	c #000000000000",
"X	c #FFFFFFFFFFFF",
"o	c #BEFBBEFBBEFB",
"O	c #79E77DF779E7",
"                           ",
"                           ",
"          .....            ",
"       ...XX   ....        ",
"      .XXXo...     .       ",
"     .XXX .OOO.     .      ",
"     .XX            .      ",
"     ..XX          ..      ",
"     . ...     ....O.      ",
"      .   .....OOOO.       ",
"      ....oooOO.....       ",
"      .XXo.....OOOO.       ",
"      .X.ooooOOOO.O.       ",
"      .X.oo.oO.OO.O.       ",
"      .X.oo.oO.OO.O.       ",
"      .X.oo.oO.OO.O.       ",
"      .X.oo.oO.OO.O.       ",
"      .X.oo.oO.OO.O.       ",
"      .X.oo.oO.OO.O.       ",
"      .X.oo.oO.OO.O.       ",
"      .XXoo.oO.OOOO.       ",
"       .Xoo.oO.OOO.        ",
"        ..oooOOO..         ",
"          ......           ",
"                           ",
"                           ",
"                           "};
