/* XPM */
static char * p10_xpm[] = {
"27 27 3 1",
" 	c None",
".	c #0000000079E7",
"X	c #79E77DF779E7",
"                           ",
"                           ",
"                           ",
"                           ",
"          .                ",
"         ..                ",
"        ...                ",
"       ....                ",
"      .......... XXXX X    ",
"     ...........           ",
"    ............ XXXX X    ",
"   .............           ",
"  .............. XXXX X    ",
"  X.............           ",
" XXX............ XXXX X    ",
"  XXX...........           ",
"   XXX.......... XXXX X    ",
"    XXX....XXXX            ",
"     XXX...XXXX            ",
"      XXX..                ",
"       XXX.                ",
"        XX                 ",
"         X                 ",
"                           ",
"                           ",
"                           ",
"                           "};
