/* XPM */
static char * p11_xpm[] = {
"27 27 3 1",
" 	c None",
".	c #79E700000000",
"X	c #79E77DF779E7",
"                           ",
"                           ",
"                           ",
"                           ",
"               .           ",
"               ..          ",
"               ...         ",
"               ....        ",
"   X XXXX ..........       ",
"          ...........      ",
"   X XXXX ............     ",
"          .............    ",
"   X XXXX ..............   ",
"          .............X   ",
"   X XXXX ............XXX  ",
"          ...........XXX   ",
"   X XXXX ..........XXX    ",
"           XXXX....XXX     ",
"           XXXX...XXX      ",
"               ..XXX       ",
"               .XXX        ",
"                XX         ",
"                X          ",
"                           ",
"                           ",
"                           ",
"                           "};
