/* XPM */
static char * p12_xpm[] = {
"27 27 9 1",
" 	c None",
".	c #79E700000000",
"X	c #000000000000",
"o	c #FFFFFFFFFFFF",
"O	c #00007DF779E7",
"+	c #BEFBBEFBBEFB",
"@	c #79E77DF779E7",
"#	c #FFFFFFFF0000",
"$	c #79E77DF70000",
"                           ",
"                           ",
"           ...             ",
"          .. ..            ",
"         ..   ..           ",
"         ..   ..           ",
"       XX..XXXXXXXXXX      ",
"      Xoo..oooooooO+@X     ",
"      Xoo..ooooooOoO@X     ",
"     XXXX..XXXXXXoO+@X     ",
"    Xoo##..o#..oXoo+@X     ",
"    X##oo..#o..#Xoo+@X     ",
"    Xo$$$..$$..oX+++@X     ",
"    X#o#o..#o..#X@@@@X     ",
"    Xo$$$..$$..oXXXXX      ",
"    X#o#o..#o..#X          ",
"    Xo$$$..$$..oX          ",
"    X#o#o#....o#X          ",
"    Xo$$$$$..$#oX          ",
"    X#o#o#o#o#o#X          ",
"    Xo$$$$$$$$#oX          ",
"    X#o#o#o#o#o#X          ",
"    Xo#o#o#o#o#oX          ",
"     XXXXXXXXXXX           ",
"                           ",
"                           ",
"                           "};
