/* XPM */
static char * p13_xpm[] = {
"27 27 4 1",
" 	c None",
".	c #861700000000",
"X	c #861782078617",
"o	c #000000000000",
"                           ",
"                           ",
"                .....      ",
"              ....         ",
"      .     .... XXXXX     ",
"     ...   ....XXXX        ",
"    ..... ....XXX          ",
"     ........XXX           ",
"     X......XXX            ",
"      X....XXX             ",
"       X...XX              ",
"        X.XX               ",
"         XXX               ",
"                           ",
"     ooo   oooo   ooooo    ",
"     ooo   oo oo oo        ",
"     ooo   oo oo oo        ",
"    oo oo  oooo  oo        ",
"    oo oo  oo oo oo        ",
"    ooooo  oo oo oo        ",
"   oo   oo oo oo oo        ",
"   oo   oo oooo   ooooo    ",
"                           ",
"                           ",
"                           ",
"                           ",
"                           "};
