/* XPM */
static char * p14_xpm[] = {
"27 27 6 1",
" 	c None",
".	c #000000000000",
"X	c #FFFFFFFFFFFF",
"o	c #00007DF779E7",
"O	c #FFFFFFFF0000",
"+	c #0000FFFFFFFF",
"                           ",
"                           ",
"                           ",
"       ..............      ",
"      .XXXXXXXXXXXXXX.     ",
"      .............XX.     ",
"     .ooooooooooooo...     ",
"     .oooOoOoOoOooo.++.    ",
"    ...oO.......Ooo.++.    ",
"     .oooOXXXXXOooo.++.    ",
"    ...oO.......Ooo...     ",
"     .oooOXXXXXOooo.X.     ",
"    ...oO.......Ooo...     ",
"     .oooOoOoOoOooo.OO.    ",
"    ...oooooooooooo.OO.    ",
"     .ooooooooooooo.OO.    ",
"    ...oooooooooooo...     ",
"     .ooooooooooooo.X.     ",
"    ...oooooooooooo...     ",
"     .ooooooooooooo.XX.    ",
"    ...oooooooooooo.XX.    ",
"     .ooooooooooooo.XX.    ",
"     .ooooooooooooo...     ",
"      .............        ",
"                           ",
"                           ",
"                           "};
