/* XPM */
static char * p15_xpm[] = {
"27 27 8 1",
" 	c None",
".	c #000000000000",
"X	c #FFFFFFFFFFFF",
"o	c #79E77DF70000",
"O	c #79E77DF779E7",
"+	c #BEFBBEFBBEFB",
"@	c #FFFF00000000",
"#	c #00007DF779E7",
"                           ",
"                           ",
"                           ",
"                           ",
"          .........        ",
"         .XXXXXXXXX.       ",
"         .XooooooXX.       ",
"        .XXXXXXXXX.        ",
"        .XooooooXX.        ",
"       .XXXXXXXXX....      ",
"       .XooooooXX. . .     ",
"      .XXXXXXXXXX.. ..     ",
"     ............. .O.     ",
"    .             .OO.     ",
"    ...............OO.     ",
"    .+++++++++++++.OO.     ",
"    .+++++++@###++.O.      ",
"    .+++++++++++++...      ",
"    ...............O.      ",
"      .+++++++++.OO.       ",
"      .+++++++++.O.        ",
"       ...........         ",
"                           ",
"                           ",
"                           ",
"                           ",
"                           "};
