/* XPM */
static char * p16_xpm[] = {
"27 27 4 1",
" 	c None",
".	c #79E700000000",
"X	c #79E77DF779E7",
"o	c #000000000000",
"                           ",
"                           ",
"                           ",
"                           ",
"             ........      ",
"            ..XXX.....     ",
"           ..XX   .....    ",
"           .....  .....X   ",
"           .....X .....X   ",
"    o       ...XX .....X   ",
"    oo       XXX .....XX   ",
"    ooo          ...XXX    ",
"    oooo        ...XX      ",
"    ooooo      ...XX       ",
"    oooooo     ...X        ",
"    ooooooo     XXX        ",
"    oooooooo   ...         ",
"    oooooXXXX .....        ",
"    ooXooX     ...XX       ",
"    oXX oo      XXX        ",
"     X  ooX                ",
"         oo                ",
"         ooX               ",
"          XX               ",
"                           ",
"                           ",
"                           "};
