/* XPM */
static char * p2_xpm[] = {
"27 27 9 1",
" 	c None",
".	c #79E700000000",
"X	c #000000000000",
"o	c #FFFFFFFFFFFF",
"O	c #79E77DF779E7",
"+	c #BEFBBEFBBEFB",
"@	c #FFFFFFFF0000",
"#	c #79E77DF70000",
"$	c #00007DF779E7",
"                           ",
"   .    .                  ",
"  ...  ..         X        ",
" ........        XoX       ",
"  .......       XoXoX      ",
"   ......      XoXOXoX     ",
"   ......     XoXOXoooX    ",
"  .......    XoooXoooooX   ",
" ........   Xooooooooo+OX  ",
"          XXooooooooo+OX   ",
"        XXXooo@Ooooo+OX    ",
"      XX+Xooo@O@Ooo+OX     ",
"    XX+@XooO@O@Ooo+OX#XX   ",
"  XX@+@XooO@O@Ooo+OX####X  ",
"  X$X@XooooO@Ooo+OX###XXX  ",
"  X$$XooooooOoo+OX##XX$$X  ",
"  X$$Xoooooooo+OX#XX$$$$X  ",
"  X$$XoooXXoo+OXXX$$$$$$X  ",
"  X$$$XXoX$XXOXX$$$$$$$$X  ",
"  XX$$$$XX$$$X$$$$$$$$$XX  ",
"    XX$$$$$$$X$$$$$$$XX    ",
"      XX$$$$$X$$$$$XX      ",
"        XX$$$X$$$XX        ",
"          XX$X$XX          ",
"            XXX            ",
"                           ",
"                           "};
