/* XPM */
static char * p3_xpm[] = {
"27 27 9 1",
" 	c None",
".	c #000000000000",
"X	c #0000000079E7",
"o	c #FFFFFFFFFFFF",
"O	c #79E77DF779E7",
"+	c #BEFBBEFBBEFB",
"@	c #FFFFFFFF0000",
"#	c #79E77DF70000",
"$	c #00007DF779E7",
"                           ",
"                           ",
"       .        XXXXXXXX   ",
"      .o.        XXXXXXX   ",
"     .o.o.        XXXXXX   ",
"    .o.O.o.       XXXXXX   ",
"   .ooo.O.o.     XXXXXXX   ",
"  .ooooo.ooo.   XXXXXXXX   ",
" .O+ooooooooo.   XXX  XX   ",
"  .O+ooooooooo..  X    X   ",
"   .O+ooooO@ooo...         ",
"    .O+ooO@O@ooo. ..       ",
"  ..#.O+ooO@O@Ooo.@ ..     ",
" .####.O+ooO@O@Ooo.@+@..   ",
" ...###.O+ooO@Ooooo.@.$.   ",
" .$$..##.O+ooOoooooo.$$.   ",
" .$$$$..#.O+oooooooo.$$.   ",
" .$$$$$$...O+oo..ooo.$$.   ",
" .$$$$$$$$..O..$.o..$$$.   ",
" ..$$$$$$$$$.$$$..$$$$..   ",
"   ..$$$$$$$.$$$$$$$..     ",
"     ..$$$$$.$$$$$..       ",
"       ..$$$.$$$..         ",
"         ..$.$..           ",
"           ...             ",
"                           ",
"                           "};
