/* XPM */
static char * p4_xpm[] = {
"27 27 7 1",
" 	c None",
".	c #79E700000000",
"X	c #BEFBBEFBBEFB",
"o	c #79E77DF779E7",
"O	c #000000000000",
"+	c #FFFFFFFFFFFF",
"@	c #00007DF779E7",
"                           ",
"                           ",
"              .....        ",
"            ....           ",
"    .     ....Xooooo       ",
"   ...   ....oooo          ",
"  ..... ....ooo            ",
"   ........ooo             ",
"   o......ooo              ",
"    o....ooo               ",
"     o...oo                ",
"      o.oo                 ",
"       ooo                 ",
"        OOOOOOOOOOOOOOO    ",
"       O++++++++++++@XoO   ",
"       O+OOO+++++++@+@oO   ",
"       O++++++++++++@XoO   ",
"       O++++OOOOOO+++XoO   ",
"       O+++++++++++++XoO   ",
"       O++++OOOOOO+++XoO   ",
"       O+++++++++++++XoO   ",
"       OXXXXXXXXXXXXXXoO   ",
"       OoooooooooooooooO   ",
"        OOOOOOOOOOOOOOO    ",
"                           ",
"                           ",
"                           "};
