/* XPM */
static char * p5_xpm[] = {
"27 27 9 1",
" 	c None",
".	c #000000000000",
"X	c #79E700000000",
"o	c #FFFFFFFFFFFF",
"O	c #FFFFFFFF0000",
"+	c #79E77DF70000",
"@	c #00007DF779E7",
"#	c #BEFBBEFBBEFB",
"$	c #79E77DF779E7",
"                           ",
"                           ",
"                  ..       ",
"                 .XX.      ",
"                .XXX.      ",
"   ........... .oOX.       ",
"  .OoOoOoOoOo+.oO .        ",
"  .oOoOoOoOoO.oO .         ",
"  .O++++++++.oO .          ",
"  .oOoOoOoO.oO .           ",
"  .O++++++.oO ........     ",
"  .oOoOoO.oO ..oooo@#$.    ",
"  .O+++++.O .+.ooo@o@$.    ",
"  .oOoOo.#..O+.oooo@#$.    ",
"  .O++++..++o+...ooo#$.    ",
"  .oOoOoOoOoO+.ooooo#$.    ",
"  .O++++++++o+...ooo#$.    ",
"  .oOoOoOoOoO+.ooooo#$.    ",
"  .O++++++++o+.######$.    ",
"  .oOoOoOoOoO+.$$$$$$$.    ",
"  .O++++++++o+........     ",
"  .oOoOoOoOoO+.            ",
"  .+++++++++++.            ",
"   ...........             ",
"                           ",
"                           ",
"                           "};
