/* XPM */
static char * p6_xpm[] = {
"27 27 7 1",
" 	c None",
".	c #0000000079E7",
"X	c #79E77DF779E7",
"o	c #000000000000",
"O	c #FFFFFFFFFFFF",
"+	c #00007DF779E7",
"@	c #BEFBBEFBBEFB",
"                           ",
"       .                   ",
"      ..                   ",
"     ...                   ",
"    ...... XXXXX X X       ",
"   .......                 ",
"  ........ XXXXX X X       ",
"   .......                 ",
"    ...... XXXXX X X       ",
"     ...                   ",
"      ..                   ",
"       .                   ",
"                           ",
"        ooooooooooooooo    ",
"       oOOOOOOOOOOOO+@Xo   ",
"       oOoooOOOOOOO+O+Xo   ",
"       oOOOOOOOOOOOO+@Xo   ",
"      oOOOOOooooooOO@Xo    ",
"      oOOOOOOOOOOOOO@Xo    ",
"      oOOOOOooooooOO@Xo    ",
"     oOOOOOOOOOOOOO@Xo     ",
"     o@@@@@@@@@@@@@@Xo     ",
"     oXXXXXXXXXXXXXXXo     ",
"      ooooooooooooooo      ",
"                           ",
"                           ",
"                           "};
