/* XPM */
static char * p8_xpm[] = {
"27 27 7 1",
" 	c None",
".	c #79E700000000",
"X	c #79E77DF779E7",
"o	c #000000000000",
"O	c #FFFFFFFFFFFF",
"+	c #00007DF779E7",
"@	c #BEFBBEFBBEFB",
"                           ",
"                  .        ",
"                  ..       ",
"                  ...      ",
"      X X XXXXX ......     ",
"                .......    ",
"      X X XXXXX ........   ",
"                .......    ",
"      X X XXXXX ......     ",
"                  ...      ",
"                  ..       ",
"                  .        ",
"                           ",
"        ooooooooooooooo    ",
"       oOOOOOOOOOOOO+@Xo   ",
"       oOoooOOOOOOO+O+Xo   ",
"       oOOOOOOOOOOOO+@Xo   ",
"      oOOOOOooooooOO@Xo    ",
"      oOOOOOOOOOOOOO@Xo    ",
"      oOOOOOooooooOO@Xo    ",
"     oOOOOOOOOOOOOO@Xo     ",
"     o@@@@@@@@@@@@@@Xo     ",
"     oXXXXXXXXXXXXXXXo     ",
"      ooooooooooooooo      ",
"                           ",
"                           ",
"                           "};
