/* XPM */
static char * preview_xpm[] = {
"24 24 112 2",
"  	c None",
". 	c #FFFF00",
"+ 	c #FFFFFF",
"@ 	c #000000",
"# 	c #7B7B78",
"$ 	c #C7C7C3",
"% 	c #F1F0EB",
"& 	c #BFBFBC",
"* 	c #5F5E5E",
"= 	c #E3E3DF",
"- 	c #F3F3EF",
"; 	c #F2F2EE",
"> 	c #F1F1EC",
", 	c #F0EFEB",
"' 	c #D2D2CD",
") 	c #969592",
"! 	c #616060",
"~ 	c #B5B5B4",
"{ 	c #F8F8F6",
"] 	c #F7F7F5",
"^ 	c #F5F5F2",
"/ 	c #F4F4F0",
"( 	c #F2F1ED",
"_ 	c #F1F0EC",
": 	c #F0EFEA",
"< 	c #EFEEE9",
"[ 	c #4F4F4D",
"} 	c #BDBCB8",
"| 	c #A7A6A3",
"1 	c #C6C6C4",
"2 	c #525251",
"3 	c #F5F4F1",
"4 	c #F4F3F0",
"5 	c #F3F2EE",
"6 	c #999894",
"7 	c #62625F",
"8 	c #BCBCB6",
"9 	c #EBE9E3",
"0 	c #838381",
"a 	c #A8A8A6",
"b 	c #515150",
"c 	c #7E7D7C",
"d 	c #DAD9D5",
"e 	c #EFEEE8",
"f 	c #EEEDE7",
"g 	c #4F4E4C",
"h 	c #BCBBB6",
"i 	c #EBE9E2",
"j 	c #EAE8E1",
"k 	c #F4F3EF",
"l 	c #B5B4B1",
"m 	c #9B9A97",
"n 	c #646361",
"o 	c #92918E",
"p 	c #EEEDE8",
"q 	c #EDECE6",
"r 	c #4E4E4C",
"s 	c #797976",
"t 	c #797874",
"u 	c #E9E8E1",
"v 	c #E8E7DF",
"w 	c #B4B3AF",
"x 	c #D0D0CD",
"y 	c #BFBEBA",
"z 	c #BEBDB9",
"A 	c #7A7A77",
"B 	c #979691",
"C 	c #EAE9E2",
"D 	c #959590",
"E 	c #787773",
"F 	c #B8B7B0",
"G 	c #E6E4DC",
"H 	c #A9A9A6",
"I 	c #626260",
"J 	c #ECEBE4",
"K 	c #EBEAE3",
"L 	c #E9E7E0",
"M 	c #E8E6DF",
"N 	c #E7E5DD",
"O 	c #777671",
"P 	c #93918C",
"Q 	c #BEBDB8",
"R 	c #989793",
"S 	c #ECEAE4",
"T 	c #E8E6DE",
"U 	c #E6E4DB",
"V 	c #E4E3DA",
"W 	c #75746F",
"X 	c #91908A",
"Y 	c #EEECE7",
"Z 	c #62615F",
"` 	c #EBEAE4",
" .	c #E7E6DE",
"..	c #E6E5DC",
"+.	c #E5E4DB",
"@.	c #E4E2DA",
"#.	c #CCCBC4",
"$.	c #A3A29D",
"%.	c #B6B5B2",
"&.	c #BCBCB7",
"*.	c #CDCCC6",
"=.	c #959490",
"-.	c #ECEBE5",
";.	c #61615E",
">.	c #E9E8E0",
",.	c #CECDC7",
"'.	c #797875",
").	c #969590",
"!.	c #CFCEC8",
"~.	c #AEADA8",
"{.	c #585754",
"].	c #7B7A76",
"                                                ",
"                                                ",
"                            @ @ @ @             ",
"                . . . . . @ # $ % & @           ",
"        @ @ . . @ * & = - . . , ' ) @           ",
"      @ ! . { ] ^ ^ / - ( _ : . [ } | @         ",
"      @ | . 2 3 3 4 5 ( % : < . 7 8 9 @         ",
"      @ . 9 a b c d ( % : e f g . i j @         ",
"        . j 3 k l m n o p q r s . u v w @       ",
"        . x - y _ , y z A r B C . E F G @       ",
"        . H ( _ : < I q J K j L . N O P @       ",
"        . @ % : e Q R S 9 j L T . U V W X @     ",
"          . , e Y Z ` C u v  .. +.@.#.$.@ @     ",
"          . %.q &.B C u v  .G . =.@ @ @         ",
"            . . ;.C >.M ,.. . . .               ",
"            @ '.. . . . . @   . . .             ",
"            @ {.].@ @           . . .           ",
"              @ @                 . . .         ",
"                                    . . .       ",
"                                      . .       ",
"                                                ",
"                                                ",
"                                                ",
"                                                "};
