/* XPM */
static char * reply_to_all_menu_xpm[] = {
"16 16 102 2",
"  	c None",
". 	c #000000",
"+ 	c #1B1B1B",
"@ 	c #444443",
"# 	c #4F4F4E",
"$ 	c #6C6C6A",
"% 	c #C4C4C0",
"& 	c #D5D4D0",
"* 	c #3B3B3A",
"= 	c #535353",
"- 	c #969695",
"; 	c #A4A4A3",
"> 	c #B9B8B6",
", 	c #E6E6E2",
"' 	c #F1F0EC",
") 	c #F0EFEA",
"! 	c #8C8C89",
"~ 	c #858482",
"{ 	c #A9A8A7",
"] 	c #7D7D7C",
"^ 	c #B8B7B6",
"/ 	c #E1E0DD",
"( 	c #F2F1ED",
"_ 	c #F1F0EB",
": 	c #EFEEE9",
"< 	c #A5A4A0",
"[ 	c #999994",
"} 	c #E0DFD8",
"| 	c #6C6B6A",
"1 	c #B5B4B1",
"2 	c #ACABA8",
"3 	c #9D9C99",
"4 	c #DAD9D5",
"5 	c #CAC9C4",
"6 	c #737370",
"7 	c #ADACA7",
"8 	c #E9E8E0",
"9 	c #5A5958",
"0 	c #414140",
"a 	c #E3E3DF",
"b 	c #F1F1EC",
"c 	c #F0EFEB",
"d 	c #AFAEAB",
"e 	c #AFAFAA",
"f 	c #92928D",
"g 	c #D7D6CF",
"h 	c #AAA9A4",
"i 	c #A19F99",
"j 	c #878681",
"k 	c #222221",
"l 	c #B4B3B0",
"m 	c #D9D8D3",
"n 	c #A8A7A3",
"o 	c #ECEAE4",
"p 	c #EAE8E1",
"q 	c #E9E7DF",
"r 	c #E7E5DD",
"s 	c #CDCBC3",
"t 	c #75746F",
"u 	c #292927",
"v 	c #939290",
"w 	c #E9E8E2",
"x 	c #979692",
"y 	c #EAE9E3",
"z 	c #E9E8E1",
"A 	c #E7E6DE",
"B 	c #E1E0D8",
"C 	c #BAB8B2",
"D 	c #8D8C88",
"E 	c #52514E",
"F 	c #343433",
"G 	c #C8C7C2",
"H 	c #B4B3AE",
"I 	c #B5B5AF",
"J 	c #A9A8A3",
"K 	c #8F8F8A",
"L 	c #474744",
"M 	c #2B2A29",
"N 	c #575654",
"O 	c #7D7D79",
"P 	c #7C7862",
"Q 	c #594E41",
"R 	c #E0D8B0",
"S 	c #706C58",
"T 	c #6A5D4D",
"U 	c #B69F84",
"V 	c #383128",
"W 	c #342D25",
"X 	c #2F2922",
"Y 	c #0F0D0B",
"Z 	c #2B251F",
"` 	c #1A1613",
" .	c #C2A98D",
"..	c #A79279",
"+.	c #9B8870",
"@.	c #8C7A66",
"#.	c #2D2720",
"$.	c #80705D",
"%.	c #211D18",
"&.	c #362F27",
"*.	c #A18C75",
"=.	c #332D25",
"                                ",
"                  . .           ",
"          + @ # $ % & *         ",
"    = - ; > , ' ' ) ! ~         ",
"  . { ] ^ / ( _ : < [ } .       ",
"    | / 1 2 3 4 5 6 7 8 9       ",
"    0 a b c d e f g h i j       ",
"    k l ) m n o p q r s t u     ",
"      v w x y z A B C D E .     ",
"      F G H I J K L M           ",
"      . N O P P .       P P     ",
"      Q .   P R S Q .   P R S   ",
"    T U V W X Y T U V W X Z `   ",
"  .  .U ..+.@.#. .U ..+.@.$.%.  ",
"    &.*.. . .   &.*.. . . .     ",
"      =..         =..           "};
