/* XPM */
static char * reply_to_group_menu_xpm[] = {
"16 16 123 2",
"  	c None",
". 	c #000000",
"+ 	c #232322",
"@ 	c #747471",
"# 	c #969592",
"$ 	c #373736",
"% 	c #2A2929",
"& 	c #4B4B4B",
"* 	c #525251",
"= 	c #7C7C7B",
"- 	c #D9D9D5",
"; 	c #EFEFEB",
"> 	c #F1F1ED",
", 	c #F0EFEB",
"' 	c #A5A5A1",
") 	c #5B5B59",
"! 	c #9D9D9C",
"~ 	c #8B8B8A",
"{ 	c #EAEAE7",
"] 	c #F5F4F1",
"^ 	c #F3F2EE",
"/ 	c #F2F1EC",
"( 	c #F0EFEA",
"_ 	c #C9C8C3",
": 	c #7C7C78",
"< 	c #CCCBC6",
"[ 	c #858583",
"} 	c #CCCCC9",
"| 	c #8A8A88",
"1 	c #B3B2AF",
"2 	c #C8C7C3",
"3 	c #E5E4E0",
"4 	c #DCDCD6",
"5 	c #7C7B78",
"6 	c #BDBBB6",
"7 	c #EAE8E1",
"8 	c #333332",
"9 	c #4A4948",
"0 	c #ECECE8",
"a 	c #EBEBE7",
"b 	c #D7D6D2",
"c 	c #A6A5A1",
"d 	c #82817E",
"e 	c #ADACA7",
"f 	c #92918C",
"g 	c #BAB9B2",
"h 	c #8E8D89",
"i 	c #30302F",
"j 	c #C7C6C2",
"k 	c #E4E3DE",
"l 	c #9C9C98",
"m 	c #ECEBE4",
"n 	c #EAE9E2",
"o 	c #E9E7E0",
"p 	c #E7E5DE",
"q 	c #B4B3AC",
"r 	c #6B6A66",
"s 	c #1D1D1C",
"t 	c #A0A09D",
"u 	c #EFEEE8",
"v 	c #A5A4A0",
"w 	c #D8D7D2",
"x 	c #E8E7DF",
"y 	c #E7E6DD",
"z 	c #E5E4DB",
"A 	c #DAD8D0",
"B 	c #73726E",
"C 	c #10100F",
"D 	c #5B5A59",
"E 	c #D2D2CC",
"F 	c #ACABA6",
"G 	c #E9E8E1",
"H 	c #E3E2DA",
"I 	c #BBBAB4",
"J 	c #4A4A48",
"K 	c #969591",
"L 	c #BCBBB6",
"M 	c #90908B",
"N 	c #484745",
"O 	c #2B2B29",
"P 	c #403E32",
"Q 	c #9C7443",
"R 	c #9C7342",
"S 	c #3D372D",
"T 	c #4E3A21",
"U 	c #332D25",
"V 	c #AEA889",
"W 	c #E0D8B0",
"X 	c #43321D",
"Y 	c #43311C",
"Z 	c #EAAD64",
"` 	c #362F27",
" .	c #A18C75",
"..	c #191814",
"+.	c #4B483B",
"@.	c #323027",
"#.	c #2F0100",
"$.	c #4F0100",
"%.	c #C2A98D",
"&.	c #B69F84",
"*.	c #A79279",
"=.	c #9B8870",
"-.	c #8C7A66",
";.	c #80705D",
">.	c #3A322A",
",.	c #4D0100",
"'.	c #E80301",
").	c #0A079A",
"!.	c #080574",
"~.	c #6A5D4D",
"{.	c #383128",
"].	c #342D25",
"^.	c #2F2922",
"/.	c #2B251F",
"(.	c #490101",
"_.	c #DB0402",
":.	c #0D09D5",
"<.	c #08068E",
"[.	c #594E41",
"}.	c #180000",
"|.	c #470101",
"1.	c #040344",
"2.	c #03022D",
"                                ",
"            . . + @ # $         ",
"    % & * = - ; > , ' )         ",
"  . ! ~ { ] ^ / ( _ : < .       ",
"    [ } | 1 2 3 4 5 6 7 8       ",
"    9 0 a b c c d e f g h       ",
"    i j , k l m n o p q r s     ",
"      t u v w n x y z A B C     ",
"      D E F G H I h J . .       ",
"      . K L M N O       P P     ",
"  Q R . S T .     U .   V W P   ",
"  X Y   T Z .   `  .. . ..+.@.  ",
"#.$.$.#.. .   . %.&.*.=.-.;.>.  ",
",.'.'.,.).).!.  ~.&.{.].^./.    ",
"(._._.(.:.:.<.    [..           ",
"}.|.|.}.1.1.2.                  "};
