/* XPM */
static char * replied_xpm[] = {
"12 10 8 1",
" 	c None",
".	c #020204",
"+	c #8A7A68",
"@	c #C6AE8C",
"#	c #B59F85",
"$	c #7B6B59",
"%	c #E2DAB4",
"&	c #9E8A70",
"        .   ",
"       .%.  ",
"   .. .%%%. ",
"  .#.  .%%%.",
" .##........",
".@##&&&+$$$.",
".@###&&++$. ",
" .##......  ",
"  .#.       ",
"   ..       "};
