/* XPM */
static char * small_close[] = {
"8 9 17 1",
" 	c None",
".	c #020302",
"+	c #22262A",
"@	c #626466",
"#	c #828486",
"$	c #A6A2AE",
"%	c #AEAAB6",
"&	c #B6B2BE",
"*	c #BEBAC6",
"=	c #EEEEF2",
"-	c #424242",
";	c #121212",
">	c #4E5052",
",	c #FEFEFE",
"'	c #72767A",
")	c #6A6E72",
"!	c #1A1A1A",
"        ",
" &  *%  ",
" >#=+;$ ",
"  .>.@  ",
"  @.-   ",
"  -..'  ",
" &;#!.) ",
" >$ %;> ",
"        "};
