/* XPM */
static char * tb_undelete_xpm[] = {
"24 24 95 2",
"  	c None",
". 	c #000000",
"+ 	c #D6CBBF",
"@ 	c #D2C8BC",
"# 	c #C0B09F",
"$ 	c #C8BCAE",
"% 	c #BAAB9A",
"& 	c #A69682",
"* 	c #B3A797",
"= 	c #ADA292",
"- 	c #9E907C",
"; 	c #293227",
"> 	c #847768",
", 	c #A8B4A4",
"' 	c #2A3428",
") 	c #373B36",
"! 	c #6F665A",
"~ 	c #A8B4A5",
"{ 	c #666B63",
"] 	c #3E4A3B",
"^ 	c #1D231B",
"/ 	c #544F48",
"( 	c #586953",
"_ 	c #A4ADA1",
": 	c #656565",
"< 	c #272727",
"[ 	c #414A3D",
"} 	c #687B63",
"| 	c #C3CEBF",
"1 	c #556550",
"2 	c #AAB9A6",
"3 	c #455042",
"4 	c #879B83",
"5 	c #424D40",
"6 	c #84957E",
"7 	c #84957F",
"8 	c #080808",
"9 	c #C2CEBF",
"0 	c #A9B9A6",
"a 	c #414A3C",
"b 	c #687A63",
"c 	c #C2CDBF",
"d 	c #809A78",
"e 	c #AEBDA9",
"f 	c #51604D",
"g 	c #252525",
"h 	c #A8BA9E",
"i 	c #B4C1AB",
"j 	c #E1E7DD",
"k 	c #838A7D",
"l 	c #909F86",
"m 	c #484E43",
"n 	c #A0AD94",
"o 	c #9EAB91",
"p 	c #7D9775",
"q 	c #7A9472",
"r 	c #788F71",
"s 	c #B6C4AD",
"t 	c #BFCCB7",
"u 	c #A7B69B",
"v 	c #BEC9B5",
"w 	c #656F5E",
"x 	c #2B2E28",
"y 	c #353931",
"z 	c #242622",
"A 	c #9BAA8F",
"B 	c #9AA78E",
"C 	c #98A58C",
"D 	c #96A58D",
"E 	c #D7DED2",
"F 	c #A4B398",
"G 	c #A2B196",
"H 	c #A0B095",
"I 	c #97A38A",
"J 	c #7C9674",
"K 	c #B0C0AB",
"L 	c #CED6C8",
"M 	c #DAE1D6",
"N 	c #BBC4B1",
"O 	c #5B6B57",
"P 	c #637354",
"Q 	c #748C6B",
"R 	c #94AA8D",
"S 	c #8FA58A",
"T 	c #6F8668",
"U 	c #667961",
"V 	c #5D6E58",
"W 	c #4D5A4B",
"X 	c #485245",
"Y 	c #738B6E",
"Z 	c #5E6F5A",
"` 	c #576452",
" .	c #495345",
"..	c #4F5B4B",
"+.	c #3F453D",
"                                                ",
"                    . .                         ",
"                  . + + .                       ",
"                . @ @ @ @ .                     ",
"              . # $ # $ # $ .                   ",
"              . . . % % . . .                   ",
"                  . & * .                       ",
"                . . = - . .                     ",
"            . . ; . > > . , . .                 ",
"          . ' ) ; . ! ! . ~ { ] .               ",
"          . . . ^ . / / . , . . .               ",
"          . ( _ : . . . . < [ } .               ",
"          . ( | 1 2 3 4 5 6 [ } .               ",
"          . ( | 1 2 3 4 5 7 [ } . 8 8 8         ",
"          . ( | 1 2 3 4 5 6 [ } . 8 8 8 8       ",
"          . ( 9 1 0 3 4 5 6 a b . 8 8 8 8       ",
"          . ( c 1 0 3 4 5 . . . . . . . .       ",
"          . d e 1 0 f g . h i j k l m n o . .   ",
"            . p q r . s t u v w x y z o A B C . ",
"              . . . . D E v F G H n o A B C I . ",
"                    . J K L M N n o A B C J O . ",
"                    . P Q R S S J J T U V W X . ",
"                      . g Y } } Z `  ...+.g .   ",
"                          g g g g g g g g       "};
