/* XPM */
static char *trash_xpm[] = {
/* columns rows colors chars-per-pixel */
"16 16 61 1",
"  c Gray0",
". c Gray3",
"X c #242622",
"o c #252525",
"O c #353931",
"+ c #3f453d",
"@ c #414a3d",
"# c #424d40",
"$ c #484e43",
"% c #485245",
"& c #495345",
"* c #4a5846",
"= c #4d5a4b",
"- c #4f5b4b",
"; c #556550",
": c #576452",
"> c #586953",
", c #5b6b57",
"< c #5d6e58",
"1 c #5e7058",
"2 c #637354",
"3 c #667961",
"4 c #677a61",
"5 c #687b63",
"6 c #697d64",
"7 c #6d8267",
"8 c #6f8668",
"9 c #728a6b",
"0 c #738b6e",
"q c #748c6b",
"w c #7c8672",
"e c #7a9472",
"r c #7c9674",
"t c #7d9775",
"y c #83957e",
"u c #84957e",
"i c #84957f",
"p c #84967f",
"a c #809a78",
"s c #879b81",
"d c #879b83",
"f c #909f86",
"g c #8fa58a",
"h c #94a08d",
"j c #94aa8d",
"k c #98a58c",
"l c #9aa78e",
"z c #9baa8f",
"x c #9eab91",
"c c #a0ad94",
"v c #a7b69b",
"b c #a8ba9e",
"n c #aebda9",
"m c #b0c0ab",
"M c #b4c1ab",
"N c #bec9b5",
"B c #bfccb7",
"V c #c3cebf",
"C c #ced6c8",
"Z c #dae1d6",
"A c None",
/* pixels */
"AAAAAAAAAAAAAAAA",
"AAA      AAAAAAA",
"Ao bMf$cx  AAAAA",
" hBvNOXxzlw AAAA",
" rmCZxzlkr, AAAA",
" 2qjgr83<=% AAAA",
"A o05:&-+o AAAAA",
"A >oooooo5 AAAAA",
"A >V;d#p@5    AA",
"A >V;d#i@5 ....A",
"A >V;d#u@5 ....A",
"A an;s#y*4 ...AA",
"AA te9176 ..AAAA",
"AAA      .AAAAAA",
"AAAAAAAAAAAAAAAA",
"AAAAAAAAAAAAAAAA"
};
