/* XPM */
static char * image_name[] = {
"48 48 188 2",
"  	c #C71BCB2BC71B",
". 	c #C71BCB2BCF3C",
"X 	c #BEFBBEFBBEFB",
"o 	c #BEFBBAEABEFB",
"O 	c #B6DABAEABEFB",
"+ 	c #BEFBC30BC71B",
"@ 	c #C71BC30BC71B",
"# 	c #B6DAB6DAB6DA",
"$ 	c #B6DABAEAB6DA",
"% 	c #C71BC71BC71B",
"& 	c #AEBAAEBAAEBA",
"* 	c #EFBEF3CEF7DE",
"= 	c #E79DEBADEFBE",
"- 	c #D75CD34CD75C",
"; 	c #CF3CD34CD75C",
": 	c #CF3CCF3CCF3C",
"> 	c #D75CD75CD75C",
", 	c #D75CDB6CDF7D",
"< 	c #DF7DDF7DDF7D",
"1 	c #DF7DE38DE79D",
"2 	c #DF7DDB6CDF7D",
"3 	c #71C679E779E7",
"4 	c #492451445144",
"5 	c #AEBAAAAAAEBA",
"6 	c #A699AEBAAEBA",
"7 	c #A699AAAAA699",
"8 	c #A699A699A699",
"9 	c #A699A289A699",
"0 	c #9E79A699A699",
"q 	c #A699AAAAAEBA",
"w 	c #AEBAB2CAAEBA",
"e 	c #9E79A2899E79",
"r 	c #9E799E799E79",
"t 	c #96589A699658",
"y 	c #8E3892489658",
"u 	c #8E3896589658",
"i 	c #86178E388E38",
"p 	c #861786178617",
"a 	c #79E786178617",
"s 	c #8E3892488E38",
"d 	c #96589A699E79",
"f 	c #8E388E388E38",
"g 	c #514459655965",
"h 	c #49244D344924",
"j 	c #965896589658",
"k 	c #96589E799E79",
"l 	c #965892489658",
"z 	c #86178A288E38",
"x 	c #9E79A289A699",
"c 	c #4103410338E3",
"v 	c #492449244103",
"b 	c #86178A288617",
"n 	c #38E33CF338E3",
"m 	c #410345144103",
"M 	c #AEBAB2CAB6DA",
"N 	c #9E799A699E79",
"B 	c #492449244924",
"V 	c #41033CF338E3",
"C 	c #D75CDB6CD75C",
"Z 	c #410341034103",
"A 	c #B6DAB2CAB6DA",
"S 	c #8E388A288E38",
"D 	c #79E782078617",
"F 	c #38E338E330C2",
"G 	c #AEBAB6DAB6DA",
"H 	c #CF3CCB2BCF3C",
"J 	c #71C675D671C6",
"K 	c #38E338E338E3",
"L 	c #E79DE79DE79D",
"P 	c #DF7DE79DE79D",
"I 	c #69A675D671C6",
"U 	c #69A66DB669A6",
"Y 	c #79E77DF779E7",
"T 	c #FFFFFFFFFFFF",
"R 	c #F7DEF7DEF7DE",
"E 	c #EFBEEFBEEFBE",
"W 	c #E79DEFBEEFBE",
"Q 	c #861782078617",
"! 	c #618569A66185",
"~ 	c #38E334D330C2",
"^ 	c #F7DEFBEEFFFF",
"/ 	c #30C234D330C2",
"( 	c #492445144103",
") 	c #79E779E779E7",
"_ 	c #618565956185",
"` 	c #69A671C671C6",
"' 	c #618561855965",
"] 	c #71C679E771C6",
"[ 	c #79E775D671C6",
"{ 	c #71C671C671C6",
"} 	c #61856DB669A6",
"| 	c #A69979E779E7",
" .	c #C71BA699A699",
"..	c #51444D344924",
"X.	c #596559655965",
"o.	c #79E7820779E7",
"O.	c #618569A669A6",
"+.	c #59655D755965",
"@.	c #618561856185",
"#.	c #69A669A669A6",
"$.	c #9E7986178617",
"%.	c #B6DA6DB669A6",
"&.	c #AEBA65956185",
"*.	c #8E3869A669A6",
"=.	c #71C67DF779E7",
"-.	c #492451444924",
";.	c #8E3886178617",
":.	c #BEFB75D671C6",
">.	c #965849244924",
",.	c #514455555144",
"<.	c #AEBA7DF779E7",
"1.	c #B6DA71C671C6",
"2.	c #A69955555144",
"3.	c #596541034103",
"4.	c #51445D755965",
"5.	c #965875D671C6",
"6.	c #BEFB7DF779E7",
"7.	c #AEBA5D755965",
"8.	c #8E3845144103",
"9.	c #596561856185",
"0.	c #30C230C230C2",
"q.	c #B6DA69A669A6",
"w.	c #9E794D344924",
"e.	c #30C22CB228A2",
"r.	c #AEBA79E779E7",
"t.	c #C71B82078617",
"y.	c #79E73CF338E3",
"u.	c #596565956185",
"i.	c #B6DA65956185",
"p.	c #965845144103",
"a.	c #492434D330C2",
"s.	c #30C230C228A2",
"d.	c #861779E779E7",
"f.	c #C71B8E388E38",
"g.	c #BEFB79E779E7",
"h.	c #618538E338E3",
"j.	c #B6DA82078617",
"k.	c #CF3C9A699E79",
"l.	c #A69959655965",
"z.	c #8E3841034103",
"x.	c #410334D330C2",
"c.	c #514451445144",
"v.	c #9E797DF779E7",
"b.	c #CF3C9E799E79",
"n.	c #596534D330C2",
"m.	c #D75CA289A699",
"M.	c #79E738E338E3",
"N.	c #28A224922081",
"B.	c #208120812081",
"V.	c #596561855965",
"C.	c #28A22CB228A2",
"Z.	c #BEFB8E388E38",
"A.	c #8E383CF338E3",
"S.	c #20811C711861",
"D.	c #104010401040",
"F.	c #9E7979E779E7",
"G.	c #D75CAEBAAEBA",
"H.	c #69A634D330C2",
"J.	c #28A228A228A2",
"K.	c #10400C300820",
"L.	c #186118611861",
"P.	c #208124922081",
"I.	c #96587DF779E7",
"U.	c #A6994D344924",
"Y.	c #79E734D330C2",
"T.	c #28A21C711861",
"R.	c #082008200820",
"E.	c #F7DEEBADEFBE",
"W.	c #49241C711861",
"Q.	c #861751445144",
"!.	c #104014511040",
"~.	c #186114511040",
"^.	c #861741034103",
"/.	c #CF3C96589658",
"(.	c #A69951445144",
").	c #861738E338E3",
"_.	c #410324922081",
"`.	c #596549244924",
"'.	c #618528A228A2",
"].	c #69A671C669A6",
"[.	c #9E796DB669A6",
"{.	c #618530C230C2",
"}.	c #9E7969A669A6",
"|.	c #49243CF338E3",
" X	c #965859655965",
".X	c #69A64D344924",
"XX	c #208120811861",
"oX	c #514459655144",
"  . X X X X X X o o O O X X X X + X X X X X X X X + + @ + X O # $ # # # O X + + % % % X # o & & ",
"o * = - ; ; - : ; > > > - - > > > , > > , > > < 1 < < < < 2 > , > , , , 2 2 < < < 1 < , , O 3 4 ",
"O < % & 5 6 & 7 8 9 9 0 7 q 6 & q 6 6 6 w & & e r r t y u i p a p i s u d r 0 8 e d f i u d g h ",
"# , 8 y u j j u u s s y y j d d d j d r r k t j d u l u s i z p i y j j r e x d y i i y x i c v ",
"# , 6 y u j j j t t j j t d t t t d d d t j u j j u y y y i z z s u j t r x k s b i u t x b n m ",
"# > M u y t t d r d t j j d j j d t j j j y y t k j u u u i b i y l j r 0 x j z i j d N k a n B ",
"$ > M d y d t t k k t u t r d j d d j y u u j d k u s s f b p i y u t r x j b z j k d d r p V h ",
"# C w r j j d j N N j j d d k k t u y y y j t k N j f f s z i y y j d r d i a i t d t d r i Z h ",
"M > & e t y j j d t u u d N d j y s z i y j d t j y i z i b b f f y t t f a b l j j j d 0 s Z B ",
"# , 6 x j i y u t j y l u u l y y f f f y l y y y z f k d t & q 8 A A S D 3 p s y j t 0 & f F Z ",
"G > 6 e u i y j d j y j j u j f j q 8 8 + X X % : : H % @ X X O # # r j J 3 z f y d 8 & 6 p K m ",
"# , q d j y x O # # - - ; 1 L L P < < 2 > > : : H % @ @ X o o # A r y d I U Y p f d 7 q x D F h ",
"# > q d t L T T R R * E W = L 1 1 < 2 > - - : : . % @ X X # # # 5 Q f j z ! 3 Y z j r d y 3 ~ B ",
"# , 8 y j % ^ R R * E E L P P < 2 2 > > - : H % @ + X X O # A & p Q z l d U U 3 z j d t y I / ( ",
"# , 0 f y 0 ^ R * = P L L 1 1 < 2 > - ; : : % % + X o # # # M j ) Y p f j p _ ` ' y j t y I / ( ",
"O > 8 u d r < * W L 2 - % % : 2 > > ; : H % + X X o O # M 5 8 U ] D b y y y _ [ p E { f i } / B ",
"O > 8 t r x A E = L < > H X # & # @ : : . % X o O # # A & 8 ` _ J Y p S f f Y |  ...X.o.D O.F h ",
"O , 8 d r 8 t = = L < > : % o A 5 q 9 5 # # # # # # A & q p +.@.#.) p b S z $.%.&.*.U J =.I / -.",
"# > 8 k x 9 j O 1 1 < , - H % X A 5 8 r j p f j 5 M & q x +.+.@.O.` 3 b p ;.:.&.>.,.O.` 3 ` K h ",
"G ; 0 r 0 0 j t 1 < 2 > - : % @ X # & 8 r D ) ) J 3 S 9 U +.+._ U ` { J a <.1.2.3.h 4._ U _ / B ",
"M : 8 r 8 x f D - < , > > : H % + o A 5 N Q Y J J ` O._ +.@._ U U J ` { 5.6.7.8.h V 4 g 9.+.0.m ",
"& ; 8 x 7 k z Y # , > - : : . % @ o # & d Y ) Y J J U #.U O.U { J { J { 6.q.w.3.( K Z h +.4.e.m ",
"# - q r x j a D y > - - : H % @ + X O A l D Y Y Y Y ) { J J { ) 3 J J r.t.2.y.~ n Z n h 9.u.0.Z ",
"$ , 0 r k y a a f + ; H H % % + X o O # Q Y Y D Y Y Y 3 3 3 Y 3 ) J 5.t.i.p.a.0.n B Z h _ u.s.m ",
"+ > r r d j i z y q : . % @ + X X # A M p Y Y D D D D Y Y ) Y Y ) d.f.g.w.h.0.~ m ,.g ,._ _ 0.Z ",
"+ , e d u j y f f t H % @ + X o # # A x Q Y Q D Q Y Y 3 Y Y Y 3 3 j.k.l.z.x./ Z c.X.4 ,._ 9.e.c ",
"% , r j y j u y l y A % X o o # A M & l p D Q D D Y Y 3 ) ) ) ] v.b.%.p.n.0.K h m e.Z ,.@.9.0.Z ",
"@ 2 r d y t y f s u x X X o O # M & & f Q Q D Q Q Y Y Y =.Y =.d.m.6.w.M.0./ Z N.B./ m ,._ V.C.Z ",
"% , d u y d u y y y y X O # A A & q q p p p p p p D Y D Y Y o.Z.b.2.A.a.0.S.D.S.N./ m ,._ 9.s.Z ",
"@ < t j j d d u j s f 9 O A A & 5 8 r p z p p z p Q D D D D F.G.&.p.H.J.K.K.L.P.0.V B +.#.u.0.Z ",
"@ , j j j d d t j y s j # M & 6 q 8 d p p p p p z p Q Q D I.%.:.U.Y.T.R.D.L.B.0.n B ,._ ` _ / m ",
"% 2 j u u k d j y f y f 5 & q 8 8 9 y p Q p p p Q Q D D Y j.E.q.A.W.K.D.L.N.0.K B ,.u.` 3 U ~ h ",
"% , y j j t d j s f y s N 5 q 9 x r p p Q Q D p a Q Y Y <.G.1.G.Q.!.~.S.J./ Z B +._ ` Y z 3 K h ",
"  < d j t j t u f f f f s q 9 9 r d p Q D a p D Q Y Y d.m.6.p.^.T.S.B.J.0.Z h 4._ J Y p f ] ~ m ",
"% 2 t j t j d j f f y y i r x r r j p Q D Y D D D Y Y <./.(.)._.B.J.J.~ m ,.+.#.` 3 D D b } 0.Z ",
"% 2 d j d t d d u u y y f y r r d f Q D Y D D Y Y U `.b.q.A.'.J.e.e.F m c.9.} J Y Y o.D Y ]./ m ",
"% 2 r t d j t d j j j y f b d j j p D D D Y D Y +.P.[.6.p.{.0.K K K Z c.9.U 3 D p a a b z J K v ",
"% , r j j t j d j j t y s a f j l p D Y Y Y ` c B.x.k.2.{./ K V V m c._ J Y a p i f f f y =.~ B ",
"% , k j j j t d d j t y S Q =.y f p D Y Y X.J.J.J.}.q.y.|.m m m ( 4 _ J D p i f y y u j t D K B ",
"@ 2 d j y u j k k j d j s p J z b Q D ` B ~ ~ 0.|.2.^.( h h B h 4 9.J D z f y u j j y u j o.n B ",
"% < t t j j y j d d k N s b ) Y p D @.m Z n n n  X>.3.g X.,.,.,.9.` p i y y u j j u j t d D n h ",
"+ , d j d j u j d r r k y p o.3 Y @.,.4 h ( m B Q..X4.@.9.g ,.9.U o.z y y y l u u l j j d o.K B ",
"@ , t j d j y d e x x r u z Y I ]._ +.,.,.,.c.,.+.9.! O.O.+.+._ ) b f y y u j d t j t d r a n h ",
"% 2 r d t j u k 8 8 x t f b o.J ].} _ @.9.@._ _ O.U U ` ` ! _ 3 b y j j t j d d d k r r r a n h ",
". 2 k j y u d 8 q 8 r j i a D J ` ` U O.O.U ` ` ` 3 3 =.D Y 3 p y j j j d d t d r r e e r D K h ",
". : j y y j r 7 7 e t y z a o.=.=.] 3 ] J 3 Y Y ] Y a D J J I 3 Y o.D Y =.=.Y D D a D Y =.].n B ",
"+ r g / 0.F K K K ~ J.P.N.P.B.B.P.B.XXP.B.P.B.B.P.B.N.J./ ~ / / / ~ K F K K K K K K K K / C.J.B ",
"a oXh Z B h -.4 -.-.,.4 h h h h h -.h h -.4 4 4 -.-.4 ,.oX4.4.4.4.oX,.,.,.g g g g oXg g g ,.( +."};
